<svg width="25" height="24" viewBox="0 0 25 24" fill="none" xmlns="http://www.w3.org/2000/svg">
<path d="M9.7799 18.8191C9.5899 18.8191 9.3999 18.7491 9.2499 18.5991L3.1799 12.5291C2.8899 12.2391 2.8899 11.7591 3.1799 11.4691L9.2499 5.39914C9.5399 5.10914 10.0199 5.10914 10.3099 5.39914C10.5999 5.68914 10.5999 6.16914 10.3099 6.45914L4.7699 11.9991L10.3099 17.5391C10.5999 17.8291 10.5999 18.3091 10.3099 18.5991C10.1699 18.7491 9.9699 18.8191 9.7799 18.8191Z" fill="#292D32"/>
<path d="M20.7099 12.75H3.87988C3.46988 12.75 3.12988 12.41 3.12988 12C3.12988 11.59 3.46988 11.25 3.87988 11.25H20.7099C21.1199 11.25 21.4599 11.59 21.4599 12C21.4599 12.41 21.1199 12.75 20.7099 12.75Z" fill="#292D32"/>
</svg>
