<svg width="52" height="52" viewBox="0 0 52 52" fill="none" xmlns="http://www.w3.org/2000/svg">
<g opacity="0.5">
<rect width="52" height="52" rx="26" fill="#E6E6E6"/>
<path d="M22.7799 32.8191C22.5899 32.8191 22.3999 32.7491 22.2499 32.5991L16.1799 26.5291C15.8899 26.2391 15.8899 25.7591 16.1799 25.4691L22.2499 19.3991C22.5399 19.1091 23.0199 19.1091 23.3099 19.3991C23.5999 19.6891 23.5999 20.1691 23.3099 20.4591L17.7699 25.9991L23.3099 31.5391C23.5999 31.8291 23.5999 32.3091 23.3099 32.5991C23.1699 32.7491 22.9699 32.8191 22.7799 32.8191Z" fill="#292D32"/>
<path d="M33.7099 26.75H16.8799C16.4699 26.75 16.1299 26.41 16.1299 26C16.1299 25.59 16.4699 25.25 16.8799 25.25H33.7099C34.1199 25.25 34.4599 25.59 34.4599 26C34.4599 26.41 34.1199 26.75 33.7099 26.75Z" fill="#292D32"/>
</g>
</svg>
