<svg width="40" height="40" viewBox="0 0 40 40" fill="none" xmlns="http://www.w3.org/2000/svg">
<path d="M24.0495 31.3659C23.7329 31.3659 23.4162 31.2492 23.1662 30.9992C22.6829 30.5159 22.6829 29.7159 23.1662 29.2326L32.3995 19.9992L23.1662 10.7659C22.6829 10.2826 22.6829 9.48255 23.1662 8.99922C23.6495 8.51589 24.4495 8.51589 24.9329 8.99922L35.0495 19.1159C35.5329 19.5992 35.5329 20.3992 35.0495 20.8826L24.9329 30.9992C24.6829 31.2492 24.3662 31.3659 24.0495 31.3659Z" fill="white"/>
<path d="M33.883 21.25H5.83301C5.14967 21.25 4.58301 20.6833 4.58301 20C4.58301 19.3167 5.14967 18.75 5.83301 18.75H33.883C34.5663 18.75 35.133 19.3167 35.133 20C35.133 20.6833 34.5663 21.25 33.883 21.25Z" fill="white"/>
</svg>
