<svg width="25" height="24" viewBox="0 0 25 24" fill="none" xmlns="http://www.w3.org/2000/svg">
<path d="M12.5 12.0002V21.0002M12.5 12.0002L10 14.0002M12.5 12.0002L15 14.0002M5.53401 9.11719C4.58822 9.35518 3.76189 9.93035 3.21026 10.7346C2.65864 11.5389 2.41969 12.5169 2.53831 13.485C2.65694 14.453 3.12497 15.3444 3.85447 15.9917C4.58398 16.639 5.52474 16.9976 6.50001 17.0002H7.50001" stroke="#191D23" stroke-width="2" stroke-linecap="round" stroke-linejoin="round"/>
<path d="M16.33 7.13772C15.9882 5.78429 15.1446 4.61146 13.9701 3.85698C12.7957 3.10249 11.3783 2.82281 10.0053 3.07462C8.63225 3.32643 7.40634 4.0909 6.57607 5.21306C5.74579 6.33521 5.37327 7.73109 5.53401 9.11772C5.53401 9.11772 5.68701 9.99972 6.00001 10.4997" stroke="#191D23" stroke-width="2" stroke-linecap="round" stroke-linejoin="round"/>
<path d="M17.5 17C18.206 16.9995 18.904 16.8495 19.5479 16.5599C20.1917 16.2702 20.767 15.8475 21.2357 15.3195C21.7045 14.7915 22.0561 14.1702 22.2674 13.4965C22.4787 12.8229 22.545 12.1121 22.4618 11.4109C22.3786 10.7098 22.1479 10.0343 21.7848 9.42874C21.4217 8.82321 20.9345 8.30145 20.3552 7.89778C19.776 7.49412 19.1178 7.21772 18.424 7.08676C17.7302 6.9558 17.0166 6.97327 16.33 7.138L15 7.5" stroke="#191D23" stroke-width="2" stroke-linecap="round" stroke-linejoin="round"/>
</svg>
