<svg width="33" height="32" viewBox="0 0 33 32" fill="none" xmlns="http://www.w3.org/2000/svg">
<rect x="0.5" width="32" height="32" rx="16" fill="#128F40"/>
<path d="M17.3333 10.1673C17.3333 9.70708 16.9602 9.33398 16.5 9.33398C16.0398 9.33398 15.6667 9.70708 15.6667 10.1673V15.1673H10.6667C10.2064 15.1673 9.83333 15.5404 9.83333 16.0007C9.83333 16.4609 10.2064 16.834 10.6667 16.834H15.6667V21.834C15.6667 22.2942 16.0398 22.6673 16.5 22.6673C16.9602 22.6673 17.3333 22.2942 17.3333 21.834V16.834H22.3333C22.7936 16.834 23.1667 16.4609 23.1667 16.0007C23.1667 15.5404 22.7936 15.1673 22.3333 15.1673H17.3333V10.1673Z" fill="white"/>
</svg>
