<svg width="482" height="628" viewBox="0 0 482 628" fill="none" xmlns="http://www.w3.org/2000/svg">
<path d="M466.915 582.927C474.945 582.054 480.746 574.837 479.873 566.807L419.848 14.9523C418.974 6.92277 411.757 1.12161 403.728 1.99497L80.2198 37.1826C72.1903 38.056 66.3891 45.2732 67.2625 53.3026L95.7361 315.083C96.382 321.021 93.5296 326.796 88.4212 329.893L34.9511 362.303C35.0108 362.409 35.0152 362.529 34.9766 362.634L62.1266 612.245C63 620.275 70.2171 626.076 78.2466 625.203L466.915 582.927ZM34.7051 362.453C34.7059 362.452 34.7066 362.452 34.7073 362.451L34.7052 362.452L34.7051 362.453ZM34.7614 362.077L34.7614 362.077C34.7614 362.077 34.7614 362.077 34.7614 362.077Z" fill="url(#paint0_linear_989_1677)" stroke="#E3F2F1" stroke-width="0.749969"/>
<defs>
<linearGradient id="paint0_linear_989_1677" x1="450.233" y1="290.839" x2="31.6344" y2="336.37" gradientUnits="userSpaceOnUse">
<stop stop-color="#E3F2F1"/>
<stop offset="1" stop-color="#95DBD6"/>
</linearGradient>
</defs>
</svg>
