<svg width="24" height="25" viewBox="0 0 24 25" fill="none" xmlns="http://www.w3.org/2000/svg">
<path d="M18 11.25C17.59 11.25 17.25 10.91 17.25 10.5V8.5C17.25 5.35 16.36 3.25 12 3.25C7.64 3.25 6.75 5.35 6.75 8.5V10.5C6.75 10.91 6.41 11.25 6 11.25C5.59 11.25 5.25 10.91 5.25 10.5V8.5C5.25 5.6 5.95 1.75 12 1.75C18.05 1.75 18.75 5.6 18.75 8.5V10.5C18.75 10.91 18.41 11.25 18 11.25Z" fill="#128F40"/>
<path d="M17 23.25H7C2.59 23.25 1.25 21.91 1.25 17.5V15.5C1.25 11.09 2.59 9.75 7 9.75H17C21.41 9.75 22.75 11.09 22.75 15.5V17.5C22.75 21.91 21.41 23.25 17 23.25ZM7 11.25C3.42 11.25 2.75 11.93 2.75 15.5V17.5C2.75 21.07 3.42 21.75 7 21.75H17C20.58 21.75 21.25 21.07 21.25 17.5V15.5C21.25 11.93 20.58 11.25 17 11.25H7Z" fill="#128F40"/>
<path d="M8 17.5008C7.87 17.5008 7.74 17.4709 7.62 17.4209C7.49 17.3709 7.39001 17.3008 7.29001 17.2108C7.11001 17.0208 7 16.7708 7 16.5008C7 16.3708 7.02999 16.2408 7.07999 16.1208C7.12999 15.9908 7.20001 15.8909 7.29001 15.7909C7.39001 15.7009 7.49 15.6308 7.62 15.5808C7.98 15.4208 8.42999 15.5109 8.70999 15.7909C8.79999 15.8909 8.87001 16.0008 8.92001 16.1208C8.97001 16.2408 9 16.3708 9 16.5008C9 16.7608 8.88999 17.0208 8.70999 17.2108C8.51999 17.3908 8.26 17.5008 8 17.5008Z" fill="#128F40"/>
<path d="M12 17.5009C11.74 17.5009 11.48 17.3909 11.29 17.2109C11.11 17.0209 11 16.7709 11 16.5009C11 16.3709 11.02 16.2409 11.08 16.1209C11.13 16.0009 11.2 15.8909 11.29 15.7909C11.52 15.5609 11.87 15.4509 12.19 15.5209C12.26 15.5309 12.32 15.5509 12.38 15.5809C12.44 15.6009 12.5 15.6309 12.56 15.6709C12.61 15.7009 12.66 15.7509 12.71 15.7909C12.8 15.8909 12.87 16.0009 12.92 16.1209C12.97 16.2409 13 16.3709 13 16.5009C13 16.7709 12.89 17.0209 12.71 17.2109C12.66 17.2509 12.61 17.2909 12.56 17.3309C12.5 17.3709 12.44 17.4009 12.38 17.4209C12.32 17.4509 12.26 17.4709 12.19 17.4809C12.13 17.4909 12.06 17.5009 12 17.5009Z" fill="#128F40"/>
<path d="M16 17.5009C15.73 17.5009 15.48 17.3909 15.29 17.2109C15.2 17.1109 15.13 17.0009 15.08 16.8809C15.03 16.7609 15 16.6309 15 16.5009C15 16.2409 15.11 15.9809 15.29 15.7909C15.34 15.7509 15.39 15.7109 15.44 15.6709C15.5 15.6309 15.56 15.6009 15.62 15.5809C15.68 15.5509 15.74 15.5309 15.8 15.5209C16.13 15.4509 16.47 15.5609 16.71 15.7909C16.89 15.9809 17 16.2309 17 16.5009C17 16.6309 16.97 16.7609 16.92 16.8809C16.87 17.0109 16.8 17.1109 16.71 17.2109C16.52 17.3909 16.26 17.5009 16 17.5009Z" fill="#128F40"/>
</svg>
