<svg width="601" height="117" viewBox="0 0 601 117" fill="none" xmlns="http://www.w3.org/2000/svg">
<path d="M613.572 60.7604C606.032 60.4704 597.812 60.2304 590.302 61.2604C590.261 61.1717 590.191 61.0997 590.103 61.0562C590.016 61.0128 589.916 61.0006 589.82 61.0215C589.725 61.0425 589.639 61.0955 589.578 61.1716C589.516 61.2478 589.483 61.3426 589.482 61.4404C589.482 67.2404 589.582 73.0504 589.722 78.8504C589.686 78.7519 589.621 78.6667 589.535 78.606C589.449 78.5454 589.347 78.512 589.242 78.5104C584.812 78.3704 580.382 78.3704 575.962 78.3304C572.382 78.3304 568.672 77.9504 565.142 78.5904V78.4404C565.142 77.7504 564.022 77.7404 564.052 78.4404C564.156 81.3115 564.461 84.1717 564.962 87.0004C561.057 86.7005 557.137 86.6304 553.222 86.7904C552.872 79.2304 552.592 71.6604 551.872 64.1204C551.868 64.0415 551.835 63.9668 551.78 63.9098C551.726 63.8529 551.652 63.8176 551.573 63.8104C551.495 63.8031 551.416 63.8243 551.351 63.8702C551.287 63.9161 551.241 63.9836 551.222 64.0604C545.732 63.4204 539.792 63.7804 534.272 64.1304C534.272 54.4304 534.172 44.6904 533.272 35.1304C533.273 35.0595 533.246 34.9912 533.198 34.9392C533.149 34.8872 533.083 34.8555 533.012 34.8504C532.985 34.7607 532.929 34.6822 532.853 34.6264C532.778 34.5706 532.686 34.5405 532.592 34.5404C528.752 34.2104 524.842 34.4104 520.992 34.4104C518.312 34.4104 514.992 33.9404 512.302 34.6704C512.272 34.6048 512.22 34.5515 512.155 34.5192C512.09 34.4869 512.017 34.4776 511.946 34.4926C511.875 34.5077 511.811 34.5464 511.765 34.6023C511.719 34.6582 511.694 34.728 511.692 34.8004C511.697 34.8236 511.697 34.8473 511.692 34.8704C511.642 34.8932 511.6 34.9297 511.57 34.9758C511.54 35.0218 511.523 35.0754 511.522 35.1304C511.522 35.4304 511.522 35.5004 511.652 35.6204C510.822 48.1104 511.782 60.9904 512.272 73.6204C512.228 73.572 512.174 73.5329 512.113 73.5054C512.053 73.4779 511.989 73.4627 511.922 73.4604C504.592 73.1104 497.162 72.9504 489.812 73.0904C489.602 67.6604 489.342 62.2304 488.992 56.8204C488.991 56.7518 488.976 56.6841 488.947 56.622C488.917 56.5599 488.875 56.5048 488.822 56.4604C488.78 56.3474 488.703 56.2508 488.603 56.1843C488.502 56.1178 488.383 56.0849 488.262 56.0904C478.722 56.2104 469.072 56.1504 459.582 57.2104C459.526 57.2153 459.471 57.2336 459.423 57.2638C459.375 57.2939 459.334 57.3351 459.305 57.3839C459.276 57.4327 459.258 57.4877 459.254 57.5445C459.25 57.6012 459.26 57.6581 459.282 57.7104C458.662 60.3404 459.012 63.4704 459.282 66.1404C459.286 66.1637 459.286 66.1872 459.282 66.2104L449.282 66.4704C449.152 64.0304 449.032 61.5904 448.882 59.1604H448.962C449.752 59.1604 449.752 57.9704 448.962 57.9304C441.262 57.5904 433.542 57.3404 425.842 57.7204C425.74 57.6434 425.616 57.6017 425.487 57.6017C425.359 57.6017 425.235 57.6434 425.132 57.7204H424.962C424.859 57.7204 424.76 57.7615 424.687 57.8347C424.614 57.9078 424.572 58.007 424.572 58.1104C424.572 58.2139 424.614 58.3131 424.687 58.3862C424.76 58.4593 424.859 58.5004 424.962 58.5004C425.052 65.9204 425.192 73.3504 425.472 80.7704C424.052 80.7704 422.632 80.8504 421.212 80.9404C421.212 74.3304 420.922 67.7004 420.742 61.0904C420.592 55.3204 421.422 48.5704 419.822 42.9904C419.908 42.9784 419.989 42.9464 420.06 42.8971C420.131 42.8478 420.189 42.7825 420.23 42.7066C420.27 42.6307 420.293 42.5462 420.295 42.4601C420.297 42.3739 420.279 42.2884 420.242 42.2104C417.632 37.2104 414.682 31.7204 410.752 27.5704C410.752 27.5704 410.752 27.5704 410.692 27.5704C411.042 20.7167 410.992 13.8484 410.542 7.00044C410.585 6.91974 410.601 6.82726 410.586 6.73702C410.572 6.64679 410.528 6.56373 410.462 6.50044C410.457 6.44324 410.434 6.38917 410.396 6.34558C410.359 6.302 410.309 6.271 410.253 6.2568C410.197 6.2426 410.139 6.24589 410.085 6.26622C410.031 6.28655 409.985 6.32294 409.952 6.37044C409.613 6.4294 409.279 6.51295 408.952 6.62044C408.678 6.67182 408.401 6.70854 408.122 6.73044C407.882 6.73044 407.702 6.85044 407.472 6.88044C407.242 6.91044 407.242 7.10044 407.302 7.25044C407.252 7.32126 407.221 7.40397 407.212 7.49044C406.611 13.909 406.334 20.3539 406.382 26.8004C406.382 26.8004 406.382 26.8004 406.332 26.8604C403.31 32.1598 400.84 37.7559 398.962 43.5604C398.911 43.5155 398.85 43.4816 398.785 43.4609C398.72 43.4403 398.651 43.4333 398.582 43.4404C393.862 43.8104 389.152 44.0804 384.422 44.1204C379.692 44.1604 374.902 43.5704 370.252 44.1204C370.215 44.1245 370.179 44.1391 370.15 44.1625C370.12 44.1859 370.098 44.2172 370.086 44.2527C370.073 44.2882 370.071 44.3266 370.079 44.3633C370.087 44.4001 370.106 44.4337 370.132 44.4604C370.088 44.5062 370.054 44.5613 370.033 44.6219C370.012 44.6824 370.005 44.7468 370.012 44.8104C370.289 48.8045 370.332 52.8113 370.142 56.8104C365.022 56.8104 359.872 57.0304 354.792 57.4804V57.4204C354.792 56.7804 353.792 56.7804 353.792 57.4204C353.697 59.2192 353.697 61.0217 353.792 62.8204C353.72 64.184 353.939 65.5474 354.432 66.8204C348.322 67.1504 342.252 66.9304 336.112 67.3604C335.972 60.1004 335.792 52.8304 335.312 45.5904C335.932 45.4004 335.922 44.3804 335.212 44.4604H335.152C335.115 44.418 335.067 44.3852 335.014 44.3647C334.961 44.3442 334.904 44.3366 334.847 44.3424C334.79 44.3483 334.736 44.3675 334.688 44.3984C334.641 44.4293 334.601 44.4712 334.572 44.5204C328.672 45.1604 322.782 45.5904 316.852 45.6504C314.532 45.6504 309.252 44.4104 307.302 45.9204C307.242 45.8858 307.175 45.8659 307.105 45.8623C307.036 45.8587 306.967 45.8716 306.904 45.8999C306.84 45.9282 306.784 45.9711 306.741 46.025C306.697 46.079 306.667 46.1425 306.652 46.2104C305.814 51.7702 305.727 57.4174 306.392 63.0004C303.392 62.8804 300.392 62.8604 297.452 63.0004C296.812 43.2004 297.112 23.0004 295.102 3.33044H295.572C295.716 3.33044 295.853 3.27354 295.954 3.17227C296.056 3.071 296.112 2.93365 296.112 2.79044C296.112 2.64722 296.056 2.50987 295.954 2.4086C295.853 2.30733 295.716 2.25044 295.572 2.25044C288.522 2.38043 281.572 2.09044 274.572 1.60044C274.152 1.60044 274.042 2.28044 274.472 2.36044H274.612C275.142 12.4504 275.532 22.5504 275.612 32.6504C275.692 42.7504 275.042 52.7104 275.212 62.7204C271.822 62.7904 268.402 63.0004 265.112 63.3904C265.167 63.3263 265.195 63.2444 265.192 63.1604C265.582 52.7304 265.762 42.2804 265.842 31.8404C265.922 21.4004 266.472 10.8404 265.472 0.500435C265.472 0.42087 265.441 0.344564 265.385 0.288303C265.328 0.232042 265.252 0.200435 265.172 0.200435C265.093 0.200435 265.017 0.232042 264.96 0.288303C264.904 0.344564 264.872 0.42087 264.872 0.500435V0.560435C264.834 0.522368 264.789 0.492178 264.739 0.471588C264.69 0.450998 264.636 0.440413 264.582 0.440435C256.982 -0.0595648 249.192 -0.0895648 241.582 0.130435C241.514 0.13095 241.447 0.148556 241.387 0.18165C241.327 0.214745 241.277 0.262276 241.24 0.319919C241.203 0.377562 241.181 0.443486 241.177 0.511691C241.172 0.579897 241.184 0.648217 241.212 0.710435C241.147 0.729265 241.089 0.766718 241.044 0.818219C241 0.869719 240.971 0.933037 240.962 1.00044C239.882 6.12044 239.482 13.1804 240.832 18.3704C238.942 18.2804 237.052 18.2304 235.172 18.2704C235.062 15.4704 234.942 12.6804 234.832 9.88043C234.83 9.72476 234.767 9.57618 234.657 9.46609C234.547 9.356 234.398 9.29301 234.242 9.29043C222.792 9.59044 211.122 8.23043 199.732 8.96043C199.728 8.90387 199.728 8.847 199.732 8.79043C199.717 8.68892 199.665 8.59634 199.587 8.52946C199.509 8.46258 199.41 8.42582 199.307 8.42582C199.205 8.42582 199.105 8.46258 199.027 8.52946C198.95 8.59634 198.898 8.68892 198.882 8.79043C198.362 19.7204 198.352 30.7004 198.482 41.6804C198.4 41.6635 198.315 41.6635 198.232 41.6804C188.822 42.2804 179.422 42.6804 169.992 42.6204C169.839 42.623 169.693 42.6849 169.585 42.7932C169.477 42.9014 169.415 43.0474 169.412 43.2004C168.959 46.5173 168.942 49.8792 169.362 53.2004H160.792C160.647 53.2004 160.507 53.2584 160.404 53.3615C160.3 53.4647 160.242 53.6046 160.242 53.7504C160.512 62.3004 160.702 70.8604 161.242 79.4004L153.182 79.7004C152.672 69.8704 152.182 60.0404 151.682 50.2204C151.68 50.0498 151.61 49.887 151.489 49.7673C151.367 49.6475 151.203 49.5804 151.032 49.5804C148.181 49.5469 145.337 49.883 142.572 50.5804L142.512 41.2304C142.507 41.0659 142.439 40.9097 142.322 40.7942C142.204 40.6787 142.047 40.6129 141.882 40.6104C137.572 40.6104 133.192 40.4104 128.882 40.7604C128.882 37.5904 128.882 34.4204 128.882 31.2504C128.88 31.0895 128.815 30.9358 128.701 30.8219C128.587 30.7081 128.433 30.643 128.272 30.6404C124.756 30.6204 121.244 30.4001 117.752 29.9804C117.422 29.9804 117.162 30.2904 117.142 30.5904C116.982 34.3704 116.762 38.1904 116.842 41.9804C116.801 41.8691 116.725 41.7736 116.627 41.7073C116.528 41.6409 116.411 41.6071 116.292 41.6104C114.202 41.6104 112.102 41.6104 110.012 41.6104C108.952 41.6104 107.122 41.3204 106.242 42.1404C105.362 42.9604 105.722 44.1404 105.732 45.0504C105.737 46.8478 105.838 48.6437 106.032 50.4304C102.912 50.8423 99.7696 51.0594 96.6225 51.0804C96.5568 51.0775 96.4915 51.0904 96.4319 51.1181C96.3723 51.1457 96.3203 51.1872 96.2801 51.2392C96.2399 51.2911 96.2128 51.3519 96.201 51.4166C96.1892 51.4812 96.1932 51.5477 96.2124 51.6104C96.1533 51.6951 96.1251 51.7975 96.1324 51.9004C96.6024 65.0404 96.7325 78.2604 97.7524 91.3804C94.7524 91.3804 91.7524 91.5004 88.8224 91.6604C88.8224 89.3704 88.8224 87.0804 88.6225 84.8104C88.722 84.734 88.796 84.6292 88.8347 84.5099C88.8734 84.3905 88.875 84.2622 88.8392 84.1419C88.8035 84.0217 88.7321 83.9151 88.6344 83.8362C88.5368 83.7574 88.4176 83.71 88.2924 83.7004C81.4324 83.5304 74.5624 83.3704 67.7024 83.2704C67.5521 83.273 67.4086 83.3339 67.3022 83.4402C67.1959 83.5466 67.135 83.6901 67.1324 83.8404C66.8728 86.1041 66.8126 88.3862 66.9524 90.6604C65.0724 90.7604 63.1924 90.8704 61.3124 91.0004C61.8424 88.0004 61.4224 84.7804 61.3124 81.7204C61.2926 78.5434 61.1124 75.3693 60.7724 72.2104C60.8346 72.1222 60.8714 72.0187 60.8789 71.911C60.8863 71.8034 60.864 71.6957 60.8146 71.5998C60.7651 71.5039 60.6902 71.4234 60.5982 71.3671C60.5061 71.3108 60.4004 71.2808 60.2924 71.2804C50.0125 71.6104 39.7324 71.8704 29.4624 72.2804C29.3155 72.2854 29.1759 72.346 29.072 72.45C28.968 72.5539 28.9074 72.6935 28.9024 72.8404C28.4824 76.8404 28.1824 80.7804 28.0824 84.7704C28.0324 86.6104 28.0224 88.4504 28.0824 90.2904C28.0824 91.2104 28.1124 92.1304 28.1724 93.0504C28.1024 94.3031 28.3321 95.5543 28.8424 96.7004C28.7962 96.6576 28.7355 96.6337 28.6724 96.6337C28.6094 96.6337 28.5487 96.6576 28.5024 96.7004L28.3724 96.7904C28.3209 96.8365 28.277 96.8905 28.2424 96.9504C24.5948 97.4205 20.9077 97.5043 17.2424 97.2004C16.9324 93.5504 16.5424 89.9404 16.0724 86.4204C16.1547 86.3356 16.2095 86.228 16.2299 86.1116C16.2503 85.9953 16.2353 85.8755 16.1868 85.7677C16.1383 85.66 16.0586 85.5693 15.958 85.5074C15.8574 85.4455 15.7405 85.4152 15.6224 85.4204C6.96244 86.0504 -1.72756 86.5204 -10.3776 87.4204C-10.4972 87.4316 -10.6098 87.4817 -10.6983 87.563C-10.7868 87.6442 -10.8462 87.7522 -10.8676 87.8704C-10.9262 87.9498 -10.9641 88.0426 -10.9776 88.1404C-12.2591 100.932 -12.3361 113.815 -11.2076 126.62C-11.2076 127.23 -10.2076 127.25 -10.2076 126.62C-10.4976 113.84 -11.2076 101.2 -9.84756 88.4504C-1.47756 88.0804 6.88245 87.3204 15.2424 86.7004C15.4724 99.0004 15.5424 111.61 16.5024 123.85C16.5024 123.991 16.5583 124.126 16.6577 124.225C16.7571 124.325 16.8919 124.38 17.0324 124.38C17.173 124.38 17.3078 124.325 17.4072 124.225C17.5066 124.126 17.5624 123.991 17.5624 123.85C18.183 115.285 18.1094 106.684 17.3424 98.1304C20.1699 98.6923 23.0664 98.8205 25.9324 98.5104C27.737 98.1953 29.5615 98.0082 31.3924 97.9504C34.3924 98.1604 34.5524 98.8004 35.1324 101.69C35.8924 105.41 35.5124 109.78 35.7124 113.59C35.9124 117.59 36.0924 121.53 36.3824 125.5C36.4057 125.616 36.4682 125.72 36.5593 125.794C36.6504 125.869 36.7646 125.91 36.8824 125.91C37.0003 125.91 37.1144 125.869 37.2056 125.794C37.2967 125.72 37.3592 125.616 37.3824 125.5C37.3824 124.68 37.3824 123.86 37.3024 123.04C38.2224 123.04 39.1524 123.11 40.0824 123.12V123.86C40.0824 123.916 40.1046 123.97 40.144 124.009C40.1833 124.048 40.2368 124.07 40.2924 124.07C40.3481 124.07 40.4016 124.048 40.4409 124.009C40.4803 123.97 40.5024 123.916 40.5024 123.86C40.5024 123.61 40.5024 123.37 40.5024 123.13C43.4384 123.194 46.3752 123.057 49.2924 122.72C49.5224 122.72 49.5324 122.33 49.2924 122.34L45.6724 122.5C45.6724 121.66 45.6724 120.82 45.6724 119.98C46.6724 119.85 47.7524 119.67 48.7724 119.46C48.9356 119.898 49.1837 120.299 49.5024 120.64C49.6324 120.78 49.8224 120.58 49.7124 120.43C49.4628 120.116 49.2761 119.756 49.1624 119.37C49.6724 119.27 50.1624 119.17 50.6824 119.04C51.0024 118.96 50.8624 118.51 50.5524 118.56L49.0024 118.8C48.8228 117.781 48.7724 116.743 48.8524 115.71L51.0224 115.37C51.2424 115.37 51.1924 114.93 50.9624 114.96L48.8824 115.2C49.0224 113.29 49.3524 111.36 49.4124 110.1C49.9524 109.99 50.4924 109.88 51.0324 109.75C51.3524 109.68 51.2124 109.2 50.8924 109.27C50.4124 109.36 49.8924 109.44 49.4424 109.54L49.5624 106.62C50.1724 106.5 50.7924 106.38 51.3924 106.22C51.7324 106.14 51.5824 105.66 51.2524 105.71L49.5824 105.94C49.6424 104.64 49.6924 103.33 49.7524 102.03H50.0124C50.2324 102.03 50.1824 101.61 49.9624 101.63H49.7624L49.8524 99.5004C49.8524 99.0904 49.8524 98.6704 49.9024 98.2504H50.0524C50.3524 98.2504 50.2924 97.6804 49.9824 97.7204H49.8624C49.9224 96.1904 49.9924 94.7204 50.0524 93.1404H50.2324C50.6924 93.1404 50.7024 92.3904 50.2324 92.4204H50.0824L50.2324 88.7704C51.1624 88.6904 52.0925 88.6004 53.0125 88.5004C53.0125 88.9704 53.0125 89.4304 53.0125 89.9004C53.0245 89.9619 53.0574 90.0173 53.1058 90.0571C53.1541 90.0969 53.2148 90.1187 53.2775 90.1187C53.3401 90.1187 53.4008 90.0969 53.4491 90.0571C53.4975 90.0173 53.5304 89.9619 53.5424 89.9004C53.5424 89.4104 53.5424 88.9004 53.6225 88.4404C54.7025 88.3338 55.7824 88.2138 56.8624 88.0804C57.2225 88.0804 57.2424 87.4804 56.8624 87.5004H56.4524C56.6707 84.7422 56.6941 81.972 56.5224 79.2104C56.509 79.134 56.469 79.0648 56.4096 79.0149C56.3502 78.965 56.275 78.9377 56.1974 78.9377C56.1199 78.9377 56.0447 78.965 55.9853 79.0149C55.9259 79.0648 55.8859 79.134 55.8725 79.2104C55.7219 81.9494 55.7519 84.6954 55.9624 87.4304C55.2024 87.4304 54.4425 87.5204 53.6824 87.5804C53.7325 86.6404 53.7824 85.7104 53.8524 84.7704C54.3024 84.7704 54.7625 84.6904 55.2225 84.6304C55.2861 84.6304 55.3471 84.6051 55.3922 84.5601C55.4372 84.5151 55.4624 84.4541 55.4624 84.3904C55.4624 84.3268 55.4372 84.2657 55.3922 84.2207C55.3471 84.1757 55.2861 84.1504 55.2225 84.1504H53.8824C53.9524 83.2304 54.0024 82.3104 54.0524 81.3904H55.2225C55.3014 81.3767 55.3729 81.3356 55.4245 81.2744C55.4761 81.2131 55.5044 81.1355 55.5044 81.0554C55.5044 80.9753 55.4761 80.8978 55.4245 80.8365C55.3729 80.7752 55.3014 80.7341 55.2225 80.7204C54.8425 80.7204 54.4724 80.7204 54.0924 80.7204C54.1524 79.5604 54.1924 78.4104 54.2024 77.2504L55.0624 77.1504C55.4624 77.1504 55.4924 76.4904 55.0624 76.5004H54.2225V76.4204C54.2225 76.0704 53.6424 75.9604 53.5825 76.3404V76.5304C47.4625 76.8604 41.3624 77.9904 35.2224 77.8104C35.0024 77.8104 35.0024 78.1404 35.2224 78.1604C36.8924 78.2904 38.5924 78.3404 40.3124 78.3204C40.3124 79.2304 40.3124 80.1404 40.3124 81.0504C39.3124 81.1404 38.3124 81.2304 37.3124 81.3404C37.3124 80.4904 37.3124 79.6404 37.3124 78.7904C37.3015 78.7389 37.2732 78.6926 37.2322 78.6594C37.1913 78.6262 37.1402 78.6081 37.0874 78.6081C37.0347 78.6081 36.9836 78.6262 36.9427 78.6594C36.9017 78.6926 36.8734 78.7389 36.8624 78.7904C36.7624 79.6604 36.6824 80.5404 36.6124 81.4204C35.8624 81.5104 35.1024 81.5904 34.3524 81.6904C34.0624 81.6904 34.0524 82.1804 34.3524 82.1604C35.0924 82.0904 35.8324 82.0604 36.5624 82.0104C36.4924 82.9504 36.4324 83.9004 36.3924 84.8404C35.4824 84.8404 34.5824 84.9104 33.6724 84.9304C33.6233 84.9411 33.5794 84.9682 33.5478 85.0073C33.5163 85.0465 33.4991 85.0952 33.4991 85.1454C33.4991 85.1957 33.5163 85.2444 33.5478 85.2835C33.5794 85.3226 33.6233 85.3498 33.6724 85.3604H36.2624C36.2624 86.6604 36.1724 87.9504 36.1424 89.2404L33.3424 89.5304C33.3424 85.7204 33.1924 81.9004 32.9824 78.1104C32.9824 77.7304 32.3624 77.7204 32.3824 78.1104C32.5124 81.9404 32.6224 85.7704 32.7424 89.5904L31.9124 89.6804C31.6824 89.6804 31.6724 90.0704 31.9124 90.0504L32.7524 89.9904C32.7524 91.2004 32.8324 92.4104 32.8824 93.6204C31.7669 93.6027 30.6607 93.4139 29.6024 93.0604C29.4724 91.0604 29.1124 89.0004 29.1024 87.4804C29.1024 84.2804 28.1024 76.1304 30.5424 73.9704C32.0424 72.6204 35.1624 73.2004 37.1124 73.1404L44.8224 72.9004L59.8924 72.4104C59.6925 75.7004 59.9825 79.0604 60.1124 82.3504C60.2124 85.2004 60.0525 88.1704 60.7625 90.9404C58.4725 91.1104 56.1824 91.3004 53.9025 91.5404C53.8321 91.5465 53.7638 91.5669 53.7016 91.6003C53.6394 91.6336 53.5847 91.6793 53.5407 91.7345C53.4968 91.7897 53.4645 91.8533 53.4459 91.9213C53.4272 91.9894 53.4227 92.0605 53.4324 92.1304C53.3653 92.0653 53.2809 92.0208 53.1892 92.0021C53.0975 91.9835 53.0024 91.9914 52.9151 92.0251C52.8279 92.0587 52.752 92.1167 52.6966 92.192C52.6412 92.2674 52.6085 92.3571 52.6024 92.4504C52.5424 103.57 52.0424 114.66 51.8724 125.77C51.8724 125.892 51.9209 126.009 52.0072 126.096C52.0934 126.182 52.2104 126.23 52.3325 126.23C52.4545 126.23 52.5714 126.182 52.6577 126.096C52.744 126.009 52.7924 125.892 52.7924 125.77C53.6324 114.71 53.6424 103.54 53.5624 92.4504C53.6073 92.497 53.662 92.5329 53.7226 92.5554C53.7832 92.5779 53.8481 92.5865 53.9124 92.5804C59.5224 92.4604 65.1824 92.0804 70.7724 91.5804C68.9124 95.8304 70.0125 101.23 70.1424 105.72C70.3424 112.31 70.5225 118.9 70.7625 125.48C70.7807 125.617 70.8481 125.743 70.952 125.834C71.0559 125.925 71.1893 125.975 71.3274 125.975C71.4656 125.975 71.599 125.925 71.7029 125.834C71.8068 125.743 71.8742 125.617 71.8924 125.48C71.7724 119.83 71.6124 114.19 71.4524 108.54C71.2924 102.89 70.2225 96.3704 71.9025 90.9104C71.9196 90.836 71.9127 90.7581 71.8827 90.6879C71.8526 90.6176 71.801 90.5588 71.7353 90.5198C71.6697 90.4809 71.5933 90.4638 71.5173 90.4711C71.4413 90.4784 71.3695 90.5097 71.3124 90.5604C71.2599 90.5061 71.1957 90.4643 71.1247 90.4383C71.0537 90.4123 70.9777 90.4028 70.9025 90.4104L67.5825 90.5604C67.5825 88.5604 67.4324 85.4704 69.2424 84.3904C70.3524 83.7404 74.2425 84.5104 75.5825 84.5504C79.5825 84.6404 83.6624 84.7404 87.7124 84.8204C87.0224 91.4704 87.3524 98.3204 87.4624 104.99C87.5825 111.91 87.6224 118.93 88.3424 125.82C88.4024 126.39 89.2524 126.42 89.2524 125.82C89.2524 118.88 88.8124 111.93 88.7124 104.99C88.6525 100.81 88.7924 96.5904 88.7924 92.3804C92.5225 92.5204 96.2424 92.5104 99.9824 92.4804C101.402 92.4804 104.322 91.8604 105.682 92.4804C108.922 93.8704 108.132 97.0304 108.252 99.7604C108.602 108.01 108.902 116.26 109.252 124.51C109.252 125.21 110.372 125.22 110.342 124.51C110.136 118.897 109.922 113.287 109.702 107.68C109.602 105.04 109.522 102.4 109.432 99.7604C109.372 97.7604 109.912 94.4504 109.172 92.6704C108.432 90.8904 107.702 91.2904 105.722 91.3004C103.292 91.3004 100.872 91.3004 98.4425 91.3004C98.5125 78.1904 97.6824 65.0504 97.2124 51.9504C100.413 52.223 103.636 52.0582 106.792 51.4604C106.917 51.4171 107.025 51.3345 107.098 51.2249C107.172 51.1154 107.208 50.9848 107.202 50.8529C107.195 50.721 107.145 50.5948 107.061 50.4934C106.976 50.392 106.861 50.3208 106.732 50.2904C106.732 49.1304 106.732 47.9704 106.732 46.8104C106.732 45.6504 106.342 43.3804 107.612 42.8104C108.522 42.4004 110.542 42.7604 111.542 42.7604C113.112 42.7604 114.682 42.7604 116.252 42.7604C116.371 42.7676 116.488 42.7365 116.587 42.6716C116.686 42.6068 116.762 42.5117 116.802 42.4004V42.4604C116.817 42.5494 116.863 42.6302 116.931 42.6886C117 42.747 117.087 42.779 117.177 42.779C117.268 42.779 117.355 42.747 117.423 42.6886C117.492 42.6302 117.538 42.5494 117.552 42.4604C118.002 38.7204 118.122 34.9304 118.292 31.1704C121.392 31.5204 124.492 31.7204 127.612 31.7604C127.612 34.7604 127.612 37.7604 127.612 40.7604C127.612 40.7604 127.612 40.7604 127.612 40.8404C127.563 40.8913 127.53 40.9556 127.517 41.0251C127.505 41.0947 127.513 41.1665 127.54 41.2316C127.568 41.2967 127.614 41.3521 127.673 41.391C127.732 41.43 127.802 41.4506 127.872 41.4504C132.308 41.779 136.757 41.8724 141.202 41.7304L141.262 51.0904C141.266 51.227 141.313 51.3588 141.397 51.466C141.482 51.5733 141.599 51.6502 141.731 51.6852C141.863 51.7202 142.003 51.7113 142.129 51.6599C142.256 51.6086 142.362 51.5175 142.432 51.4004C142.521 51.4213 142.614 51.4213 142.702 51.4004C145.772 50.8904 149.512 49.4904 150.482 53.0404C151.202 55.6604 150.832 59.2304 150.982 61.9304C151.292 67.8204 151.582 73.7104 151.892 79.6004L144.532 79.9104C144.479 79.9087 144.427 79.9183 144.378 79.9388C144.329 79.9592 144.285 79.9898 144.249 80.0287C144.213 80.0676 144.186 80.1138 144.169 80.1641C144.152 80.2144 144.147 80.2677 144.152 80.3204C144.152 80.3204 144.152 80.3204 144.152 80.3904C143.474 94.9486 143.731 109.535 144.922 124.06C144.922 124.182 144.971 124.299 145.057 124.386C145.143 124.472 145.26 124.52 145.382 124.52C145.504 124.52 145.621 124.472 145.708 124.386C145.794 124.299 145.842 124.182 145.842 124.06C145.922 109.73 145.842 95.0004 144.782 80.7004C153.174 81.2938 161.603 81.1164 169.962 80.1704C169.822 95.0604 170.502 110.23 171.352 125.1C171.352 125.233 171.405 125.36 171.499 125.454C171.593 125.548 171.72 125.6 171.852 125.6C171.985 125.6 172.112 125.548 172.206 125.454C172.3 125.36 172.352 125.233 172.352 125.1C172.59 110.081 172.033 95.0605 170.682 80.1004C171.262 79.9004 171.262 78.9504 170.552 78.9804C167.682 79.1004 164.802 79.2104 161.932 79.3104C161.932 74.5504 161.812 69.7904 161.672 65.0304C161.622 63.1404 161.562 61.2504 161.502 59.3604L161.392 55.5804C161.52 55.2775 161.706 55.0029 161.941 54.7723C162.175 54.5418 162.453 54.3599 162.757 54.2372C163.062 54.1145 163.389 54.0534 163.717 54.0574C164.046 54.0613 164.371 54.1304 164.672 54.2604C167.062 53.8204 170.012 54.2604 172.452 54.2604C174.392 54.0954 176.343 54.0954 178.282 54.2604C182.012 54.9404 181.822 55.9104 182.132 59.6104C182.332 61.9104 182.522 64.2004 182.702 66.5004C184.232 85.8904 184.702 105.31 184.442 124.75C184.473 124.859 184.539 124.955 184.629 125.023C184.72 125.091 184.829 125.128 184.942 125.128C185.055 125.128 185.165 125.091 185.256 125.023C185.346 124.955 185.411 124.859 185.442 124.75C185.815 101.051 184.897 77.3497 182.692 53.7504C182.69 53.6001 182.629 53.4566 182.523 53.3502C182.416 53.2439 182.273 53.183 182.122 53.1804H170.122C170.022 51.3604 169.202 46.3404 170.272 44.8604C171.722 42.8604 177.092 43.7804 179.342 43.7404C185.622 43.6304 191.902 43.3704 198.162 42.8804C198.258 42.8802 198.352 42.8524 198.432 42.8004C198.532 50.8004 198.692 58.7404 198.802 66.6804C199.056 85.9604 199.532 105.237 200.232 124.51C200.232 125.14 201.232 125.14 201.232 124.51C200.632 105.23 200.142 85.9604 199.902 66.6804C199.662 47.6104 200.232 28.4904 199.692 9.44043C204.982 10.4404 210.552 10.4404 215.932 10.5704C218.819 10.6438 221.702 10.6738 224.582 10.6604C226.752 10.6604 231.362 9.72043 232.982 11.2404C234.602 12.7604 233.982 18.7004 234.052 20.9104C234.182 23.9104 234.302 26.9104 234.432 29.9104C234.692 36.2438 234.942 42.5771 235.182 48.9104C236.169 73.8904 237.169 98.8704 238.182 123.85C238.182 124.53 239.282 124.54 239.252 123.85C237.859 88.9638 236.486 54.0704 235.132 19.1704C238.852 19.6104 242.612 19.7504 246.362 19.8404C246.375 19.9094 246.412 19.9717 246.466 20.0165C246.519 20.0613 246.587 20.0859 246.657 20.0859C246.728 20.0859 246.795 20.0613 246.849 20.0165C246.903 19.9717 246.94 19.9094 246.952 19.8404L249.322 19.9004C248.802 37.2704 249.542 54.7804 249.652 72.1704C249.772 89.7304 249.812 107.28 250.002 124.84C250.002 124.965 250.052 125.085 250.14 125.173C250.228 125.261 250.348 125.31 250.472 125.31C250.597 125.31 250.717 125.261 250.805 125.173C250.893 125.085 250.942 124.965 250.942 124.84C250.872 107.28 250.672 89.7304 250.532 72.1704C250.392 54.6104 250.892 37.1704 250.122 19.8004C250.186 19.7382 250.231 19.6588 250.25 19.5718C250.27 19.4848 250.264 19.394 250.232 19.3104C250.857 14.6244 251.108 9.8962 250.982 5.17044C250.975 5.14567 250.96 5.12395 250.939 5.1085C250.918 5.09306 250.893 5.08471 250.867 5.08471C250.842 5.08471 250.816 5.09306 250.796 5.1085C250.775 5.12395 250.76 5.14567 250.752 5.17044C250.552 9.80044 250.202 14.4304 250.012 19.0604C249.957 19.0194 249.891 18.9951 249.822 18.9904L246.982 18.7904C247.142 14.2604 247.092 9.70044 247.062 5.17044C247.054 5.13844 247.035 5.11015 247.009 5.08997C246.983 5.06979 246.951 5.05884 246.917 5.05884C246.884 5.05884 246.852 5.06979 246.826 5.08997C246.8 5.11015 246.781 5.13844 246.772 5.17044C246.572 9.69044 246.372 14.2304 246.372 18.7504L243.722 18.5704C243.722 18.5704 243.722 18.5704 243.722 18.5004C243.957 13.8367 243.957 9.16414 243.722 4.50044C243.722 4.44209 243.699 4.38613 243.658 4.34487C243.617 4.30361 243.561 4.28044 243.502 4.28044C243.444 4.28044 243.388 4.30361 243.347 4.34487C243.306 4.38613 243.282 4.44209 243.282 4.50044C243.042 9.16402 243.042 13.8369 243.282 18.5004C242.602 18.5004 241.922 18.4104 241.282 18.3804C241.582 15.6004 241.282 12.7304 241.282 9.94043C241.332 6.99043 241.702 4.04044 241.682 1.09044C241.688 1.05734 241.688 1.02353 241.682 0.990435C249.232 1.42044 256.962 1.62044 264.522 1.35044C264.614 1.3515 264.703 1.31954 264.772 1.26044C264.222 11.3704 264.892 21.6604 264.832 31.7904C264.772 42.2304 264.542 52.6704 264.292 63.1104C264.29 63.1676 264.3 63.2245 264.32 63.2778C264.341 63.3311 264.372 63.3796 264.412 63.4204C263.672 63.5104 262.932 63.6104 262.202 63.7304C261.882 63.7804 261.912 64.1804 262.142 64.3204C260.642 84.4304 261.472 104.99 262.332 125.11C262.332 125.74 263.332 125.74 263.332 125.11C262.462 104.76 263.122 84.5104 262.962 64.1804C264.822 65.3804 270.662 64.2604 272.422 64.1804C275.632 64.0404 278.872 64.0104 282.062 63.6404C281.062 84.1404 281.692 104.95 282.252 125.46C282.269 125.57 282.323 125.669 282.407 125.741C282.491 125.813 282.597 125.853 282.707 125.853C282.818 125.853 282.924 125.813 283.008 125.741C283.091 125.669 283.146 125.57 283.162 125.46C283.062 116.92 283.082 108.37 283.102 99.8204C283.135 99.8319 283.17 99.8319 283.202 99.8204L287.072 99.5404L287.192 104.14C285.969 104.182 284.744 104.158 283.522 104.07C283.332 104.07 283.342 104.35 283.522 104.38C284.747 104.532 285.979 104.619 287.212 104.64C287.212 106.19 287.292 107.74 287.342 109.29C286.412 109.41 285.492 109.51 284.542 109.57C284.495 109.57 284.449 109.589 284.415 109.623C284.381 109.657 284.362 109.703 284.362 109.75C284.362 109.798 284.381 109.844 284.415 109.878C284.449 109.911 284.495 109.93 284.542 109.93C285.472 109.93 286.412 109.93 287.352 109.82L287.442 113.13C286.592 113.2 285.732 113.24 284.872 113.26C284.833 113.27 284.798 113.292 284.773 113.324C284.748 113.356 284.735 113.395 284.735 113.435C284.735 113.476 284.748 113.515 284.773 113.547C284.798 113.579 284.833 113.601 284.872 113.61C285.742 113.61 286.602 113.61 287.452 113.61C287.502 115.26 287.542 116.9 287.592 118.54C286.587 118.505 285.585 118.405 284.592 118.24C284.302 118.18 284.182 118.62 284.472 118.68C285.501 118.888 286.544 119.019 287.592 119.07L287.682 122.07L285.922 122.19C285.939 122.183 285.955 122.171 285.968 122.158C285.98 122.144 285.99 122.128 285.997 122.11C286.003 122.092 286.006 122.074 286.005 122.055C286.005 122.036 286 122.018 285.992 122C285.985 121.983 285.973 121.968 285.96 121.955C285.946 121.942 285.93 121.933 285.912 121.926C285.876 121.913 285.837 121.915 285.802 121.93C285.396 122.071 284.982 122.188 284.562 122.28C284.511 122.302 284.468 122.339 284.44 122.388C284.413 122.436 284.402 122.493 284.41 122.548C284.418 122.603 284.444 122.654 284.485 122.692C284.525 122.731 284.577 122.755 284.632 122.76C285.632 122.76 286.632 122.76 287.702 122.76V123.76C287.702 123.829 287.73 123.896 287.779 123.944C287.827 123.993 287.893 124.02 287.962 124.02C288.031 124.02 288.098 123.993 288.146 123.944C288.195 123.896 288.222 123.829 288.222 123.76C288.222 123.41 288.222 123.07 288.222 122.76C290.473 122.785 292.72 122.591 294.932 122.18C295.192 122.18 295.122 121.74 294.872 121.73C292.672 121.73 290.432 121.85 288.202 122.01C288.202 121.01 288.202 120.07 288.152 119.1C289.034 119.127 289.916 119.094 290.792 119V120.47C290.807 120.557 290.851 120.635 290.918 120.692C290.985 120.749 291.07 120.78 291.157 120.78C291.245 120.78 291.33 120.749 291.397 120.692C291.464 120.635 291.508 120.557 291.522 120.47V118.91C292.325 118.796 293.12 118.633 293.902 118.42C293.932 118.413 293.96 118.399 293.984 118.38C294.008 118.362 294.029 118.339 294.044 118.312C294.059 118.286 294.069 118.256 294.073 118.226C294.077 118.196 294.075 118.165 294.067 118.135C294.06 118.106 294.046 118.078 294.027 118.054C294.009 118.03 293.986 118.009 293.959 117.994C293.933 117.979 293.903 117.969 293.873 117.965C293.843 117.961 293.812 117.963 293.782 117.97C293.032 118.13 292.272 118.25 291.522 118.34C291.522 116.66 291.522 114.97 291.522 113.28C292.762 113.13 293.992 112.93 295.212 112.66C295.512 112.6 295.382 112.17 295.092 112.21C293.899 112.41 292.709 112.59 291.522 112.75C291.522 111.56 291.522 110.38 291.522 109.2C292.202 109.03 292.882 108.85 293.522 108.62C293.57 108.599 293.609 108.562 293.631 108.515C293.654 108.468 293.659 108.414 293.646 108.364C293.633 108.313 293.602 108.269 293.559 108.239C293.516 108.209 293.464 108.196 293.412 108.2C292.772 108.35 292.142 108.47 291.512 108.6C291.512 107.23 291.512 105.85 291.512 104.47C292.865 104.303 294.203 104.028 295.512 103.65C295.566 103.628 295.61 103.587 295.635 103.536C295.661 103.484 295.667 103.424 295.653 103.368C295.638 103.312 295.604 103.263 295.556 103.231C295.508 103.198 295.45 103.184 295.392 103.19C294.072 103.45 292.772 103.67 291.482 103.84C291.482 102.29 291.482 100.74 291.482 99.1804C292.292 99.0804 293.092 98.9704 293.892 98.8304C294.132 98.8304 294.072 98.4004 293.832 98.4104C293.052 98.4104 292.272 98.4804 291.482 98.5404C291.482 96.5404 291.482 94.6304 291.482 92.6704C291.962 92.5804 292.482 92.4804 292.912 92.3704C293.342 92.2604 293.102 91.8004 292.772 91.8604L291.482 92.0504C291.482 89.7704 291.482 87.4904 291.432 85.2004L292.242 85.0304C292.482 84.9704 292.442 84.5504 292.182 84.5904L291.422 84.6704C291.422 82.9204 291.422 81.1604 291.422 79.4004C291.722 79.3338 292.022 79.2538 292.322 79.1604C292.383 79.1309 292.432 79.0811 292.46 79.0195C292.488 78.9579 292.493 78.8885 292.476 78.8232C292.458 78.7579 292.418 78.7009 292.362 78.6621C292.307 78.6232 292.24 78.605 292.172 78.6104L291.412 78.7504C291.412 77.1204 291.412 75.5004 291.362 73.8704C291.672 73.8104 291.972 73.7504 292.282 73.6704C292.592 73.5904 292.472 73.2204 292.222 73.2404L291.352 73.3004C291.352 72.0404 291.352 70.7804 291.352 69.5304L291.992 69.3704C292.252 69.2904 292.212 68.8404 291.922 68.8804L291.352 68.9604L291.232 59.3504C291.702 59.2504 292.182 59.1504 292.662 59.0304C292.982 58.9404 292.832 58.4904 292.522 58.5404L291.222 58.7204C291.222 56.8804 291.172 55.0404 291.142 53.2104L292.012 53.0704C292.091 53.0507 292.16 53.0025 292.206 52.935C292.251 52.8676 292.27 52.7857 292.259 52.705C292.248 52.6244 292.208 52.5507 292.145 52.4982C292.083 52.4457 292.004 52.418 291.922 52.4204L291.132 52.4904L291.072 48.2004C291.382 48.2004 291.692 48.1204 292.002 48.0604C292.312 48.0004 292.242 47.4904 291.922 47.5204L291.062 47.6004C291.062 46.0204 291.012 44.4304 290.992 42.8504L291.672 42.7504C291.743 42.7317 291.805 42.6878 291.845 42.627C291.886 42.5662 291.903 42.4926 291.893 42.4201C291.883 42.3476 291.847 42.2812 291.792 42.2334C291.736 42.1856 291.666 42.1596 291.592 42.1604L290.982 42.2204C290.982 40.4904 290.922 38.7604 290.902 37.0404C291.382 36.9504 291.852 36.8404 292.332 36.7204C292.602 36.6504 292.552 36.1904 292.262 36.2304L290.892 36.3804C290.852 34.2404 290.816 32.0971 290.782 29.9504L291.682 29.8004C291.982 29.7404 291.922 29.2104 291.602 29.2404L290.772 29.3404L290.682 23.9404L291.682 23.7704C292.022 23.7004 291.952 23.1004 291.592 23.1404L290.662 23.2504C290.662 21.6604 290.612 20.0704 290.582 18.4804L291.262 18.4304C291.682 18.4304 291.692 17.7504 291.262 17.7704H290.572C290.572 16.3304 290.572 14.9004 290.492 13.4604H291.262C291.347 13.4604 291.429 13.4267 291.489 13.3667C291.549 13.3067 291.582 13.2253 291.582 13.1404C291.582 13.0556 291.549 12.9742 291.489 12.9142C291.429 12.8541 291.347 12.8204 291.262 12.8204H290.482C290.482 11.4904 290.432 10.1604 290.412 8.82043H291.262C291.336 8.80721 291.403 8.76841 291.451 8.71082C291.5 8.65324 291.526 8.58053 291.526 8.50543C291.526 8.43034 291.5 8.35763 291.451 8.30005C291.403 8.24246 291.336 8.20366 291.262 8.19043C289.357 8.02141 287.444 7.95798 285.532 8.00043C285.532 7.58043 285.532 7.16044 285.482 6.74044C285.474 6.70844 285.455 6.68015 285.429 6.65997C285.403 6.63979 285.371 6.62884 285.337 6.62884C285.304 6.62884 285.272 6.63979 285.246 6.65997C285.22 6.68015 285.201 6.70844 285.192 6.74044C285.192 7.17043 285.192 7.59044 285.192 8.02044C283.452 8.08044 281.712 8.21043 279.972 8.38043C279.882 7.70044 279.812 7.01044 279.722 6.38044C279.722 6.20044 279.392 6.25044 279.402 6.38044L279.522 8.43044C279.192 8.50043 279.192 9.04043 279.522 9.01044C279.702 11.9838 279.879 14.9471 280.052 17.9004H279.192C278.892 17.9004 278.902 18.3304 279.192 18.3504C279.482 18.3704 279.782 18.3504 280.082 18.4104C280.192 20.2304 280.292 22.0604 280.402 23.8804H279.852C279.803 23.8911 279.759 23.9182 279.728 23.9573C279.696 23.9965 279.679 24.0452 279.679 24.0954C279.679 24.1457 279.696 24.1944 279.728 24.2335C279.759 24.2726 279.803 24.2998 279.852 24.3104H280.422C280.532 26.1604 280.622 28.0104 280.712 29.8604C280.212 29.8604 279.712 29.8604 279.192 29.8604C278.932 29.8604 278.932 30.2504 279.192 30.2704C279.712 30.2704 280.192 30.3504 280.742 30.3704C280.842 32.5504 280.939 34.7238 281.032 36.8904H280.192C279.892 36.8904 279.902 37.3204 280.192 37.3504L281.052 37.4204C281.122 39.2504 281.172 41.0704 281.222 42.9004H279.852C279.805 42.9004 279.759 42.9194 279.725 42.9532C279.691 42.9869 279.672 43.0327 279.672 43.0804C279.672 43.1282 279.691 43.174 279.725 43.2077C279.759 43.2415 279.805 43.2604 279.852 43.2604C280.312 43.2604 280.782 43.2604 281.242 43.3104C281.242 45.0004 281.312 46.6904 281.342 48.3804C280.072 48.4604 278.802 48.5204 277.522 48.5504C277.478 48.5605 277.439 48.5853 277.411 48.6207C277.382 48.6561 277.367 48.7001 277.367 48.7454C277.367 48.7908 277.382 48.8347 277.411 48.8702C277.439 48.9056 277.478 48.9304 277.522 48.9404C278.792 48.9404 280.072 48.9404 281.352 48.9404C281.352 50.4504 281.352 51.9404 281.352 53.4804L277.832 53.8904C277.532 53.8904 277.522 54.3704 277.832 54.3604C278.992 54.3604 280.172 54.2804 281.342 54.2204C281.342 55.1704 281.342 56.1304 281.342 57.0904C281.355 57.1594 281.392 57.2217 281.446 57.2665C281.499 57.3113 281.567 57.3359 281.637 57.3359C281.708 57.3359 281.775 57.3113 281.829 57.2665C281.883 57.2217 281.92 57.1594 281.932 57.0904C281.932 56.0904 281.932 55.0904 281.932 54.1704C283.232 54.0904 284.532 53.9904 285.832 53.8604L285.952 59.2404C283.347 59.4504 280.728 59.4504 278.122 59.2404C277.842 59.2404 277.852 59.6404 278.122 59.6704C280.727 59.9754 283.353 60.0657 285.972 59.9404L286.092 65.4404L282.772 65.7604C282.772 64.9904 282.772 64.2204 282.722 63.4404C282.792 63.3859 282.842 63.3109 282.867 63.2261C282.891 63.1413 282.888 63.051 282.858 62.968C282.828 62.885 282.773 62.8136 282.7 62.7637C282.627 62.7139 282.541 62.6883 282.452 62.6904C280.312 62.6104 278.082 62.6004 275.842 62.6404C277.842 42.9004 276.642 22.1504 275.282 2.41044C281.507 3.36813 287.815 3.67312 294.102 3.32044C293.872 23.4104 295.782 43.6704 296.352 63.7704C296.946 84.1038 297.416 104.437 297.762 124.77C297.762 124.916 297.82 125.056 297.924 125.159C298.027 125.262 298.167 125.32 298.312 125.32C298.458 125.32 298.598 125.262 298.701 125.159C298.805 125.056 298.862 124.916 298.862 124.77C298.522 104.484 298.022 84.2038 297.362 63.9304C303.642 64.0304 309.872 64.2604 316.132 64.8504C316.245 64.8599 316.358 64.8318 316.452 64.7704C315.872 84.6604 317.342 104.9 318.732 124.77C318.782 125.37 319.732 125.38 319.682 124.77C318.502 104.77 318.362 84.7704 317.142 64.7704C317.14 64.7128 317.123 64.6567 317.093 64.6071C317.064 64.5575 317.022 64.5161 316.973 64.4864C316.923 64.4567 316.867 64.4397 316.81 64.4369C316.752 64.4341 316.695 64.4456 316.642 64.4704C316.663 64.3885 316.666 64.3032 316.65 64.2202C316.635 64.1372 316.602 64.0584 316.554 63.9892C316.505 63.92 316.443 63.862 316.37 63.8191C316.297 63.7762 316.216 63.7494 316.132 63.7404C313.132 63.3804 310.062 63.1204 307.002 62.9804C306.932 57.5804 307.072 52.2704 307.402 46.8904H307.492C307.582 46.8286 307.663 46.7546 307.732 46.6704C307.812 46.5904 307.732 46.4304 307.602 46.5004C307.992 46.2204 312.972 46.9704 313.802 46.9804C316.062 46.9804 318.322 46.9538 320.582 46.9004C325.196 46.7404 329.786 46.3771 334.352 45.8104C333.572 72.1204 335.602 98.8604 337.022 125.12C337.022 125.79 338.102 125.79 338.072 125.12C337.442 111.74 336.832 98.3604 336.372 84.9804C336.182 79.2904 336.092 73.6004 335.982 67.9004C343.892 69.6804 352.832 68.5704 360.772 67.4404C360.332 86.9304 361.882 106.67 362.722 126.13C362.722 126.78 363.722 126.78 363.722 126.13C362.912 106.42 363.062 86.4704 361.432 66.8204C361.43 66.7748 361.418 66.7302 361.398 66.6893C361.378 66.6483 361.35 66.6118 361.315 66.5819C361.281 66.552 361.241 66.5294 361.197 66.5154C361.154 66.5014 361.108 66.4963 361.062 66.5004C361.001 66.4406 360.927 66.3958 360.845 66.3698C360.764 66.3437 360.677 66.3371 360.592 66.3504C358.592 66.6404 356.522 66.8104 354.492 66.9204V66.8604C354.692 65.4173 354.692 63.9535 354.492 62.5104C354.492 61.0904 354.492 59.6804 354.492 58.2704C361.602 58.2704 368.742 58.1504 375.852 57.9704C375.372 69.0304 376.262 80.2604 376.662 91.3204C377.062 102.6 377.569 113.874 378.182 125.14C378.182 125.82 379.302 125.83 379.262 125.14C378.649 113.874 378.126 102.6 377.692 91.3204C377.252 80.0704 377.532 68.6904 376.532 57.4804C376.532 57.4204 376.532 57.3904 376.472 57.3504C376.464 57.2856 376.44 57.2238 376.402 57.1704C376.342 55.8504 375.972 54.5404 375.822 53.2304C375.692 52.0804 375.672 50.9104 375.462 49.7704C375.462 49.6704 375.262 49.6604 375.242 49.7704C374.928 52.1707 375.122 54.6101 375.812 56.9304C374.092 56.9304 372.362 56.8504 370.632 56.8504C371.101 52.8669 371.158 48.8456 370.802 44.8504C370.813 44.8077 370.813 44.7632 370.802 44.7204C379.422 46.6204 389.572 45.4604 398.242 44.6604C398.242 44.7804 398.242 44.9104 398.242 45.0404C399.242 71.5304 400.592 98.0404 401.072 124.5C401.089 124.615 401.146 124.719 401.233 124.794C401.321 124.87 401.432 124.911 401.547 124.911C401.663 124.911 401.774 124.87 401.861 124.794C401.949 124.719 402.006 124.615 402.022 124.5C401.862 98.0004 401.172 71.5104 398.962 45.1804C401.532 39.1804 404.402 33.2404 407.132 27.2704C407.177 27.1808 407.192 27.0796 407.175 26.981C407.159 26.8824 407.113 26.7913 407.042 26.7204C407.712 20.4004 408.122 13.9604 408.162 7.60044H408.212C408.521 7.63536 408.833 7.63536 409.142 7.60044C409.375 7.57909 409.606 7.53896 409.832 7.48044C409.442 14.3404 409.692 21.2804 409.582 28.1404C409.586 28.242 409.621 28.3401 409.681 28.4221C409.741 28.5041 409.824 28.5662 409.919 28.6006C410.015 28.635 410.119 28.6401 410.217 28.6151C410.316 28.5901 410.405 28.5362 410.472 28.4604C413.202 33.3404 416.532 37.9104 419.262 42.8204C419.294 42.883 419.339 42.9377 419.395 42.9809C419.45 43.0241 419.514 43.0547 419.582 43.0704C418.282 48.7204 419.452 55.4204 419.582 61.1704C419.752 67.8104 419.762 74.4704 420.162 81.0904C416.032 81.3904 411.942 81.8904 408.102 82.5504C408.054 82.5574 408.009 82.5813 407.976 82.6178C407.943 82.6544 407.924 82.7013 407.922 82.7504C407.829 82.7615 407.742 82.8043 407.677 82.8717C407.611 82.939 407.571 83.0268 407.562 83.1204C406.316 97.2084 406.289 111.378 407.482 125.47C407.482 126.05 408.432 126.05 408.392 125.47C407.526 111.368 407.509 97.2253 408.342 83.1204C413.112 83.2604 417.912 82.9604 422.712 82.6304C422.592 83.9104 422.472 85.1904 422.362 86.4804C420.262 86.5604 418.162 86.6838 416.062 86.8504V86.5104C416.062 86.4653 416.045 86.4221 416.013 86.3902C415.981 86.3583 415.938 86.3404 415.892 86.3404C415.847 86.3404 415.804 86.3583 415.772 86.3902C415.74 86.4221 415.722 86.4653 415.722 86.5104C415.722 86.6304 415.722 86.7604 415.722 86.8804C414.122 87.0004 412.532 87.1404 410.972 87.2804C410.972 86.6904 410.922 86.1004 410.892 85.5104C410.892 85.4733 410.878 85.4377 410.851 85.4114C410.825 85.3852 410.79 85.3704 410.752 85.3704C410.715 85.3704 410.68 85.3852 410.653 85.4114C410.627 85.4377 410.612 85.4733 410.612 85.5104C410.612 86.1104 410.612 86.7104 410.612 87.3104H410.522C410.212 87.3104 410.202 87.8104 410.522 87.8004H410.612C410.612 91.2704 410.662 94.7404 410.742 98.2104C410.732 98.2324 410.727 98.2563 410.727 98.2804C410.727 98.3046 410.732 98.3284 410.742 98.3504C410.742 99.5004 410.802 100.65 410.842 101.8H410.202C410.148 101.812 410.1 101.841 410.065 101.884C410.03 101.927 410.011 101.98 410.011 102.035C410.011 102.091 410.03 102.144 410.065 102.187C410.1 102.23 410.148 102.259 410.202 102.27H410.852C411.012 106.977 411.216 111.684 411.462 116.39C410.562 116.39 410.022 116.3 410.022 116.18C410.013 116.139 409.989 116.101 409.955 116.075C409.922 116.048 409.88 116.034 409.837 116.034C409.795 116.034 409.753 116.048 409.719 116.075C409.686 116.101 409.662 116.139 409.652 116.18V116.48C409.651 116.515 409.659 116.55 409.677 116.58C409.695 116.611 409.721 116.635 409.752 116.65C410.311 116.907 410.91 117.062 411.522 117.11C411.662 119.777 411.812 122.444 411.972 125.11C411.972 125.45 412.522 125.46 412.512 125.11C412.462 124.11 412.422 123.01 412.382 121.96C413.832 122.1 415.292 122.23 416.772 122.32L416.862 123.45C416.862 123.83 417.502 123.84 417.482 123.45C417.462 123.06 417.432 122.72 417.412 122.36C418.692 122.43 419.962 122.47 421.242 122.49C421.247 122.587 421.247 122.684 421.242 122.78C421.242 122.852 421.271 122.921 421.322 122.971C421.372 123.022 421.441 123.05 421.512 123.05C421.584 123.05 421.653 123.022 421.703 122.971C421.754 122.921 421.782 122.852 421.782 122.78C421.787 122.687 421.787 122.594 421.782 122.5C424.51 122.531 427.235 122.344 429.932 121.94C430.252 121.94 430.172 121.38 429.852 121.38C428.672 121.38 427.502 121.43 426.332 121.47C426.332 120.96 426.332 120.47 426.412 119.94C427.122 119.86 427.832 119.76 428.532 119.65V120.77C428.532 121.2 429.152 121.19 429.192 120.77C429.232 120.35 429.252 119.94 429.292 119.52L429.972 119.4C430.302 119.33 430.232 118.78 429.892 118.81H429.342C429.602 115.544 429.762 112.257 429.822 108.95H429.962C430.252 108.95 430.182 108.43 429.892 108.44H429.832C429.922 103.01 429.742 97.5604 429.332 92.1604L430.562 92.1004C430.629 92.1004 430.692 92.0741 430.739 92.0272C430.786 91.9803 430.812 91.9167 430.812 91.8504C430.812 91.7841 430.786 91.7205 430.739 91.6737C430.692 91.6268 430.629 91.6004 430.562 91.6004H429.292C429.172 90.0804 429.032 88.6004 428.882 87.0604L430.562 86.9204C430.623 86.9204 430.682 86.8962 430.725 86.8531C430.768 86.8099 430.792 86.7514 430.792 86.6904C430.792 86.6294 430.768 86.5709 430.725 86.5278C430.682 86.4847 430.623 86.4604 430.562 86.4604L428.812 86.3604C428.752 85.8104 428.702 85.2504 428.642 84.7004C428.642 84.6104 428.492 84.6004 428.492 84.7004L428.552 86.3504C427.832 86.3504 427.102 86.3004 426.372 86.3004C426.372 85.3004 426.322 84.3604 426.312 83.3904C426.312 83.3241 426.286 83.2605 426.239 83.2137C426.192 83.1668 426.129 83.1404 426.062 83.1404C425.996 83.1404 425.933 83.1668 425.886 83.2137C425.839 83.2605 425.812 83.3241 425.812 83.3904L425.752 86.3004C424.812 86.3004 423.872 86.3004 422.932 86.3004C423.002 85.0204 423.082 83.7304 423.162 82.4504C426.982 82.1904 430.802 81.9304 434.602 81.8804C432.922 96.1804 433.682 111.04 434.942 125.34C435.002 126 436.042 126.01 435.992 125.34C434.862 110.75 435.232 96.3404 435.112 81.7204C435.114 81.679 435.104 81.6378 435.083 81.6022C435.061 81.5666 435.03 81.5382 434.992 81.5204C435.005 81.4554 435.004 81.3884 434.989 81.3238C434.974 81.2593 434.945 81.1989 434.904 81.1466C434.863 81.0944 434.811 81.0516 434.752 81.0212C434.693 80.9908 434.629 80.9735 434.562 80.9704C431.862 80.7404 429.042 80.6804 426.182 80.7204C426.182 73.3004 426.112 65.8904 425.952 58.4704C433.212 58.6704 440.462 58.7104 447.712 59.0304C448.172 81.0304 449.262 103.03 449.812 125.03C449.812 125.174 449.869 125.311 449.971 125.412C450.072 125.514 450.209 125.57 450.352 125.57C450.496 125.57 450.633 125.514 450.734 125.412C450.836 125.311 450.892 125.174 450.892 125.03C450.452 105.71 450.152 86.3104 449.192 67.0304C454.185 67.3705 459.193 67.4306 464.192 67.2104C464.942 67.2104 464.962 66.0104 464.192 66.0204L459.902 66.1204C459.902 63.4104 460.342 60.5604 460.122 57.8804C469.372 58.0604 478.662 57.4904 487.912 57.3604C487.832 80.2404 489.062 103.24 489.852 126.11C489.852 126.264 489.914 126.412 490.022 126.521C490.131 126.629 490.279 126.69 490.432 126.69C490.586 126.69 490.734 126.629 490.843 126.521C490.951 126.412 491.012 126.264 491.012 126.11C490.602 108.69 490.432 91.1704 489.752 73.7204C492.112 75.0204 497.752 74.2304 500.222 74.3004C504.092 74.4204 507.962 74.5504 511.832 74.5104C511.904 74.5144 511.975 74.5021 512.041 74.4743C512.107 74.4466 512.165 74.4042 512.212 74.3504C512.282 76.1104 512.342 77.8704 512.372 79.6204C512.712 94.5671 513.046 109.514 513.372 124.46C513.391 124.597 513.458 124.723 513.562 124.814C513.666 124.905 513.799 124.955 513.937 124.955C514.076 124.955 514.209 124.905 514.313 124.814C514.417 124.723 514.484 124.597 514.502 124.46C514.182 109.514 513.849 94.5671 513.502 79.6204C513.172 65.1504 513.932 50.1304 512.332 35.7304C514.202 35.9704 521.672 35.5304 522.412 35.5404C525.753 35.5404 529.132 35.7204 532.412 35.4504C531.503 50.2704 532.732 65.4504 533.092 80.3104C533.459 95.3704 533.889 110.424 534.382 125.47C534.382 126.18 535.503 126.18 535.472 125.47C535.012 110.424 534.596 95.3704 534.222 80.3104C534.102 75.1704 534.092 69.9904 534.082 64.8004C539.592 65.1504 545.532 65.5104 551.022 64.8704C551.092 72.1904 551.562 79.5004 551.962 86.8104C551.962 86.8104 551.962 86.8704 551.962 86.9004C550.632 86.9804 549.302 87.0704 547.962 87.2004C547.899 87.2099 547.839 87.2302 547.782 87.2604C547.751 87.2542 547.718 87.2554 547.687 87.2638C547.656 87.2722 547.627 87.2876 547.603 87.3089C547.579 87.3301 547.56 87.3566 547.548 87.3864C547.536 87.4162 547.53 87.4483 547.532 87.4804C547.412 99.8904 548.612 112.42 549.392 124.8C549.392 125.36 550.302 125.36 550.272 124.8C549.692 112.57 549.492 100.15 548.062 87.9904C555.253 87.8202 562.448 88.0506 569.612 88.6804C569.712 88.692 569.813 88.6747 569.902 88.6304C569.162 94.7104 570.392 100.72 571.062 106.77C571.732 112.82 570.622 119.17 572.472 124.96C572.489 125.019 572.517 125.074 572.554 125.121C572.592 125.169 572.638 125.209 572.691 125.238C572.744 125.268 572.802 125.287 572.863 125.294C572.923 125.302 572.984 125.297 573.042 125.28C573.101 125.264 573.156 125.236 573.203 125.199C573.251 125.161 573.291 125.115 573.32 125.062C573.35 125.009 573.369 124.951 573.376 124.89C573.384 124.83 573.379 124.769 573.362 124.71C571.902 118.59 572.752 112.11 572.022 105.86C571.177 99.8959 570.71 93.8839 570.622 87.8604C570.622 87.5304 570.112 87.4304 570.022 87.7404C569.917 87.6212 569.771 87.5462 569.612 87.5304C569.193 87.5304 568.762 87.4504 568.332 87.4104C568.212 86.5104 567.912 85.6504 567.842 84.7404C567.766 83.7764 567.799 82.8068 567.942 81.8504C567.942 81.6204 567.582 81.5704 567.532 81.8004C567.033 83.6259 567.093 85.559 567.702 87.3504C566.962 87.2704 566.242 87.1904 565.502 87.1304C565.272 84.4704 565.042 81.8104 564.912 79.1304C568.412 79.8304 572.142 79.5504 575.702 79.5804C580.122 79.5804 584.552 79.7104 588.982 79.6504C589.091 79.655 589.199 79.623 589.288 79.5596C589.376 79.4962 589.441 79.405 589.472 79.3004C589.852 94.4804 590.573 109.68 591.052 124.84C591.052 125.51 592.122 125.51 592.052 124.84C591.453 103.84 591.302 82.8404 590.052 61.8404C597.552 62.6704 605.742 62.2304 613.252 61.7404C613.382 61.7829 613.524 61.7719 613.646 61.7101C613.768 61.6482 613.86 61.5404 613.902 61.4104C613.945 61.2805 613.934 61.139 613.872 61.0171C613.81 60.8952 613.702 60.8029 613.572 60.7604ZM48.5724 118.76C47.5724 118.92 46.5724 119.08 45.6324 119.22C45.6324 118.15 45.6324 117.08 45.6324 116.02C46.6324 115.91 47.6324 115.78 48.5724 115.64C48.4239 116.681 48.4171 117.738 48.5524 118.78L48.5724 118.76ZM48.5724 114.67C48.5724 114.83 48.5724 114.98 48.5724 115.13L45.5724 115.48C45.5724 113.89 45.5724 112.29 45.5724 110.7C46.5724 110.54 47.6324 110.35 48.6524 110.14C48.6924 111.67 48.6424 113.18 48.6024 114.69L48.5724 114.67ZM48.7224 109.55C47.7224 109.75 46.6624 109.95 45.6324 110.13C45.6324 109.13 45.6324 108.13 45.6324 107.07C46.6324 106.96 47.7224 106.82 48.7624 106.64C48.8024 107.63 48.7724 108.6 48.7524 109.57L48.7224 109.55ZM48.8924 103.22C48.8924 104.12 48.8424 105.03 48.8224 105.93C47.8224 106.07 46.7324 106.21 45.6924 106.33C45.6924 105.05 45.6924 103.77 45.7624 102.49L48.9224 102.04L48.8924 103.22ZM48.8924 101.62L45.7224 102.02L45.7824 98.6904C46.8524 98.5704 47.9224 98.4204 48.9824 98.2604L48.8924 101.62ZM49.0024 97.6804L45.8024 98.0604L45.9624 93.3604L49.2024 93.1004C49.1624 94.6304 49.1224 96.1704 49.0824 97.7004L49.0024 97.6804ZM49.1524 92.3404C48.0724 92.4104 46.9924 92.4804 45.9124 92.5704C45.9124 91.3804 45.9124 90.1804 45.9824 88.9904L49.2624 88.7104C49.3024 89.9404 49.2624 91.1504 49.2324 92.3604L49.1524 92.3404ZM49.2924 87.9104L45.9924 88.2004C45.9924 87.2004 45.9924 86.2004 45.9924 85.2004C47.1124 85.2004 48.2224 85.1204 49.3424 85.0604C49.4324 86.0504 49.4024 87.0004 49.3724 87.9304L49.2924 87.9104ZM49.4224 84.2404C48.3024 84.2404 47.1724 84.3104 46.0524 84.3604V81.5704C47.2024 81.5704 48.3524 81.5104 49.5124 81.4904C49.5824 82.4204 49.5324 83.3404 49.5024 84.2604L49.4224 84.2404ZM50.1824 87.8304C50.1824 86.9004 50.2424 85.9704 50.2824 85.0404C51.1524 85.0404 52.0224 84.9204 52.8924 84.8404C52.8924 85.7704 52.8924 86.6904 52.8924 87.6104L50.1824 87.8304ZM52.9624 84.1904C52.0924 84.1904 51.2324 84.1904 50.3724 84.1904C50.3724 83.2804 50.3724 82.3704 50.4524 81.4604L53.0424 81.4004C53.0125 82.3504 52.9624 83.2704 52.9624 84.1904ZM40.9624 78.2904C45.1266 78.1658 49.2818 77.832 53.4124 77.2904C53.2524 78.3804 53.1424 79.4904 53.0624 80.6104C52.1924 80.6104 51.3224 80.6104 50.4424 80.6104L50.5024 78.4704C50.5024 78.3643 50.4603 78.2626 50.3853 78.1876C50.3103 78.1126 50.2085 78.0704 50.1024 78.0704C49.9964 78.0704 49.8946 78.1126 49.8196 78.1876C49.7446 78.2626 49.7024 78.3643 49.7024 78.4704C49.7024 79.1904 49.6424 79.9004 49.6024 80.6204C48.4424 80.6204 47.2824 80.6204 46.1224 80.7004C46.1224 80.1804 46.1224 79.7004 46.1224 79.1504C46.1224 78.6004 45.5624 78.7704 45.5324 79.1504C45.5024 79.5304 45.4424 80.1504 45.3924 80.7304C43.9124 80.8004 42.3924 80.8904 40.9424 81.0104C40.9624 80.0804 41.0124 79.1904 41.0124 78.2904H40.9624ZM40.9624 81.7504C42.4224 81.6904 43.8824 81.6504 45.3324 81.6104C45.2524 82.5504 45.1624 83.4804 45.1024 84.4204L40.9524 84.6204C40.9624 83.6604 40.9624 82.7104 40.9624 81.7504ZM40.9624 85.3504C42.3324 85.3504 43.6924 85.3504 45.0624 85.2904C44.9924 86.2904 44.9324 87.2904 44.8824 88.2904L40.9524 88.6904C40.9624 87.6004 40.9624 86.4804 40.9624 85.3504ZM40.9624 89.3504L44.8524 89.0604C44.7924 90.2604 44.7524 91.4504 44.7124 92.6504L40.9624 93.0004V89.3504ZM40.9624 93.6604L44.7224 93.4104C44.6824 95.0038 44.6524 96.5938 44.6324 98.1804L40.9224 98.6004C40.9624 97.0004 40.9624 95.3404 40.9624 93.7004V93.6604ZM40.9624 99.1304C42.2024 99.0404 43.4424 98.9304 44.6724 98.8004C44.6724 99.9304 44.6724 101.05 44.6724 102.17L40.9324 102.7C40.8624 101.55 40.8824 100.36 40.8924 99.1704L40.9624 99.1304ZM40.9624 103.13C42.2158 102.977 43.4658 102.817 44.7124 102.65C44.7124 103.92 44.7124 105.19 44.7124 106.45C43.4424 106.59 42.1624 106.71 40.8724 106.78L40.9624 103.13ZM40.8924 107.36C42.1824 107.36 43.4724 107.27 44.7624 107.17C44.7624 108.17 44.7624 109.25 44.8324 110.29C43.5024 110.51 42.1724 110.73 40.8324 110.91C40.7424 109.74 40.7524 108.55 40.7724 107.37L40.8924 107.36ZM40.8324 111.36C42.1724 111.22 43.5124 111.05 44.8324 110.85C44.8824 112.43 44.9324 114.01 44.9924 115.58C43.5724 115.73 42.1524 115.88 40.7224 116.01C40.6424 114.46 40.6824 112.91 40.7124 111.36H40.8324ZM40.7224 116.46C42.1624 116.38 43.5924 116.25 45.0224 116.11C45.0224 117.18 45.1124 118.25 45.1624 119.31C43.6624 119.51 42.1624 119.69 40.6424 119.82C40.5524 118.7 40.5824 117.58 40.6024 116.46H40.7224ZM40.6324 120.28C42.1524 120.28 43.6824 120.13 45.1924 119.95C45.1924 120.78 45.2624 121.61 45.3124 122.44C43.7324 122.5 42.1624 122.56 40.5824 122.58C40.4824 121.81 40.5024 121.05 40.5124 120.28H40.6324ZM37.3624 122.57C37.3024 120.57 37.2124 118.57 37.1124 116.64L40.1124 116.5C40.1124 117.61 40.1124 118.73 40.1124 119.85C39.4124 119.9 38.7124 119.96 38.0124 119.99C37.9756 120 37.9429 120.021 37.9195 120.051C37.8961 120.081 37.8834 120.117 37.8834 120.155C37.8834 120.193 37.8961 120.23 37.9195 120.26C37.9429 120.29 37.9756 120.311 38.0124 120.32H40.1124C40.1124 121.08 40.1124 121.84 40.1124 122.6C39.0924 122.59 38.1724 122.59 37.2424 122.57H37.3624ZM40.1324 102.86L37.6424 103.22C37.4524 103.22 37.4924 103.57 37.6424 103.55L40.0824 103.25C40.0824 104.44 40.0824 105.63 40.0824 106.82C39.1724 106.82 38.2524 106.88 37.3324 106.88C37.2784 106.892 37.2299 106.921 37.195 106.964C37.1602 107.007 37.1412 107.06 37.1412 107.115C37.1412 107.171 37.1602 107.224 37.195 107.267C37.2299 107.31 37.2784 107.339 37.3324 107.35C38.2424 107.35 39.1624 107.35 40.0824 107.35C40.0824 108.56 40.0824 109.77 40.0824 110.98C39.1724 111.09 38.2624 111.21 37.3424 111.3C37.1424 111.3 37.1424 111.63 37.3424 111.62C38.2624 111.56 39.1724 111.47 40.0824 111.39C40.0824 112.94 40.0824 114.48 40.0824 116.03C39.0691 116.124 38.0691 116.204 37.0824 116.27L36.7524 109.51L36.3624 101.58C36.3624 101.12 36.3624 100.29 36.3624 99.4504C37.6124 99.3804 38.8524 99.3004 40.1024 99.2104C40.0224 100.45 40.0124 101.65 40.0124 102.86H40.1324ZM37.2124 82.0004L40.2124 81.8404C40.2124 82.8404 40.2124 83.7504 40.2124 84.7104L37.1424 84.8504C37.1724 83.8504 37.2024 82.9004 37.2124 82.0004ZM37.1124 85.4104H40.1924L40.1324 88.8804L36.8924 89.2104C36.9624 87.8904 37.0524 86.6204 37.1124 85.3604V85.4104ZM36.8624 89.7304L40.1224 89.5004C40.1224 90.7104 40.1224 91.9204 40.1224 93.1404C39.0024 93.2304 37.8224 93.3804 36.6224 93.5004C36.6824 92.2004 36.7724 90.9404 36.8624 89.6804V89.7304ZM33.3424 89.9904L36.1324 89.7904C36.1324 91.0404 36.0824 92.3004 36.0624 93.5504C35.1424 93.6304 34.2224 93.6904 33.3124 93.6804C33.3458 92.4204 33.3558 91.1738 33.3424 89.9404V89.9904ZM29.6324 93.5304C30.6836 93.9058 31.7868 94.1149 32.9024 94.1504C32.9024 94.8204 32.9024 95.4904 32.9724 96.1504C32.9724 96.1902 32.9882 96.2284 33.0164 96.2565C33.0445 96.2846 33.0827 96.3004 33.1224 96.3004C33.1622 96.3004 33.2004 96.2846 33.2285 96.2565C33.2566 96.2284 33.2724 96.1902 33.2724 96.1504C33.2724 95.4804 33.2724 94.8204 33.2724 94.1504C34.1824 94.1504 35.0924 94.1504 36.0224 94.0604C36.0224 94.5304 36.0224 95.0604 36.0224 95.4804C36.0224 95.7504 36.4124 95.7404 36.4324 95.4804C36.4324 95.0004 36.5024 94.4804 36.5324 94.0204L37.7224 93.9404L40.0724 93.7904C40.0724 95.4504 40.0724 97.1104 40.0724 98.7904C38.8324 98.9204 37.5824 99.0304 36.3324 99.1204C36.4006 98.4387 36.2722 97.7516 35.9624 97.1404C35.0524 95.9204 32.6224 96.5804 31.3624 96.6504L29.4224 96.7804C29.6718 95.6992 29.7428 94.5845 29.6324 93.4804V93.5304ZM282.962 70.0004C284.062 70.1004 285.182 70.1504 286.312 70.1404C286.312 71.2404 286.362 72.3404 286.392 73.4404C285.686 73.4086 284.981 73.3385 284.282 73.2304C283.982 73.2304 283.852 73.6304 284.152 73.6904C284.892 73.8204 285.642 73.9304 286.402 74.0004C286.452 75.7404 286.492 77.4804 286.532 79.2204C285.437 79.2214 284.344 79.1344 283.262 78.9604C283.227 78.956 283.192 78.9601 283.159 78.9723C283.126 78.9845 283.096 79.0044 283.072 79.0304C283.066 76.0171 283.029 73.0071 282.962 70.0004ZM283.072 79.3104C283.072 79.3104 283.072 79.3104 283.152 79.3704C284.272 79.6132 285.409 79.767 286.552 79.8304C286.552 81.6104 286.642 83.3804 286.692 85.1604C285.512 85.2504 284.322 85.3104 283.122 85.3004C283.132 83.2904 283.112 81.3004 283.092 79.3004L283.072 79.3104ZM286.702 85.7004C286.776 88.0204 286.839 90.3538 286.892 92.7004C285.642 92.8304 284.392 92.9404 283.122 92.9904V85.6204C284.322 85.6904 285.532 85.7204 286.722 85.6904L286.702 85.7004ZM283.212 99.5204H283.112C283.112 97.4271 283.112 95.3304 283.112 93.2304C284.362 93.2304 285.632 93.2304 286.892 93.1504C286.952 95.0904 287.002 97.0304 287.052 98.9704L283.212 99.5204ZM290.812 118.43C289.935 118.515 289.054 118.555 288.172 118.55L288.082 113.55C288.962 113.55 289.842 113.43 290.712 113.34C290.762 115 290.802 116.73 290.832 118.42L290.812 118.43ZM290.632 109.43C290.632 110.57 290.682 111.72 290.702 112.86C289.832 112.97 288.952 113.07 288.072 113.15L288.012 109.82C288.962 109.69 289.792 109.56 290.652 109.39L290.632 109.43ZM290.552 104.59C290.552 106 290.602 107.41 290.622 108.83C289.752 108.99 288.882 109.14 288.002 109.27L287.912 104.72C288.812 104.68 289.692 104.63 290.572 104.55L290.552 104.59ZM290.552 103.98C289.672 104.07 288.802 104.15 287.912 104.19C287.912 102.65 287.912 101.1 287.832 99.5604C288.712 99.4904 289.602 99.4204 290.482 99.3304C290.512 100.84 290.532 102.39 290.562 103.94L290.552 103.98ZM290.472 98.6504C289.582 98.7404 288.702 98.8404 287.822 98.9504C287.822 97.0304 287.752 95.1104 287.712 93.1904C288.599 93.1171 289.489 93.0171 290.382 92.8904C290.412 94.7704 290.452 96.6904 290.482 98.6104L290.472 98.6504ZM290.372 92.2504C289.482 92.3804 288.592 92.5004 287.702 92.6004C287.652 90.3004 287.612 88.0004 287.562 85.7004C288.476 85.6594 289.387 85.5726 290.292 85.4404C290.332 87.6704 290.352 89.9404 290.382 92.2104L290.372 92.2504ZM290.282 84.8404L287.552 85.1304C287.552 83.3804 287.492 81.6304 287.452 79.8804C288.38 79.8809 289.306 79.8107 290.222 79.6704L290.282 84.8404ZM290.212 78.9604C289.295 79.1044 288.37 79.1945 287.442 79.2304C287.442 77.5304 287.372 75.8204 287.332 74.1104C288.278 74.1855 289.227 74.1855 290.172 74.1104C290.202 75.6604 290.212 77.2904 290.222 78.9204L290.212 78.9604ZM290.212 73.4004C289.212 73.4604 288.312 73.5004 287.362 73.5004C287.362 72.3704 287.312 71.2504 287.292 70.1304C288.258 70.0809 289.22 69.9707 290.172 69.8004C290.152 71.0004 290.162 72.1604 290.182 73.3604L290.212 73.4004ZM290.212 69.1304C289.212 69.2504 288.282 69.3604 287.312 69.4404C287.312 68.2804 287.312 67.1204 287.242 65.9604C288.242 65.9604 289.242 65.8504 290.182 65.7604L290.212 69.1304ZM290.212 65.1904C289.212 65.2504 288.212 65.3204 287.262 65.4104C287.262 63.5804 287.172 61.7604 287.132 59.9404C288.132 59.8604 289.132 59.7404 290.132 59.5704C290.082 61.4104 290.092 63.2804 290.112 65.1504L290.212 65.1904ZM290.212 58.8904C289.212 59.0204 288.212 59.1404 287.152 59.2304L287.032 53.8304C288.082 53.7104 289.132 53.5704 290.172 53.4104C290.042 55.2004 290.052 57.0004 290.072 58.8504L290.212 58.8904ZM290.212 52.6204C289.152 52.7104 288.102 52.8004 287.052 52.9204C287.052 51.5204 286.982 50.1204 286.942 48.7204C288.032 48.6304 289.112 48.5104 290.192 48.3704C290.012 49.7404 290.022 51.1604 290.032 52.5804L290.212 52.6204ZM290.212 47.7204L286.952 48.0304L286.832 43.3404C287.962 43.2704 289.082 43.1504 290.202 43.0104C289.962 44.5404 289.962 46.1104 289.962 47.6804L290.212 47.7204ZM290.212 42.3304C289.082 42.4304 287.962 42.5504 286.832 42.6304C286.832 40.9404 286.742 39.2404 286.702 37.5504C287.871 37.4976 289.036 37.3841 290.192 37.2104C289.962 38.8704 289.962 40.5804 289.962 42.2904L290.212 42.3304ZM290.212 36.5004C289.042 36.6304 287.872 36.7504 286.702 36.8304C286.642 34.7004 286.572 32.5704 286.512 30.4404C287.742 30.3804 288.972 30.2704 290.192 30.1004C289.962 32.1904 289.962 34.3304 289.962 36.4604L290.212 36.5004ZM289.962 17.7904L285.962 17.9104L285.812 13.5104C287.212 13.5104 288.602 13.5104 289.992 13.5104C289.902 14.9204 289.962 16.3504 289.962 17.7904ZM285.872 48.0604C284.642 48.1704 283.402 48.2804 282.162 48.3604C282.162 46.7004 282.162 45.0404 282.162 43.3604C283.372 43.3604 284.582 43.3604 285.782 43.3604L285.872 48.0604ZM289.942 8.78043C289.942 10.1004 289.942 11.4204 289.942 12.7804C288.542 12.7304 287.142 12.7304 285.732 12.7804C285.682 11.4804 285.642 10.1804 285.592 8.87043C286.962 8.78043 288.442 8.78043 289.892 8.78043H289.942ZM280.062 9.00043C281.782 8.88043 283.492 8.82043 285.212 8.79043C285.212 10.1004 285.212 11.4004 285.262 12.7004C283.802 12.7004 282.352 12.7904 280.902 12.8104C280.828 12.8104 280.757 12.8399 280.704 12.8924C280.652 12.945 280.622 13.0162 280.622 13.0904C280.622 13.1647 280.652 13.2359 280.704 13.2884C280.757 13.3409 280.828 13.3704 280.902 13.3704C282.352 13.3704 283.812 13.4404 285.272 13.4804C285.272 14.9504 285.272 16.4304 285.322 17.9004C283.892 17.9004 282.462 17.9004 281.022 17.9004C280.762 15.0004 280.442 12.0004 280.062 9.00043ZM281.062 18.4504C282.482 18.5304 283.902 18.5804 285.312 18.5904C285.312 20.3004 285.362 22.0104 285.382 23.7204C284.082 23.8104 282.782 23.8704 281.462 23.8704C281.352 22.0804 281.232 20.2804 281.072 18.4704L281.062 18.4504ZM281.502 24.3804C282.792 24.4304 284.092 24.4304 285.392 24.3804L285.482 29.7704C284.252 29.8504 283.022 29.9004 281.782 29.9004C281.712 28.0804 281.622 26.2404 281.512 24.4004L281.502 24.3804ZM281.812 30.3804C283.032 30.3804 284.262 30.3804 285.492 30.3804C285.492 32.5204 285.562 34.6504 285.592 36.7904C284.412 36.8604 283.222 36.9104 282.012 36.8804C281.962 34.7604 281.962 32.6004 281.822 30.4304L281.812 30.3804ZM282.032 37.3804C283.222 37.4504 284.412 37.4804 285.612 37.4604C285.612 39.1604 285.672 40.8604 285.712 42.5604C284.512 42.6504 283.312 42.7304 282.102 42.7804C282.102 41.0604 282.082 39.2604 282.042 37.4604L282.032 37.3804ZM282.032 53.3804C282.032 51.8804 282.032 50.3804 282.032 48.8904C283.272 48.8904 284.522 48.7904 285.762 48.7004L285.962 53.0004L282.032 53.3804ZM286.032 23.6504C285.972 21.9604 285.922 20.2604 285.862 18.5704C287.196 18.5704 288.529 18.5304 289.862 18.4504C289.862 20.0504 289.862 21.6604 289.862 23.2704C288.632 23.4704 287.342 23.6004 286.062 23.7004L286.032 23.6504ZM286.032 24.3304C287.322 24.2704 288.602 24.1504 289.872 23.9804C289.872 25.7704 289.872 27.5604 289.872 29.3504C288.632 29.4904 287.402 29.6104 286.172 29.7004C286.192 28.0004 286.132 26.1704 286.082 24.3804L286.032 24.3304ZM286.222 66.0004L286.312 69.5004C285.212 69.5704 284.102 69.6204 282.972 69.6004C282.972 68.4504 282.922 67.3004 282.902 66.1504L286.222 66.0004ZM426.492 119.12C426.542 118.21 426.582 117.3 426.622 116.38C427.302 116.31 427.982 116.23 428.622 116.13C428.622 117.07 428.572 118.01 428.552 118.95L426.492 119.12ZM428.672 115.64L426.672 115.75C426.672 114.81 426.732 113.87 426.752 112.93C427.402 112.85 428.052 112.78 428.682 112.69C428.732 112.69 428.752 112.69 428.782 112.69C428.722 113.61 428.702 114.61 428.672 115.61V115.64ZM428.842 100.72L426.712 100.84C426.712 99.8404 426.712 98.8404 426.662 97.9004C427.382 97.8104 428.102 97.7304 428.822 97.6204C428.832 98.6304 428.832 99.6604 428.842 100.69V100.72ZM428.842 101.15C428.842 102.15 428.842 103.22 428.842 104.25C428.152 104.34 427.462 104.41 426.762 104.48V101.37L428.842 101.15ZM428.842 97.1504C428.122 97.2104 427.402 97.2504 426.682 97.3004C426.682 96.5804 426.682 95.8604 426.632 95.1404L428.812 94.8304C428.802 95.5904 428.812 96.3604 428.812 97.1304L428.842 97.1504ZM428.782 112.15C428.732 112.107 428.669 112.083 428.602 112.08C427.992 112.08 427.372 112.08 426.762 112.08C426.762 111.19 426.762 110.3 426.762 109.41C427.452 109.32 428.122 109.21 428.762 109.1C428.782 110.16 428.762 111.17 428.752 112.17L428.782 112.15ZM426.782 108.66C426.782 107.45 426.782 106.24 426.782 105.03C427.472 104.94 428.162 104.83 428.852 104.72C428.852 105.99 428.852 107.25 428.852 108.52C428.122 108.58 427.442 108.62 426.762 108.68L426.782 108.66ZM428.782 94.4104L426.582 94.6104C426.582 93.8504 426.582 93.0804 426.532 92.3204L428.732 92.2104C428.752 93.0004 428.772 93.6904 428.782 94.4304V94.4104ZM428.592 87.1104C428.642 88.6204 428.682 90.1104 428.722 91.6304H426.512C426.512 90.1604 426.442 88.6904 426.402 87.2204C427.132 87.2304 427.862 87.1904 428.592 87.1304V87.1104ZM422.672 92.4704L425.672 92.3604C425.672 93.1404 425.672 93.9204 425.622 94.7104C424.622 94.8104 423.622 94.9204 422.622 95.0404L422.672 92.4704ZM425.422 109.63C425.422 110.47 425.422 111.31 425.422 112.15C424.312 112.15 423.192 112.25 422.072 112.32L422.132 109.99C423.252 109.9 424.342 109.78 425.422 109.65V109.63ZM422.182 109.15L422.272 105.42C423.322 105.42 424.372 105.29 425.412 105.18C425.412 106.38 425.412 107.58 425.412 108.78C424.332 108.91 423.262 109 422.182 109.17V109.15ZM425.472 113.03C425.472 113.94 425.522 114.85 425.552 115.76L422.012 115.96C422.012 115.09 422.012 114.21 422.082 113.34C423.212 113.27 424.352 113.17 425.472 113.05V113.03ZM425.572 116.43C425.572 117.34 425.652 118.24 425.702 119.13C424.442 119.23 423.182 119.31 421.912 119.38C421.912 118.47 421.972 117.56 421.992 116.65C423.192 116.62 424.382 116.55 425.572 116.45V116.43ZM422.572 95.6104L425.572 95.2404C425.572 95.9404 425.572 96.6404 425.572 97.3404L422.572 97.5504V95.6104ZM422.492 98.2504C423.492 98.1804 424.492 98.0904 425.492 97.9904C425.492 98.9404 425.492 99.9004 425.442 100.86C424.442 100.92 423.442 100.97 422.382 101.04C422.412 100.13 422.442 99.2004 422.472 98.2704L422.492 98.2504ZM425.492 101.46V104.56C424.492 104.64 423.412 104.72 422.372 104.77C422.372 103.77 422.422 102.77 422.452 101.71C423.392 101.66 424.422 101.57 425.442 101.48L425.492 101.46ZM422.392 87.4604C422.262 88.9104 422.142 90.3704 422.032 91.8304C420.102 91.9004 418.182 91.9804 416.252 92.0704C416.252 90.5804 416.202 89.0704 416.192 87.6004C418.202 87.5404 420.272 87.5004 422.342 87.4404L422.392 87.4604ZM411.092 87.7404C412.652 87.6804 414.222 87.6404 415.802 87.6104C415.752 89.1104 415.722 90.6104 415.692 92.1004L411.302 92.3304L411.092 87.7404ZM411.322 92.7404H415.692C415.692 93.8304 415.692 94.9304 415.692 96.0204L411.592 96.5704C411.56 96.5814 411.532 96.6024 411.512 96.6304C411.382 95.2604 411.322 94.0004 411.272 92.7004L411.322 92.7404ZM411.492 96.7404C411.499 96.7633 411.514 96.783 411.534 96.7958C411.555 96.8087 411.579 96.8139 411.602 96.8104L415.662 96.4104C415.662 96.9304 415.662 97.4104 415.662 97.9504C414.292 98.0104 412.912 98.0604 411.532 98.1004C411.472 97.6104 411.462 97.1504 411.442 96.7004L411.492 96.7404ZM411.552 98.4304C412.922 98.5004 414.302 98.5304 415.672 98.5404C415.672 99.5404 415.672 100.54 415.672 101.54L411.672 101.77C411.592 100.6 411.552 99.4904 411.502 98.3904L411.552 98.4304ZM411.702 102.25L415.702 102.12L415.762 104.89C414.442 104.89 413.112 104.77 411.762 104.66L411.702 102.25ZM411.812 105.06C413.132 105.23 414.472 105.35 415.812 105.44C415.812 106.97 415.922 108.51 415.992 110.04L412.992 110.44C412.834 110.349 412.65 110.313 412.468 110.338C412.287 110.364 412.12 110.449 411.992 110.58C411.892 108.69 411.822 106.86 411.762 105L411.812 105.06ZM412.022 110.98L416.022 110.61C416.022 111.38 416.102 112.15 416.152 112.91C414.952 113.06 413.762 113.21 412.592 113.39C412.382 113.39 412.432 113.76 412.642 113.76C413.812 113.76 415.002 113.76 416.192 113.76C416.242 114.62 416.302 115.48 416.362 116.34C414.782 116.4 413.362 116.44 412.232 116.44C412.112 114.55 412.042 112.75 411.962 110.94L412.022 110.98ZM412.432 121.53C412.372 120.07 412.312 118.62 412.262 117.16C413.645 117.192 415.028 117.129 416.402 116.97C416.462 117.86 416.532 118.75 416.602 119.63C415.502 119.63 414.402 119.63 413.292 119.63C413.072 119.63 413.082 119.93 413.292 119.96C414.402 120.09 415.522 120.18 416.662 120.25L416.782 121.64C415.282 121.62 413.842 121.58 412.382 121.49L412.432 121.53ZM416.592 105.53C418.152 105.61 419.712 105.6 421.272 105.53C421.272 106.81 421.202 108.08 421.172 109.36L416.792 109.95C416.682 108.41 416.602 106.92 416.542 105.44L416.592 105.53ZM416.922 112.87C416.922 112.11 416.862 111.35 416.822 110.59L421.162 110.2C421.162 110.97 421.162 111.73 421.162 112.5C419.672 112.51 418.272 112.63 416.872 112.78L416.922 112.87ZM416.922 113.75C418.312 113.75 419.702 113.62 421.092 113.52C421.092 114.39 421.092 115.26 421.092 116.12L417.092 116.32L416.922 113.75ZM417.112 116.96C417.502 116.96 417.882 116.9 418.212 116.89C419.212 116.89 420.142 116.89 421.112 116.8C421.112 117.71 421.112 118.62 421.172 119.53C419.882 119.59 418.582 119.64 417.272 119.67C417.212 118.68 417.152 117.77 417.102 116.87L417.112 116.96ZM417.402 121.73C417.402 121.28 417.342 120.83 417.322 120.38C418.612 120.44 419.902 120.44 421.202 120.38C421.202 120.81 421.202 121.24 421.202 121.66C419.962 121.63 418.672 121.65 417.392 121.64L417.402 121.73ZM421.262 104.92C419.682 104.92 418.112 105 416.532 104.92C416.532 103.97 416.482 103.03 416.452 102.09C418.092 102.02 419.732 101.94 421.372 101.83C421.312 102.8 421.282 103.82 421.252 104.83L421.262 104.92ZM421.412 101.21L416.412 101.53L416.322 98.5904C418.062 98.5904 419.802 98.5304 421.542 98.4104C421.502 99.2604 421.442 100.19 421.402 101.12L421.412 101.21ZM421.602 97.7004C419.842 97.8004 418.082 97.9004 416.322 97.9704C416.322 97.4504 416.322 96.9704 416.322 96.4004C418.132 96.2104 419.952 96.0204 421.762 95.8104L421.602 97.7004ZM421.762 95.2504C419.932 95.4704 418.092 95.7004 416.262 95.9404C416.262 94.8704 416.262 93.8004 416.262 92.7304C418.172 92.7304 420.082 92.6504 421.982 92.6004L421.762 95.2504ZM425.832 121.57L421.832 121.68C421.832 121.25 421.832 120.81 421.832 120.38C423.122 120.38 424.412 120.25 425.692 120.12C425.772 120.51 425.792 121 425.822 121.48L425.832 121.57ZM425.752 87.3904C425.752 88.8604 425.682 90.3204 425.652 91.8004C424.652 91.8004 423.652 91.8004 422.712 91.8804C422.762 90.4204 422.832 88.9704 422.902 87.5104C423.852 87.3904 424.792 87.3504 425.742 87.3004L425.752 87.3904Z" fill="#1C9384"/>
</svg>
