<svg width="600" height="117" viewBox="0 0 600 117" fill="none" xmlns="http://www.w3.org/2000/svg">
<path d="M612.572 60.7604C605.032 60.4704 596.812 60.2304 589.302 61.2604C589.261 61.1717 589.191 61.0997 589.103 61.0562C589.016 61.0128 588.916 61.0006 588.82 61.0215C588.725 61.0425 588.639 61.0955 588.578 61.1716C588.516 61.2478 588.483 61.3426 588.482 61.4404C588.482 67.2404 588.582 73.0504 588.722 78.8504C588.686 78.7519 588.621 78.6667 588.535 78.606C588.449 78.5454 588.347 78.512 588.242 78.5104C583.812 78.3704 579.382 78.3704 574.962 78.3304C571.382 78.3304 567.672 77.9504 564.142 78.5904V78.4404C564.142 77.7504 563.022 77.7404 563.052 78.4404C563.156 81.3115 563.461 84.1717 563.962 87.0004C560.057 86.7005 556.137 86.6304 552.222 86.7904C551.872 79.2304 551.592 71.6604 550.872 64.1204C550.868 64.0415 550.835 63.9668 550.78 63.9098C550.726 63.8529 550.652 63.8176 550.573 63.8104C550.495 63.8031 550.416 63.8243 550.351 63.8702C550.287 63.9161 550.241 63.9836 550.222 64.0604C544.732 63.4204 538.792 63.7804 533.272 64.1304C533.272 54.4304 533.172 44.6904 532.272 35.1304C532.273 35.0595 532.246 34.9912 532.198 34.9392C532.149 34.8872 532.083 34.8555 532.012 34.8504C531.985 34.7607 531.929 34.6822 531.853 34.6264C531.778 34.5706 531.686 34.5405 531.592 34.5404C527.752 34.2104 523.842 34.4104 519.992 34.4104C517.312 34.4104 513.992 33.9404 511.302 34.6704C511.272 34.6048 511.22 34.5515 511.155 34.5192C511.09 34.4869 511.017 34.4776 510.946 34.4926C510.875 34.5077 510.811 34.5464 510.765 34.6023C510.719 34.6582 510.694 34.728 510.692 34.8004C510.697 34.8236 510.697 34.8473 510.692 34.8704C510.642 34.8932 510.6 34.9297 510.57 34.9758C510.54 35.0218 510.523 35.0754 510.522 35.1304C510.522 35.4304 510.522 35.5004 510.652 35.6204C509.822 48.1104 510.782 60.9904 511.272 73.6204C511.228 73.572 511.174 73.5329 511.113 73.5054C511.053 73.4779 510.989 73.4627 510.922 73.4604C503.592 73.1104 496.162 72.9504 488.812 73.0904C488.602 67.6604 488.342 62.2304 487.992 56.8204C487.991 56.7518 487.976 56.6841 487.947 56.622C487.917 56.5599 487.875 56.5048 487.822 56.4604C487.78 56.3474 487.703 56.2508 487.603 56.1843C487.502 56.1178 487.383 56.0849 487.262 56.0904C477.722 56.2104 468.072 56.1504 458.582 57.2104C458.526 57.2153 458.471 57.2336 458.423 57.2638C458.375 57.2939 458.334 57.3351 458.305 57.3839C458.276 57.4327 458.258 57.4877 458.254 57.5445C458.25 57.6012 458.26 57.6581 458.282 57.7104C457.662 60.3404 458.012 63.4704 458.282 66.1404C458.286 66.1637 458.286 66.1872 458.282 66.2104L448.282 66.4704C448.152 64.0304 448.032 61.5904 447.882 59.1604H447.962C448.752 59.1604 448.752 57.9704 447.962 57.9304C440.262 57.5904 432.542 57.3404 424.842 57.7204C424.74 57.6434 424.616 57.6017 424.487 57.6017C424.359 57.6017 424.235 57.6434 424.132 57.7204H423.962C423.859 57.7204 423.76 57.7615 423.687 57.8347C423.614 57.9078 423.572 58.007 423.572 58.1104C423.572 58.2139 423.614 58.3131 423.687 58.3862C423.76 58.4593 423.859 58.5004 423.962 58.5004C424.052 65.9204 424.192 73.3504 424.472 80.7704C423.052 80.7704 421.632 80.8504 420.212 80.9404C420.212 74.3304 419.922 67.7004 419.742 61.0904C419.592 55.3204 420.422 48.5704 418.822 42.9904C418.908 42.9784 418.989 42.9464 419.06 42.8971C419.131 42.8478 419.189 42.7825 419.23 42.7066C419.27 42.6307 419.293 42.5462 419.295 42.4601C419.297 42.3739 419.279 42.2884 419.242 42.2104C416.632 37.2104 413.682 31.7204 409.752 27.5704C409.752 27.5704 409.752 27.5704 409.692 27.5704C410.042 20.7167 409.992 13.8484 409.542 7.00044C409.585 6.91974 409.601 6.82726 409.586 6.73702C409.572 6.64679 409.528 6.56373 409.462 6.50044C409.457 6.44324 409.434 6.38917 409.396 6.34558C409.359 6.302 409.309 6.271 409.253 6.2568C409.197 6.2426 409.139 6.24589 409.085 6.26622C409.031 6.28655 408.985 6.32294 408.952 6.37044C408.613 6.4294 408.279 6.51295 407.952 6.62044C407.678 6.67182 407.401 6.70854 407.122 6.73044C406.882 6.73044 406.702 6.85044 406.472 6.88044C406.242 6.91044 406.242 7.10044 406.302 7.25044C406.252 7.32126 406.221 7.40397 406.212 7.49044C405.611 13.909 405.334 20.3539 405.382 26.8004C405.382 26.8004 405.382 26.8004 405.332 26.8604C402.31 32.1598 399.84 37.7559 397.962 43.5604C397.911 43.5155 397.85 43.4816 397.785 43.4609C397.72 43.4403 397.651 43.4333 397.582 43.4404C392.862 43.8104 388.152 44.0804 383.422 44.1204C378.692 44.1604 373.902 43.5704 369.252 44.1204C369.215 44.1245 369.179 44.1391 369.15 44.1625C369.12 44.1859 369.098 44.2172 369.086 44.2527C369.073 44.2882 369.071 44.3266 369.079 44.3633C369.087 44.4001 369.106 44.4337 369.132 44.4604C369.088 44.5062 369.054 44.5613 369.033 44.6219C369.012 44.6824 369.005 44.7468 369.012 44.8104C369.289 48.8045 369.332 52.8113 369.142 56.8104C364.022 56.8104 358.872 57.0304 353.792 57.4804V57.4204C353.792 56.7804 352.792 56.7804 352.792 57.4204C352.697 59.2192 352.697 61.0217 352.792 62.8204C352.72 64.184 352.939 65.5474 353.432 66.8204C347.322 67.1504 341.252 66.9304 335.112 67.3604C334.972 60.1004 334.792 52.8304 334.312 45.5904C334.932 45.4004 334.922 44.3804 334.212 44.4604H334.152C334.115 44.418 334.067 44.3852 334.014 44.3647C333.961 44.3442 333.904 44.3366 333.847 44.3424C333.79 44.3483 333.736 44.3675 333.688 44.3984C333.641 44.4293 333.601 44.4712 333.572 44.5204C327.672 45.1604 321.782 45.5904 315.852 45.6504C313.532 45.6504 308.252 44.4104 306.302 45.9204C306.242 45.8858 306.175 45.8659 306.105 45.8623C306.036 45.8587 305.967 45.8716 305.904 45.8999C305.84 45.9282 305.784 45.9711 305.741 46.025C305.697 46.079 305.667 46.1425 305.652 46.2104C304.814 51.7702 304.727 57.4174 305.392 63.0004C302.392 62.8804 299.392 62.8604 296.452 63.0004C295.812 43.2004 296.112 23.0004 294.102 3.33044H294.572C294.716 3.33044 294.853 3.27354 294.954 3.17227C295.056 3.071 295.112 2.93365 295.112 2.79044C295.112 2.64722 295.056 2.50987 294.954 2.4086C294.853 2.30733 294.716 2.25044 294.572 2.25044C287.522 2.38043 280.572 2.09044 273.572 1.60044C273.152 1.60044 273.042 2.28044 273.472 2.36044H273.612C274.142 12.4504 274.532 22.5504 274.612 32.6504C274.692 42.7504 274.042 52.7104 274.212 62.7204C270.822 62.7904 267.402 63.0004 264.112 63.3904C264.167 63.3263 264.195 63.2444 264.192 63.1604C264.582 52.7304 264.762 42.2804 264.842 31.8404C264.922 21.4004 265.472 10.8404 264.472 0.500435C264.472 0.42087 264.441 0.344564 264.385 0.288303C264.328 0.232042 264.252 0.200435 264.172 0.200435C264.093 0.200435 264.017 0.232042 263.96 0.288303C263.904 0.344564 263.872 0.42087 263.872 0.500435V0.560435C263.834 0.522368 263.789 0.492178 263.739 0.471588C263.69 0.450998 263.636 0.440413 263.582 0.440435C255.982 -0.0595648 248.192 -0.0895648 240.582 0.130435C240.514 0.13095 240.447 0.148556 240.387 0.18165C240.327 0.214745 240.277 0.262276 240.24 0.319919C240.203 0.377562 240.181 0.443486 240.177 0.511691C240.172 0.579897 240.184 0.648217 240.212 0.710435C240.147 0.729265 240.089 0.766718 240.044 0.818219C240 0.869719 239.971 0.933037 239.962 1.00044C238.882 6.12044 238.482 13.1804 239.832 18.3704C237.942 18.2804 236.052 18.2304 234.172 18.2704C234.062 15.4704 233.942 12.6804 233.832 9.88043C233.83 9.72476 233.767 9.57618 233.657 9.46609C233.547 9.356 233.398 9.29301 233.242 9.29043C221.792 9.59044 210.122 8.23043 198.732 8.96043C198.728 8.90387 198.728 8.847 198.732 8.79043C198.717 8.68892 198.665 8.59634 198.587 8.52946C198.509 8.46258 198.41 8.42582 198.307 8.42582C198.205 8.42582 198.105 8.46258 198.027 8.52946C197.95 8.59634 197.898 8.68892 197.882 8.79043C197.362 19.7204 197.352 30.7004 197.482 41.6804C197.4 41.6635 197.315 41.6635 197.232 41.6804C187.822 42.2804 178.422 42.6804 168.992 42.6204C168.839 42.623 168.693 42.6849 168.585 42.7932C168.477 42.9014 168.415 43.0474 168.412 43.2004C167.959 46.5173 167.942 49.8792 168.362 53.2004H159.792C159.647 53.2004 159.507 53.2584 159.404 53.3615C159.3 53.4647 159.242 53.6046 159.242 53.7504C159.512 62.3004 159.702 70.8604 160.242 79.4004L152.182 79.7004C151.672 69.8704 151.182 60.0404 150.682 50.2204C150.68 50.0498 150.61 49.887 150.489 49.7673C150.367 49.6475 150.203 49.5804 150.032 49.5804C147.181 49.5469 144.337 49.883 141.572 50.5804L141.512 41.2304C141.507 41.0659 141.439 40.9097 141.322 40.7942C141.204 40.6787 141.047 40.6129 140.882 40.6104C136.572 40.6104 132.192 40.4104 127.882 40.7604C127.882 37.5904 127.882 34.4204 127.882 31.2504C127.88 31.0895 127.815 30.9358 127.701 30.8219C127.587 30.7081 127.433 30.643 127.272 30.6404C123.756 30.6204 120.244 30.4001 116.752 29.9804C116.422 29.9804 116.162 30.2904 116.142 30.5904C115.982 34.3704 115.762 38.1904 115.842 41.9804C115.801 41.8691 115.725 41.7736 115.627 41.7073C115.528 41.6409 115.411 41.6071 115.292 41.6104C113.202 41.6104 111.102 41.6104 109.012 41.6104C107.952 41.6104 106.122 41.3204 105.242 42.1404C104.362 42.9604 104.722 44.1404 104.732 45.0504C104.737 46.8478 104.838 48.6437 105.032 50.4304C101.912 50.8423 98.7696 51.0594 95.6225 51.0804C95.5568 51.0775 95.4915 51.0904 95.4319 51.1181C95.3723 51.1457 95.3203 51.1872 95.2801 51.2392C95.2399 51.2911 95.2128 51.3519 95.201 51.4166C95.1892 51.4812 95.1932 51.5477 95.2124 51.6104C95.1533 51.6951 95.1251 51.7975 95.1324 51.9004C95.6024 65.0404 95.7325 78.2604 96.7524 91.3804C93.7524 91.3804 90.7524 91.5004 87.8224 91.6604C87.8224 89.3704 87.8224 87.0804 87.6225 84.8104C87.722 84.734 87.796 84.6292 87.8347 84.5099C87.8734 84.3905 87.875 84.2622 87.8392 84.1419C87.8035 84.0217 87.7321 83.9151 87.6344 83.8362C87.5368 83.7574 87.4176 83.71 87.2924 83.7004C80.4324 83.5304 73.5624 83.3704 66.7024 83.2704C66.5521 83.273 66.4086 83.3339 66.3022 83.4402C66.1959 83.5466 66.135 83.6901 66.1324 83.8404C65.8728 86.1041 65.8126 88.3862 65.9524 90.6604C64.0724 90.7604 62.1924 90.8704 60.3124 91.0004C60.8424 88.0004 60.4224 84.7804 60.3124 81.7204C60.2926 78.5434 60.1124 75.3693 59.7724 72.2104C59.8346 72.1222 59.8714 72.0187 59.8789 71.911C59.8863 71.8034 59.864 71.6957 59.8146 71.5998C59.7651 71.5039 59.6902 71.4234 59.5982 71.3671C59.5061 71.3108 59.4004 71.2808 59.2924 71.2804C49.0125 71.6104 38.7324 71.8704 28.4624 72.2804C28.3155 72.2854 28.1759 72.346 28.072 72.45C27.968 72.5539 27.9074 72.6935 27.9024 72.8404C27.4824 76.8404 27.1824 80.7804 27.0824 84.7704C27.0324 86.6104 27.0224 88.4504 27.0824 90.2904C27.0824 91.2104 27.1124 92.1304 27.1724 93.0504C27.1024 94.3031 27.3321 95.5543 27.8424 96.7004C27.7962 96.6576 27.7355 96.6337 27.6724 96.6337C27.6094 96.6337 27.5487 96.6576 27.5024 96.7004L27.3724 96.7904C27.3209 96.8365 27.277 96.8905 27.2424 96.9504C23.5948 97.4205 19.9077 97.5043 16.2424 97.2004C15.9324 93.5504 15.5424 89.9404 15.0724 86.4204C15.1547 86.3356 15.2095 86.228 15.2299 86.1116C15.2503 85.9953 15.2353 85.8755 15.1868 85.7677C15.1383 85.66 15.0586 85.5693 14.958 85.5074C14.8574 85.4455 14.7405 85.4152 14.6224 85.4204C5.96244 86.0504 -2.72756 86.5204 -11.3776 87.4204C-11.4972 87.4316 -11.6098 87.4817 -11.6983 87.563C-11.7868 87.6442 -11.8462 87.7522 -11.8676 87.8704C-11.9262 87.9498 -11.9641 88.0426 -11.9776 88.1404C-13.2591 100.932 -13.3361 113.815 -12.2076 126.62C-12.2076 127.23 -11.2076 127.25 -11.2076 126.62C-11.4976 113.84 -12.2076 101.2 -10.8476 88.4504C-2.47756 88.0804 5.88245 87.3204 14.2424 86.7004C14.4724 99.0004 14.5424 111.61 15.5024 123.85C15.5024 123.991 15.5583 124.126 15.6577 124.225C15.7571 124.325 15.8919 124.38 16.0324 124.38C16.173 124.38 16.3078 124.325 16.4072 124.225C16.5066 124.126 16.5624 123.991 16.5624 123.85C17.183 115.285 17.1094 106.684 16.3424 98.1304C19.1699 98.6923 22.0664 98.8205 24.9324 98.5104C26.737 98.1953 28.5615 98.0082 30.3924 97.9504C33.3924 98.1604 33.5524 98.8004 34.1324 101.69C34.8924 105.41 34.5124 109.78 34.7124 113.59C34.9124 117.59 35.0924 121.53 35.3824 125.5C35.4057 125.616 35.4682 125.72 35.5593 125.794C35.6504 125.869 35.7646 125.91 35.8824 125.91C36.0003 125.91 36.1144 125.869 36.2056 125.794C36.2967 125.72 36.3592 125.616 36.3824 125.5C36.3824 124.68 36.3824 123.86 36.3024 123.04C37.2224 123.04 38.1524 123.11 39.0824 123.12V123.86C39.0824 123.916 39.1046 123.97 39.144 124.009C39.1833 124.048 39.2368 124.07 39.2924 124.07C39.3481 124.07 39.4016 124.048 39.4409 124.009C39.4803 123.97 39.5024 123.916 39.5024 123.86C39.5024 123.61 39.5024 123.37 39.5024 123.13C42.4384 123.194 45.3752 123.057 48.2924 122.72C48.5224 122.72 48.5324 122.33 48.2924 122.34L44.6724 122.5C44.6724 121.66 44.6724 120.82 44.6724 119.98C45.6724 119.85 46.7524 119.67 47.7724 119.46C47.9356 119.898 48.1837 120.299 48.5024 120.64C48.6324 120.78 48.8224 120.58 48.7124 120.43C48.4628 120.116 48.2761 119.756 48.1624 119.37C48.6724 119.27 49.1624 119.17 49.6824 119.04C50.0024 118.96 49.8624 118.51 49.5524 118.56L48.0024 118.8C47.8228 117.781 47.7724 116.743 47.8524 115.71L50.0224 115.37C50.2424 115.37 50.1924 114.93 49.9624 114.96L47.8824 115.2C48.0224 113.29 48.3524 111.36 48.4124 110.1C48.9524 109.99 49.4924 109.88 50.0324 109.75C50.3524 109.68 50.2124 109.2 49.8924 109.27C49.4124 109.36 48.8924 109.44 48.4424 109.54L48.5624 106.62C49.1724 106.5 49.7924 106.38 50.3924 106.22C50.7324 106.14 50.5824 105.66 50.2524 105.71L48.5824 105.94C48.6424 104.64 48.6924 103.33 48.7524 102.03H49.0124C49.2324 102.03 49.1824 101.61 48.9624 101.63H48.7624L48.8524 99.5004C48.8524 99.0904 48.8524 98.6704 48.9024 98.2504H49.0524C49.3524 98.2504 49.2924 97.6804 48.9824 97.7204H48.8624C48.9224 96.1904 48.9924 94.7204 49.0524 93.1404H49.2324C49.6924 93.1404 49.7024 92.3904 49.2324 92.4204H49.0824L49.2324 88.7704C50.1624 88.6904 51.0925 88.6004 52.0125 88.5004C52.0125 88.9704 52.0125 89.4304 52.0125 89.9004C52.0245 89.9619 52.0574 90.0173 52.1058 90.0571C52.1541 90.0969 52.2148 90.1187 52.2775 90.1187C52.3401 90.1187 52.4008 90.0969 52.4491 90.0571C52.4975 90.0173 52.5304 89.9619 52.5424 89.9004C52.5424 89.4104 52.5424 88.9004 52.6225 88.4404C53.7025 88.3338 54.7824 88.2138 55.8624 88.0804C56.2225 88.0804 56.2424 87.4804 55.8624 87.5004H55.4524C55.6707 84.7422 55.6941 81.972 55.5224 79.2104C55.509 79.134 55.469 79.0648 55.4096 79.0149C55.3502 78.965 55.275 78.9377 55.1974 78.9377C55.1199 78.9377 55.0447 78.965 54.9853 79.0149C54.9259 79.0648 54.8859 79.134 54.8725 79.2104C54.7219 81.9494 54.7519 84.6954 54.9624 87.4304C54.2024 87.4304 53.4425 87.5204 52.6824 87.5804C52.7325 86.6404 52.7824 85.7104 52.8524 84.7704C53.3024 84.7704 53.7625 84.6904 54.2225 84.6304C54.2861 84.6304 54.3471 84.6051 54.3922 84.5601C54.4372 84.5151 54.4624 84.4541 54.4624 84.3904C54.4624 84.3268 54.4372 84.2657 54.3922 84.2207C54.3471 84.1757 54.2861 84.1504 54.2225 84.1504H52.8824C52.9524 83.2304 53.0024 82.3104 53.0524 81.3904H54.2225C54.3014 81.3767 54.3729 81.3356 54.4245 81.2744C54.4761 81.2131 54.5044 81.1355 54.5044 81.0554C54.5044 80.9753 54.4761 80.8978 54.4245 80.8365C54.3729 80.7752 54.3014 80.7341 54.2225 80.7204C53.8425 80.7204 53.4724 80.7204 53.0924 80.7204C53.1524 79.5604 53.1924 78.4104 53.2024 77.2504L54.0624 77.1504C54.4624 77.1504 54.4924 76.4904 54.0624 76.5004H53.2225V76.4204C53.2225 76.0704 52.6424 75.9604 52.5825 76.3404V76.5304C46.4625 76.8604 40.3624 77.9904 34.2224 77.8104C34.0024 77.8104 34.0024 78.1404 34.2224 78.1604C35.8924 78.2904 37.5924 78.3404 39.3124 78.3204C39.3124 79.2304 39.3124 80.1404 39.3124 81.0504C38.3124 81.1404 37.3124 81.2304 36.3124 81.3404C36.3124 80.4904 36.3124 79.6404 36.3124 78.7904C36.3015 78.7389 36.2732 78.6926 36.2322 78.6594C36.1913 78.6262 36.1402 78.6081 36.0874 78.6081C36.0347 78.6081 35.9836 78.6262 35.9427 78.6594C35.9017 78.6926 35.8734 78.7389 35.8624 78.7904C35.7624 79.6604 35.6824 80.5404 35.6124 81.4204C34.8624 81.5104 34.1024 81.5904 33.3524 81.6904C33.0624 81.6904 33.0524 82.1804 33.3524 82.1604C34.0924 82.0904 34.8324 82.0604 35.5624 82.0104C35.4924 82.9504 35.4324 83.9004 35.3924 84.8404C34.4824 84.8404 33.5824 84.9104 32.6724 84.9304C32.6233 84.9411 32.5794 84.9682 32.5478 85.0073C32.5163 85.0465 32.4991 85.0952 32.4991 85.1454C32.4991 85.1957 32.5163 85.2444 32.5478 85.2835C32.5794 85.3226 32.6233 85.3498 32.6724 85.3604H35.2624C35.2624 86.6604 35.1724 87.9504 35.1424 89.2404L32.3424 89.5304C32.3424 85.7204 32.1924 81.9004 31.9824 78.1104C31.9824 77.7304 31.3624 77.7204 31.3824 78.1104C31.5124 81.9404 31.6224 85.7704 31.7424 89.5904L30.9124 89.6804C30.6824 89.6804 30.6724 90.0704 30.9124 90.0504L31.7524 89.9904C31.7524 91.2004 31.8324 92.4104 31.8824 93.6204C30.7669 93.6027 29.6607 93.4139 28.6024 93.0604C28.4724 91.0604 28.1124 89.0004 28.1024 87.4804C28.1024 84.2804 27.1024 76.1304 29.5424 73.9704C31.0424 72.6204 34.1624 73.2004 36.1124 73.1404L43.8224 72.9004L58.8924 72.4104C58.6925 75.7004 58.9825 79.0604 59.1124 82.3504C59.2124 85.2004 59.0525 88.1704 59.7625 90.9404C57.4725 91.1104 55.1824 91.3004 52.9025 91.5404C52.8321 91.5465 52.7638 91.5669 52.7016 91.6003C52.6394 91.6336 52.5847 91.6793 52.5407 91.7345C52.4968 91.7897 52.4645 91.8533 52.4459 91.9213C52.4272 91.9894 52.4227 92.0605 52.4324 92.1304C52.3653 92.0653 52.2809 92.0208 52.1892 92.0021C52.0975 91.9835 52.0024 91.9914 51.9151 92.0251C51.8279 92.0587 51.752 92.1167 51.6966 92.192C51.6412 92.2674 51.6085 92.3571 51.6024 92.4504C51.5424 103.57 51.0424 114.66 50.8724 125.77C50.8724 125.892 50.9209 126.009 51.0072 126.096C51.0934 126.182 51.2104 126.23 51.3325 126.23C51.4545 126.23 51.5714 126.182 51.6577 126.096C51.744 126.009 51.7924 125.892 51.7924 125.77C52.6324 114.71 52.6424 103.54 52.5624 92.4504C52.6073 92.497 52.662 92.5329 52.7226 92.5554C52.7832 92.5779 52.8481 92.5865 52.9124 92.5804C58.5224 92.4604 64.1824 92.0804 69.7724 91.5804C67.9124 95.8304 69.0125 101.23 69.1424 105.72C69.3424 112.31 69.5225 118.9 69.7625 125.48C69.7807 125.617 69.8481 125.743 69.952 125.834C70.0559 125.925 70.1893 125.975 70.3274 125.975C70.4656 125.975 70.599 125.925 70.7029 125.834C70.8068 125.743 70.8742 125.617 70.8924 125.48C70.7724 119.83 70.6124 114.19 70.4524 108.54C70.2924 102.89 69.2225 96.3704 70.9025 90.9104C70.9196 90.836 70.9127 90.7581 70.8827 90.6879C70.8526 90.6176 70.801 90.5588 70.7353 90.5198C70.6697 90.4809 70.5933 90.4638 70.5173 90.4711C70.4413 90.4784 70.3695 90.5097 70.3124 90.5604C70.2599 90.5061 70.1957 90.4643 70.1247 90.4383C70.0537 90.4123 69.9777 90.4028 69.9025 90.4104L66.5825 90.5604C66.5825 88.5604 66.4324 85.4704 68.2424 84.3904C69.3524 83.7404 73.2425 84.5104 74.5825 84.5504C78.5825 84.6404 82.6624 84.7404 86.7124 84.8204C86.0224 91.4704 86.3524 98.3204 86.4624 104.99C86.5825 111.91 86.6224 118.93 87.3424 125.82C87.4024 126.39 88.2524 126.42 88.2524 125.82C88.2524 118.88 87.8124 111.93 87.7124 104.99C87.6525 100.81 87.7924 96.5904 87.7924 92.3804C91.5225 92.5204 95.2424 92.5104 98.9824 92.4804C100.402 92.4804 103.322 91.8604 104.682 92.4804C107.922 93.8704 107.132 97.0304 107.252 99.7604C107.602 108.01 107.902 116.26 108.252 124.51C108.252 125.21 109.372 125.22 109.342 124.51C109.136 118.897 108.922 113.287 108.702 107.68C108.602 105.04 108.522 102.4 108.432 99.7604C108.372 97.7604 108.912 94.4504 108.172 92.6704C107.432 90.8904 106.702 91.2904 104.722 91.3004C102.292 91.3004 99.8725 91.3004 97.4425 91.3004C97.5125 78.1904 96.6824 65.0504 96.2124 51.9504C99.4132 52.223 102.636 52.0582 105.792 51.4604C105.917 51.4171 106.025 51.3345 106.098 51.2249C106.172 51.1154 106.208 50.9848 106.202 50.8529C106.195 50.721 106.145 50.5948 106.061 50.4934C105.976 50.392 105.861 50.3208 105.732 50.2904C105.732 49.1304 105.732 47.9704 105.732 46.8104C105.732 45.6504 105.342 43.3804 106.612 42.8104C107.522 42.4004 109.542 42.7604 110.542 42.7604C112.112 42.7604 113.682 42.7604 115.252 42.7604C115.371 42.7676 115.488 42.7365 115.587 42.6716C115.686 42.6068 115.762 42.5117 115.802 42.4004V42.4604C115.817 42.5494 115.863 42.6302 115.931 42.6886C116 42.747 116.087 42.779 116.177 42.779C116.268 42.779 116.355 42.747 116.423 42.6886C116.492 42.6302 116.538 42.5494 116.552 42.4604C117.002 38.7204 117.122 34.9304 117.292 31.1704C120.392 31.5204 123.492 31.7204 126.612 31.7604C126.612 34.7604 126.612 37.7604 126.612 40.7604C126.612 40.7604 126.612 40.7604 126.612 40.8404C126.563 40.8913 126.53 40.9556 126.517 41.0251C126.505 41.0947 126.513 41.1665 126.54 41.2316C126.568 41.2967 126.614 41.3521 126.673 41.391C126.732 41.43 126.802 41.4506 126.872 41.4504C131.308 41.779 135.757 41.8724 140.202 41.7304L140.262 51.0904C140.266 51.227 140.313 51.3588 140.397 51.466C140.482 51.5733 140.599 51.6502 140.731 51.6852C140.863 51.7202 141.003 51.7113 141.129 51.6599C141.256 51.6086 141.362 51.5175 141.432 51.4004C141.521 51.4213 141.614 51.4213 141.702 51.4004C144.772 50.8904 148.512 49.4904 149.482 53.0404C150.202 55.6604 149.832 59.2304 149.982 61.9304C150.292 67.8204 150.582 73.7104 150.892 79.6004L143.532 79.9104C143.479 79.9087 143.427 79.9183 143.378 79.9388C143.329 79.9592 143.285 79.9898 143.249 80.0287C143.213 80.0676 143.186 80.1138 143.169 80.1641C143.152 80.2144 143.147 80.2677 143.152 80.3204C143.152 80.3204 143.152 80.3204 143.152 80.3904C142.474 94.9486 142.731 109.535 143.922 124.06C143.922 124.182 143.971 124.299 144.057 124.386C144.143 124.472 144.26 124.52 144.382 124.52C144.504 124.52 144.621 124.472 144.708 124.386C144.794 124.299 144.842 124.182 144.842 124.06C144.922 109.73 144.842 95.0004 143.782 80.7004C152.174 81.2938 160.603 81.1164 168.962 80.1704C168.822 95.0604 169.502 110.23 170.352 125.1C170.352 125.233 170.405 125.36 170.499 125.454C170.593 125.548 170.72 125.6 170.852 125.6C170.985 125.6 171.112 125.548 171.206 125.454C171.3 125.36 171.352 125.233 171.352 125.1C171.59 110.081 171.033 95.0605 169.682 80.1004C170.262 79.9004 170.262 78.9504 169.552 78.9804C166.682 79.1004 163.802 79.2104 160.932 79.3104C160.932 74.5504 160.812 69.7904 160.672 65.0304C160.622 63.1404 160.562 61.2504 160.502 59.3604L160.392 55.5804C160.52 55.2775 160.706 55.0029 160.941 54.7723C161.175 54.5418 161.453 54.3599 161.757 54.2372C162.062 54.1145 162.389 54.0534 162.717 54.0574C163.046 54.0613 163.371 54.1304 163.672 54.2604C166.062 53.8204 169.012 54.2604 171.452 54.2604C173.392 54.0954 175.343 54.0954 177.282 54.2604C181.012 54.9404 180.822 55.9104 181.132 59.6104C181.332 61.9104 181.522 64.2004 181.702 66.5004C183.232 85.8904 183.702 105.31 183.442 124.75C183.473 124.859 183.539 124.955 183.629 125.023C183.72 125.091 183.829 125.128 183.942 125.128C184.055 125.128 184.165 125.091 184.256 125.023C184.346 124.955 184.411 124.859 184.442 124.75C184.815 101.051 183.897 77.3497 181.692 53.7504C181.69 53.6001 181.629 53.4566 181.523 53.3502C181.416 53.2439 181.273 53.183 181.122 53.1804H169.122C169.022 51.3604 168.202 46.3404 169.272 44.8604C170.722 42.8604 176.092 43.7804 178.342 43.7404C184.622 43.6304 190.902 43.3704 197.162 42.8804C197.258 42.8802 197.352 42.8524 197.432 42.8004C197.532 50.8004 197.692 58.7404 197.802 66.6804C198.056 85.9604 198.532 105.237 199.232 124.51C199.232 125.14 200.232 125.14 200.232 124.51C199.632 105.23 199.142 85.9604 198.902 66.6804C198.662 47.6104 199.232 28.4904 198.692 9.44043C203.982 10.4404 209.552 10.4404 214.932 10.5704C217.819 10.6438 220.702 10.6738 223.582 10.6604C225.752 10.6604 230.362 9.72043 231.982 11.2404C233.602 12.7604 232.982 18.7004 233.052 20.9104C233.182 23.9104 233.302 26.9104 233.432 29.9104C233.692 36.2438 233.942 42.5771 234.182 48.9104C235.169 73.8904 236.169 98.8704 237.182 123.85C237.182 124.53 238.282 124.54 238.252 123.85C236.859 88.9638 235.486 54.0704 234.132 19.1704C237.852 19.6104 241.612 19.7504 245.362 19.8404C245.375 19.9094 245.412 19.9717 245.466 20.0165C245.519 20.0613 245.587 20.0859 245.657 20.0859C245.728 20.0859 245.795 20.0613 245.849 20.0165C245.903 19.9717 245.94 19.9094 245.952 19.8404L248.322 19.9004C247.802 37.2704 248.542 54.7804 248.652 72.1704C248.772 89.7304 248.812 107.28 249.002 124.84C249.002 124.965 249.052 125.085 249.14 125.173C249.228 125.261 249.348 125.31 249.472 125.31C249.597 125.31 249.717 125.261 249.805 125.173C249.893 125.085 249.942 124.965 249.942 124.84C249.872 107.28 249.672 89.7304 249.532 72.1704C249.392 54.6104 249.892 37.1704 249.122 19.8004C249.186 19.7382 249.231 19.6588 249.25 19.5718C249.27 19.4848 249.264 19.394 249.232 19.3104C249.857 14.6244 250.108 9.8962 249.982 5.17044C249.975 5.14567 249.96 5.12395 249.939 5.1085C249.918 5.09306 249.893 5.08471 249.867 5.08471C249.842 5.08471 249.816 5.09306 249.796 5.1085C249.775 5.12395 249.76 5.14567 249.752 5.17044C249.552 9.80044 249.202 14.4304 249.012 19.0604C248.957 19.0194 248.891 18.9951 248.822 18.9904L245.982 18.7904C246.142 14.2604 246.092 9.70044 246.062 5.17044C246.054 5.13844 246.035 5.11015 246.009 5.08997C245.983 5.06979 245.951 5.05884 245.917 5.05884C245.884 5.05884 245.852 5.06979 245.826 5.08997C245.8 5.11015 245.781 5.13844 245.772 5.17044C245.572 9.69044 245.372 14.2304 245.372 18.7504L242.722 18.5704C242.722 18.5704 242.722 18.5704 242.722 18.5004C242.957 13.8367 242.957 9.16414 242.722 4.50044C242.722 4.44209 242.699 4.38613 242.658 4.34487C242.617 4.30361 242.561 4.28044 242.502 4.28044C242.444 4.28044 242.388 4.30361 242.347 4.34487C242.306 4.38613 242.282 4.44209 242.282 4.50044C242.042 9.16402 242.042 13.8369 242.282 18.5004C241.602 18.5004 240.922 18.4104 240.282 18.3804C240.582 15.6004 240.282 12.7304 240.282 9.94043C240.332 6.99043 240.702 4.04044 240.682 1.09044C240.688 1.05734 240.688 1.02353 240.682 0.990435C248.232 1.42044 255.962 1.62044 263.522 1.35044C263.614 1.3515 263.703 1.31954 263.772 1.26044C263.222 11.3704 263.892 21.6604 263.832 31.7904C263.772 42.2304 263.542 52.6704 263.292 63.1104C263.29 63.1676 263.3 63.2245 263.32 63.2778C263.341 63.3311 263.372 63.3796 263.412 63.4204C262.672 63.5104 261.932 63.6104 261.202 63.7304C260.882 63.7804 260.912 64.1804 261.142 64.3204C259.642 84.4304 260.472 104.99 261.332 125.11C261.332 125.74 262.332 125.74 262.332 125.11C261.462 104.76 262.122 84.5104 261.962 64.1804C263.822 65.3804 269.662 64.2604 271.422 64.1804C274.632 64.0404 277.872 64.0104 281.062 63.6404C280.062 84.1404 280.692 104.95 281.252 125.46C281.269 125.57 281.323 125.669 281.407 125.741C281.491 125.813 281.597 125.853 281.707 125.853C281.818 125.853 281.924 125.813 282.008 125.741C282.091 125.669 282.146 125.57 282.162 125.46C282.062 116.92 282.082 108.37 282.102 99.8204C282.135 99.8319 282.17 99.8319 282.202 99.8204L286.072 99.5404L286.192 104.14C284.969 104.182 283.744 104.158 282.522 104.07C282.332 104.07 282.342 104.35 282.522 104.38C283.747 104.532 284.979 104.619 286.212 104.64C286.212 106.19 286.292 107.74 286.342 109.29C285.412 109.41 284.492 109.51 283.542 109.57C283.495 109.57 283.449 109.589 283.415 109.623C283.381 109.657 283.362 109.703 283.362 109.75C283.362 109.798 283.381 109.844 283.415 109.878C283.449 109.911 283.495 109.93 283.542 109.93C284.472 109.93 285.412 109.93 286.352 109.82L286.442 113.13C285.592 113.2 284.732 113.24 283.872 113.26C283.833 113.27 283.798 113.292 283.773 113.324C283.748 113.356 283.735 113.395 283.735 113.435C283.735 113.476 283.748 113.515 283.773 113.547C283.798 113.579 283.833 113.601 283.872 113.61C284.742 113.61 285.602 113.61 286.452 113.61C286.502 115.26 286.542 116.9 286.592 118.54C285.587 118.505 284.585 118.405 283.592 118.24C283.302 118.18 283.182 118.62 283.472 118.68C284.501 118.888 285.544 119.019 286.592 119.07L286.682 122.07L284.922 122.19C284.939 122.183 284.955 122.171 284.968 122.158C284.98 122.144 284.99 122.128 284.997 122.11C285.003 122.092 285.006 122.074 285.005 122.055C285.005 122.036 285 122.018 284.992 122C284.985 121.983 284.973 121.968 284.96 121.955C284.946 121.942 284.93 121.933 284.912 121.926C284.876 121.913 284.837 121.915 284.802 121.93C284.396 122.071 283.982 122.188 283.562 122.28C283.511 122.302 283.468 122.339 283.44 122.388C283.413 122.436 283.402 122.493 283.41 122.548C283.418 122.603 283.444 122.654 283.485 122.692C283.525 122.731 283.577 122.755 283.632 122.76C284.632 122.76 285.632 122.76 286.702 122.76V123.76C286.702 123.829 286.73 123.896 286.779 123.944C286.827 123.993 286.893 124.02 286.962 124.02C287.031 124.02 287.098 123.993 287.146 123.944C287.195 123.896 287.222 123.829 287.222 123.76C287.222 123.41 287.222 123.07 287.222 122.76C289.473 122.785 291.72 122.591 293.932 122.18C294.192 122.18 294.122 121.74 293.872 121.73C291.672 121.73 289.432 121.85 287.202 122.01C287.202 121.01 287.202 120.07 287.152 119.1C288.034 119.127 288.916 119.094 289.792 119V120.47C289.807 120.557 289.851 120.635 289.918 120.692C289.985 120.749 290.07 120.78 290.157 120.78C290.245 120.78 290.33 120.749 290.397 120.692C290.464 120.635 290.508 120.557 290.522 120.47V118.91C291.325 118.796 292.12 118.633 292.902 118.42C292.932 118.413 292.96 118.399 292.984 118.38C293.008 118.362 293.029 118.339 293.044 118.312C293.059 118.286 293.069 118.256 293.073 118.226C293.077 118.196 293.075 118.165 293.067 118.135C293.06 118.106 293.046 118.078 293.027 118.054C293.009 118.03 292.986 118.009 292.959 117.994C292.933 117.979 292.903 117.969 292.873 117.965C292.843 117.961 292.812 117.963 292.782 117.97C292.032 118.13 291.272 118.25 290.522 118.34C290.522 116.66 290.522 114.97 290.522 113.28C291.762 113.13 292.992 112.93 294.212 112.66C294.512 112.6 294.382 112.17 294.092 112.21C292.899 112.41 291.709 112.59 290.522 112.75C290.522 111.56 290.522 110.38 290.522 109.2C291.202 109.03 291.882 108.85 292.522 108.62C292.57 108.599 292.609 108.562 292.631 108.515C292.654 108.468 292.659 108.414 292.646 108.364C292.633 108.313 292.602 108.269 292.559 108.239C292.516 108.209 292.464 108.196 292.412 108.2C291.772 108.35 291.142 108.47 290.512 108.6C290.512 107.23 290.512 105.85 290.512 104.47C291.865 104.303 293.203 104.028 294.512 103.65C294.566 103.628 294.61 103.587 294.635 103.536C294.661 103.484 294.667 103.424 294.653 103.368C294.638 103.312 294.604 103.263 294.556 103.231C294.508 103.198 294.45 103.184 294.392 103.19C293.072 103.45 291.772 103.67 290.482 103.84C290.482 102.29 290.482 100.74 290.482 99.1804C291.292 99.0804 292.092 98.9704 292.892 98.8304C293.132 98.8304 293.072 98.4004 292.832 98.4104C292.052 98.4104 291.272 98.4804 290.482 98.5404C290.482 96.5404 290.482 94.6304 290.482 92.6704C290.962 92.5804 291.482 92.4804 291.912 92.3704C292.342 92.2604 292.102 91.8004 291.772 91.8604L290.482 92.0504C290.482 89.7704 290.482 87.4904 290.432 85.2004L291.242 85.0304C291.482 84.9704 291.442 84.5504 291.182 84.5904L290.422 84.6704C290.422 82.9204 290.422 81.1604 290.422 79.4004C290.722 79.3338 291.022 79.2538 291.322 79.1604C291.383 79.1309 291.432 79.0811 291.46 79.0195C291.488 78.9579 291.493 78.8885 291.476 78.8232C291.458 78.7579 291.418 78.7009 291.362 78.6621C291.307 78.6232 291.24 78.605 291.172 78.6104L290.412 78.7504C290.412 77.1204 290.412 75.5004 290.362 73.8704C290.672 73.8104 290.972 73.7504 291.282 73.6704C291.592 73.5904 291.472 73.2204 291.222 73.2404L290.352 73.3004C290.352 72.0404 290.352 70.7804 290.352 69.5304L290.992 69.3704C291.252 69.2904 291.212 68.8404 290.922 68.8804L290.352 68.9604L290.232 59.3504C290.702 59.2504 291.182 59.1504 291.662 59.0304C291.982 58.9404 291.832 58.4904 291.522 58.5404L290.222 58.7204C290.222 56.8804 290.172 55.0404 290.142 53.2104L291.012 53.0704C291.091 53.0507 291.16 53.0025 291.206 52.935C291.251 52.8676 291.27 52.7857 291.259 52.705C291.248 52.6244 291.208 52.5507 291.145 52.4982C291.083 52.4457 291.004 52.418 290.922 52.4204L290.132 52.4904L290.072 48.2004C290.382 48.2004 290.692 48.1204 291.002 48.0604C291.312 48.0004 291.242 47.4904 290.922 47.5204L290.062 47.6004C290.062 46.0204 290.012 44.4304 289.992 42.8504L290.672 42.7504C290.743 42.7317 290.805 42.6878 290.845 42.627C290.886 42.5662 290.903 42.4926 290.893 42.4201C290.883 42.3476 290.847 42.2812 290.792 42.2334C290.736 42.1856 290.666 42.1596 290.592 42.1604L289.982 42.2204C289.982 40.4904 289.922 38.7604 289.902 37.0404C290.382 36.9504 290.852 36.8404 291.332 36.7204C291.602 36.6504 291.552 36.1904 291.262 36.2304L289.892 36.3804C289.852 34.2404 289.816 32.0971 289.782 29.9504L290.682 29.8004C290.982 29.7404 290.922 29.2104 290.602 29.2404L289.772 29.3404L289.682 23.9404L290.682 23.7704C291.022 23.7004 290.952 23.1004 290.592 23.1404L289.662 23.2504C289.662 21.6604 289.612 20.0704 289.582 18.4804L290.262 18.4304C290.682 18.4304 290.692 17.7504 290.262 17.7704H289.572C289.572 16.3304 289.572 14.9004 289.492 13.4604H290.262C290.347 13.4604 290.429 13.4267 290.489 13.3667C290.549 13.3067 290.582 13.2253 290.582 13.1404C290.582 13.0556 290.549 12.9742 290.489 12.9142C290.429 12.8541 290.347 12.8204 290.262 12.8204H289.482C289.482 11.4904 289.432 10.1604 289.412 8.82043H290.262C290.336 8.80721 290.403 8.76841 290.451 8.71082C290.5 8.65324 290.526 8.58053 290.526 8.50543C290.526 8.43034 290.5 8.35763 290.451 8.30005C290.403 8.24246 290.336 8.20366 290.262 8.19043C288.357 8.02141 286.444 7.95798 284.532 8.00043C284.532 7.58043 284.532 7.16044 284.482 6.74044C284.474 6.70844 284.455 6.68015 284.429 6.65997C284.403 6.63979 284.371 6.62884 284.337 6.62884C284.304 6.62884 284.272 6.63979 284.246 6.65997C284.22 6.68015 284.201 6.70844 284.192 6.74044C284.192 7.17043 284.192 7.59044 284.192 8.02044C282.452 8.08044 280.712 8.21043 278.972 8.38043C278.882 7.70044 278.812 7.01044 278.722 6.38044C278.722 6.20044 278.392 6.25044 278.402 6.38044L278.522 8.43044C278.192 8.50043 278.192 9.04043 278.522 9.01044C278.702 11.9838 278.879 14.9471 279.052 17.9004H278.192C277.892 17.9004 277.902 18.3304 278.192 18.3504C278.482 18.3704 278.782 18.3504 279.082 18.4104C279.192 20.2304 279.292 22.0604 279.402 23.8804H278.852C278.803 23.8911 278.759 23.9182 278.728 23.9573C278.696 23.9965 278.679 24.0452 278.679 24.0954C278.679 24.1457 278.696 24.1944 278.728 24.2335C278.759 24.2726 278.803 24.2998 278.852 24.3104H279.422C279.532 26.1604 279.622 28.0104 279.712 29.8604C279.212 29.8604 278.712 29.8604 278.192 29.8604C277.932 29.8604 277.932 30.2504 278.192 30.2704C278.712 30.2704 279.192 30.3504 279.742 30.3704C279.842 32.5504 279.939 34.7238 280.032 36.8904H279.192C278.892 36.8904 278.902 37.3204 279.192 37.3504L280.052 37.4204C280.122 39.2504 280.172 41.0704 280.222 42.9004H278.852C278.805 42.9004 278.759 42.9194 278.725 42.9532C278.691 42.9869 278.672 43.0327 278.672 43.0804C278.672 43.1282 278.691 43.174 278.725 43.2077C278.759 43.2415 278.805 43.2604 278.852 43.2604C279.312 43.2604 279.782 43.2604 280.242 43.3104C280.242 45.0004 280.312 46.6904 280.342 48.3804C279.072 48.4604 277.802 48.5204 276.522 48.5504C276.478 48.5605 276.439 48.5853 276.411 48.6207C276.382 48.6561 276.367 48.7001 276.367 48.7454C276.367 48.7908 276.382 48.8347 276.411 48.8702C276.439 48.9056 276.478 48.9304 276.522 48.9404C277.792 48.9404 279.072 48.9404 280.352 48.9404C280.352 50.4504 280.352 51.9404 280.352 53.4804L276.832 53.8904C276.532 53.8904 276.522 54.3704 276.832 54.3604C277.992 54.3604 279.172 54.2804 280.342 54.2204C280.342 55.1704 280.342 56.1304 280.342 57.0904C280.355 57.1594 280.392 57.2217 280.446 57.2665C280.499 57.3113 280.567 57.3359 280.637 57.3359C280.708 57.3359 280.775 57.3113 280.829 57.2665C280.883 57.2217 280.92 57.1594 280.932 57.0904C280.932 56.0904 280.932 55.0904 280.932 54.1704C282.232 54.0904 283.532 53.9904 284.832 53.8604L284.952 59.2404C282.347 59.4504 279.728 59.4504 277.122 59.2404C276.842 59.2404 276.852 59.6404 277.122 59.6704C279.727 59.9754 282.353 60.0657 284.972 59.9404L285.092 65.4404L281.772 65.7604C281.772 64.9904 281.772 64.2204 281.722 63.4404C281.792 63.3859 281.842 63.3109 281.867 63.2261C281.891 63.1413 281.888 63.051 281.858 62.968C281.828 62.885 281.773 62.8136 281.7 62.7637C281.627 62.7139 281.541 62.6883 281.452 62.6904C279.312 62.6104 277.082 62.6004 274.842 62.6404C276.842 42.9004 275.642 22.1504 274.282 2.41044C280.507 3.36813 286.815 3.67312 293.102 3.32044C292.872 23.4104 294.782 43.6704 295.352 63.7704C295.946 84.1038 296.416 104.437 296.762 124.77C296.762 124.916 296.82 125.056 296.924 125.159C297.027 125.262 297.167 125.32 297.312 125.32C297.458 125.32 297.598 125.262 297.701 125.159C297.805 125.056 297.862 124.916 297.862 124.77C297.522 104.484 297.022 84.2038 296.362 63.9304C302.642 64.0304 308.872 64.2604 315.132 64.8504C315.245 64.8599 315.358 64.8318 315.452 64.7704C314.872 84.6604 316.342 104.9 317.732 124.77C317.782 125.37 318.732 125.38 318.682 124.77C317.502 104.77 317.362 84.7704 316.142 64.7704C316.14 64.7128 316.123 64.6567 316.093 64.6071C316.064 64.5575 316.022 64.5161 315.973 64.4864C315.923 64.4567 315.867 64.4397 315.81 64.4369C315.752 64.4341 315.695 64.4456 315.642 64.4704C315.663 64.3885 315.666 64.3032 315.65 64.2202C315.635 64.1372 315.602 64.0584 315.554 63.9892C315.505 63.92 315.443 63.862 315.37 63.8191C315.297 63.7762 315.216 63.7494 315.132 63.7404C312.132 63.3804 309.062 63.1204 306.002 62.9804C305.932 57.5804 306.072 52.2704 306.402 46.8904H306.492C306.582 46.8286 306.663 46.7546 306.732 46.6704C306.812 46.5904 306.732 46.4304 306.602 46.5004C306.992 46.2204 311.972 46.9704 312.802 46.9804C315.062 46.9804 317.322 46.9538 319.582 46.9004C324.196 46.7404 328.786 46.3771 333.352 45.8104C332.572 72.1204 334.602 98.8604 336.022 125.12C336.022 125.79 337.102 125.79 337.072 125.12C336.442 111.74 335.832 98.3604 335.372 84.9804C335.182 79.2904 335.092 73.6004 334.982 67.9004C342.892 69.6804 351.832 68.5704 359.772 67.4404C359.332 86.9304 360.882 106.67 361.722 126.13C361.722 126.78 362.722 126.78 362.722 126.13C361.912 106.42 362.062 86.4704 360.432 66.8204C360.43 66.7748 360.418 66.7302 360.398 66.6893C360.378 66.6483 360.35 66.6118 360.315 66.5819C360.281 66.552 360.241 66.5294 360.197 66.5154C360.154 66.5014 360.108 66.4963 360.062 66.5004C360.001 66.4406 359.927 66.3958 359.845 66.3698C359.764 66.3437 359.677 66.3371 359.592 66.3504C357.592 66.6404 355.522 66.8104 353.492 66.9204V66.8604C353.692 65.4173 353.692 63.9535 353.492 62.5104C353.492 61.0904 353.492 59.6804 353.492 58.2704C360.602 58.2704 367.742 58.1504 374.852 57.9704C374.372 69.0304 375.262 80.2604 375.662 91.3204C376.062 102.6 376.569 113.874 377.182 125.14C377.182 125.82 378.302 125.83 378.262 125.14C377.649 113.874 377.126 102.6 376.692 91.3204C376.252 80.0704 376.532 68.6904 375.532 57.4804C375.532 57.4204 375.532 57.3904 375.472 57.3504C375.464 57.2856 375.44 57.2238 375.402 57.1704C375.342 55.8504 374.972 54.5404 374.822 53.2304C374.692 52.0804 374.672 50.9104 374.462 49.7704C374.462 49.6704 374.262 49.6604 374.242 49.7704C373.928 52.1707 374.122 54.6101 374.812 56.9304C373.092 56.9304 371.362 56.8504 369.632 56.8504C370.101 52.8669 370.158 48.8456 369.802 44.8504C369.813 44.8077 369.813 44.7632 369.802 44.7204C378.422 46.6204 388.572 45.4604 397.242 44.6604C397.242 44.7804 397.242 44.9104 397.242 45.0404C398.242 71.5304 399.592 98.0404 400.072 124.5C400.089 124.615 400.146 124.719 400.233 124.794C400.321 124.87 400.432 124.911 400.547 124.911C400.663 124.911 400.774 124.87 400.861 124.794C400.949 124.719 401.006 124.615 401.022 124.5C400.862 98.0004 400.172 71.5104 397.962 45.1804C400.532 39.1804 403.402 33.2404 406.132 27.2704C406.177 27.1808 406.192 27.0796 406.175 26.981C406.159 26.8824 406.113 26.7913 406.042 26.7204C406.712 20.4004 407.122 13.9604 407.162 7.60044H407.212C407.521 7.63536 407.833 7.63536 408.142 7.60044C408.375 7.57909 408.606 7.53896 408.832 7.48044C408.442 14.3404 408.692 21.2804 408.582 28.1404C408.586 28.242 408.621 28.3401 408.681 28.4221C408.741 28.5041 408.824 28.5662 408.919 28.6006C409.015 28.635 409.119 28.6401 409.217 28.6151C409.316 28.5901 409.405 28.5362 409.472 28.4604C412.202 33.3404 415.532 37.9104 418.262 42.8204C418.294 42.883 418.339 42.9377 418.395 42.9809C418.45 43.0241 418.514 43.0547 418.582 43.0704C417.282 48.7204 418.452 55.4204 418.582 61.1704C418.752 67.8104 418.762 74.4704 419.162 81.0904C415.032 81.3904 410.942 81.8904 407.102 82.5504C407.054 82.5574 407.009 82.5813 406.976 82.6178C406.943 82.6544 406.924 82.7013 406.922 82.7504C406.829 82.7615 406.742 82.8043 406.677 82.8717C406.611 82.939 406.571 83.0268 406.562 83.1204C405.316 97.2084 405.289 111.378 406.482 125.47C406.482 126.05 407.432 126.05 407.392 125.47C406.526 111.368 406.509 97.2253 407.342 83.1204C412.112 83.2604 416.912 82.9604 421.712 82.6304C421.592 83.9104 421.472 85.1904 421.362 86.4804C419.262 86.5604 417.162 86.6838 415.062 86.8504V86.5104C415.062 86.4653 415.045 86.4221 415.013 86.3902C414.981 86.3583 414.938 86.3404 414.892 86.3404C414.847 86.3404 414.804 86.3583 414.772 86.3902C414.74 86.4221 414.722 86.4653 414.722 86.5104C414.722 86.6304 414.722 86.7604 414.722 86.8804C413.122 87.0004 411.532 87.1404 409.972 87.2804C409.972 86.6904 409.922 86.1004 409.892 85.5104C409.892 85.4733 409.878 85.4377 409.851 85.4114C409.825 85.3852 409.79 85.3704 409.752 85.3704C409.715 85.3704 409.68 85.3852 409.653 85.4114C409.627 85.4377 409.612 85.4733 409.612 85.5104C409.612 86.1104 409.612 86.7104 409.612 87.3104H409.522C409.212 87.3104 409.202 87.8104 409.522 87.8004H409.612C409.612 91.2704 409.662 94.7404 409.742 98.2104C409.732 98.2324 409.727 98.2563 409.727 98.2804C409.727 98.3046 409.732 98.3284 409.742 98.3504C409.742 99.5004 409.802 100.65 409.842 101.8H409.202C409.148 101.812 409.1 101.841 409.065 101.884C409.03 101.927 409.011 101.98 409.011 102.035C409.011 102.091 409.03 102.144 409.065 102.187C409.1 102.23 409.148 102.259 409.202 102.27H409.852C410.012 106.977 410.216 111.684 410.462 116.39C409.562 116.39 409.022 116.3 409.022 116.18C409.013 116.139 408.989 116.101 408.955 116.075C408.922 116.048 408.88 116.034 408.837 116.034C408.795 116.034 408.753 116.048 408.719 116.075C408.686 116.101 408.662 116.139 408.652 116.18V116.48C408.651 116.515 408.659 116.55 408.677 116.58C408.695 116.611 408.721 116.635 408.752 116.65C409.311 116.907 409.91 117.062 410.522 117.11C410.662 119.777 410.812 122.444 410.972 125.11C410.972 125.45 411.522 125.46 411.512 125.11C411.462 124.11 411.422 123.01 411.382 121.96C412.832 122.1 414.292 122.23 415.772 122.32L415.862 123.45C415.862 123.83 416.502 123.84 416.482 123.45C416.462 123.06 416.432 122.72 416.412 122.36C417.692 122.43 418.962 122.47 420.242 122.49C420.247 122.587 420.247 122.684 420.242 122.78C420.242 122.852 420.271 122.921 420.322 122.971C420.372 123.022 420.441 123.05 420.512 123.05C420.584 123.05 420.653 123.022 420.703 122.971C420.754 122.921 420.782 122.852 420.782 122.78C420.787 122.687 420.787 122.594 420.782 122.5C423.51 122.531 426.235 122.344 428.932 121.94C429.252 121.94 429.172 121.38 428.852 121.38C427.672 121.38 426.502 121.43 425.332 121.47C425.332 120.96 425.332 120.47 425.412 119.94C426.122 119.86 426.832 119.76 427.532 119.65V120.77C427.532 121.2 428.152 121.19 428.192 120.77C428.232 120.35 428.252 119.94 428.292 119.52L428.972 119.4C429.302 119.33 429.232 118.78 428.892 118.81H428.342C428.602 115.544 428.762 112.257 428.822 108.95H428.962C429.252 108.95 429.182 108.43 428.892 108.44H428.832C428.922 103.01 428.742 97.5604 428.332 92.1604L429.562 92.1004C429.629 92.1004 429.692 92.0741 429.739 92.0272C429.786 91.9803 429.812 91.9167 429.812 91.8504C429.812 91.7841 429.786 91.7205 429.739 91.6737C429.692 91.6268 429.629 91.6004 429.562 91.6004H428.292C428.172 90.0804 428.032 88.6004 427.882 87.0604L429.562 86.9204C429.623 86.9204 429.682 86.8962 429.725 86.8531C429.768 86.8099 429.792 86.7514 429.792 86.6904C429.792 86.6294 429.768 86.5709 429.725 86.5278C429.682 86.4847 429.623 86.4604 429.562 86.4604L427.812 86.3604C427.752 85.8104 427.702 85.2504 427.642 84.7004C427.642 84.6104 427.492 84.6004 427.492 84.7004L427.552 86.3504C426.832 86.3504 426.102 86.3004 425.372 86.3004C425.372 85.3004 425.322 84.3604 425.312 83.3904C425.312 83.3241 425.286 83.2605 425.239 83.2137C425.192 83.1668 425.129 83.1404 425.062 83.1404C424.996 83.1404 424.933 83.1668 424.886 83.2137C424.839 83.2605 424.812 83.3241 424.812 83.3904L424.752 86.3004C423.812 86.3004 422.872 86.3004 421.932 86.3004C422.002 85.0204 422.082 83.7304 422.162 82.4504C425.982 82.1904 429.802 81.9304 433.602 81.8804C431.922 96.1804 432.682 111.04 433.942 125.34C434.002 126 435.042 126.01 434.992 125.34C433.862 110.75 434.232 96.3404 434.112 81.7204C434.114 81.679 434.104 81.6378 434.083 81.6022C434.061 81.5666 434.03 81.5382 433.992 81.5204C434.005 81.4554 434.004 81.3884 433.989 81.3238C433.974 81.2593 433.945 81.1989 433.904 81.1466C433.863 81.0944 433.811 81.0516 433.752 81.0212C433.693 80.9908 433.629 80.9735 433.562 80.9704C430.862 80.7404 428.042 80.6804 425.182 80.7204C425.182 73.3004 425.112 65.8904 424.952 58.4704C432.212 58.6704 439.462 58.7104 446.712 59.0304C447.172 81.0304 448.262 103.03 448.812 125.03C448.812 125.174 448.869 125.311 448.971 125.412C449.072 125.514 449.209 125.57 449.352 125.57C449.496 125.57 449.633 125.514 449.734 125.412C449.836 125.311 449.892 125.174 449.892 125.03C449.452 105.71 449.152 86.3104 448.192 67.0304C453.185 67.3705 458.193 67.4306 463.192 67.2104C463.942 67.2104 463.962 66.0104 463.192 66.0204L458.902 66.1204C458.902 63.4104 459.342 60.5604 459.122 57.8804C468.372 58.0604 477.662 57.4904 486.912 57.3604C486.832 80.2404 488.062 103.24 488.852 126.11C488.852 126.264 488.914 126.412 489.022 126.521C489.131 126.629 489.279 126.69 489.432 126.69C489.586 126.69 489.734 126.629 489.843 126.521C489.951 126.412 490.012 126.264 490.012 126.11C489.602 108.69 489.432 91.1704 488.752 73.7204C491.112 75.0204 496.752 74.2304 499.222 74.3004C503.092 74.4204 506.962 74.5504 510.832 74.5104C510.904 74.5144 510.975 74.5021 511.041 74.4743C511.107 74.4466 511.165 74.4042 511.212 74.3504C511.282 76.1104 511.342 77.8704 511.372 79.6204C511.712 94.5671 512.046 109.514 512.372 124.46C512.391 124.597 512.458 124.723 512.562 124.814C512.666 124.905 512.799 124.955 512.937 124.955C513.076 124.955 513.209 124.905 513.313 124.814C513.417 124.723 513.484 124.597 513.502 124.46C513.182 109.514 512.849 94.5671 512.502 79.6204C512.172 65.1504 512.932 50.1304 511.332 35.7304C513.202 35.9704 520.672 35.5304 521.412 35.5404C524.753 35.5404 528.132 35.7204 531.412 35.4504C530.503 50.2704 531.732 65.4504 532.092 80.3104C532.459 95.3704 532.889 110.424 533.382 125.47C533.382 126.18 534.503 126.18 534.472 125.47C534.012 110.424 533.596 95.3704 533.222 80.3104C533.102 75.1704 533.092 69.9904 533.082 64.8004C538.592 65.1504 544.532 65.5104 550.022 64.8704C550.092 72.1904 550.562 79.5004 550.962 86.8104C550.962 86.8104 550.962 86.8704 550.962 86.9004C549.632 86.9804 548.302 87.0704 546.962 87.2004C546.899 87.2099 546.839 87.2302 546.782 87.2604C546.751 87.2542 546.718 87.2554 546.687 87.2638C546.656 87.2722 546.627 87.2876 546.603 87.3089C546.579 87.3301 546.56 87.3566 546.548 87.3864C546.536 87.4162 546.53 87.4483 546.532 87.4804C546.412 99.8904 547.612 112.42 548.392 124.8C548.392 125.36 549.302 125.36 549.272 124.8C548.692 112.57 548.492 100.15 547.062 87.9904C554.253 87.8202 561.448 88.0506 568.612 88.6804C568.712 88.692 568.813 88.6747 568.902 88.6304C568.162 94.7104 569.392 100.72 570.062 106.77C570.732 112.82 569.622 119.17 571.472 124.96C571.489 125.019 571.517 125.074 571.554 125.121C571.592 125.169 571.638 125.209 571.691 125.238C571.744 125.268 571.802 125.287 571.863 125.294C571.923 125.302 571.984 125.297 572.042 125.28C572.101 125.264 572.156 125.236 572.203 125.199C572.251 125.161 572.291 125.115 572.32 125.062C572.35 125.009 572.369 124.951 572.376 124.89C572.384 124.83 572.379 124.769 572.362 124.71C570.902 118.59 571.752 112.11 571.022 105.86C570.177 99.8959 569.71 93.8839 569.622 87.8604C569.622 87.5304 569.112 87.4304 569.022 87.7404C568.917 87.6212 568.771 87.5462 568.612 87.5304C568.193 87.5304 567.762 87.4504 567.332 87.4104C567.212 86.5104 566.912 85.6504 566.842 84.7404C566.766 83.7764 566.799 82.8068 566.942 81.8504C566.942 81.6204 566.582 81.5704 566.532 81.8004C566.033 83.6259 566.093 85.559 566.702 87.3504C565.962 87.2704 565.242 87.1904 564.502 87.1304C564.272 84.4704 564.042 81.8104 563.912 79.1304C567.412 79.8304 571.142 79.5504 574.702 79.5804C579.122 79.5804 583.552 79.7104 587.982 79.6504C588.091 79.655 588.199 79.623 588.288 79.5596C588.376 79.4962 588.441 79.405 588.472 79.3004C588.852 94.4804 589.573 109.68 590.052 124.84C590.052 125.51 591.122 125.51 591.052 124.84C590.453 103.84 590.302 82.8404 589.052 61.8404C596.552 62.6704 604.742 62.2304 612.252 61.7404C612.382 61.7829 612.524 61.7719 612.646 61.7101C612.768 61.6482 612.86 61.5404 612.902 61.4104C612.945 61.2805 612.934 61.139 612.872 61.0171C612.81 60.8952 612.702 60.8029 612.572 60.7604ZM47.5724 118.76C46.5724 118.92 45.5724 119.08 44.6324 119.22C44.6324 118.15 44.6324 117.08 44.6324 116.02C45.6324 115.91 46.6324 115.78 47.5724 115.64C47.4239 116.681 47.4171 117.738 47.5524 118.78L47.5724 118.76ZM47.5724 114.67C47.5724 114.83 47.5724 114.98 47.5724 115.13L44.5724 115.48C44.5724 113.89 44.5724 112.29 44.5724 110.7C45.5724 110.54 46.6324 110.35 47.6524 110.14C47.6924 111.67 47.6424 113.18 47.6024 114.69L47.5724 114.67ZM47.7224 109.55C46.7224 109.75 45.6624 109.95 44.6324 110.13C44.6324 109.13 44.6324 108.13 44.6324 107.07C45.6324 106.96 46.7224 106.82 47.7624 106.64C47.8024 107.63 47.7724 108.6 47.7524 109.57L47.7224 109.55ZM47.8924 103.22C47.8924 104.12 47.8424 105.03 47.8224 105.93C46.8224 106.07 45.7324 106.21 44.6924 106.33C44.6924 105.05 44.6924 103.77 44.7624 102.49L47.9224 102.04L47.8924 103.22ZM47.8924 101.62L44.7224 102.02L44.7824 98.6904C45.8524 98.5704 46.9224 98.4204 47.9824 98.2604L47.8924 101.62ZM48.0024 97.6804L44.8024 98.0604L44.9624 93.3604L48.2024 93.1004C48.1624 94.6304 48.1224 96.1704 48.0824 97.7004L48.0024 97.6804ZM48.1524 92.3404C47.0724 92.4104 45.9924 92.4804 44.9124 92.5704C44.9124 91.3804 44.9124 90.1804 44.9824 88.9904L48.2624 88.7104C48.3024 89.9404 48.2624 91.1504 48.2324 92.3604L48.1524 92.3404ZM48.2924 87.9104L44.9924 88.2004C44.9924 87.2004 44.9924 86.2004 44.9924 85.2004C46.1124 85.2004 47.2224 85.1204 48.3424 85.0604C48.4324 86.0504 48.4024 87.0004 48.3724 87.9304L48.2924 87.9104ZM48.4224 84.2404C47.3024 84.2404 46.1724 84.3104 45.0524 84.3604V81.5704C46.2024 81.5704 47.3524 81.5104 48.5124 81.4904C48.5824 82.4204 48.5324 83.3404 48.5024 84.2604L48.4224 84.2404ZM49.1824 87.8304C49.1824 86.9004 49.2424 85.9704 49.2824 85.0404C50.1524 85.0404 51.0224 84.9204 51.8924 84.8404C51.8924 85.7704 51.8924 86.6904 51.8924 87.6104L49.1824 87.8304ZM51.9624 84.1904C51.0924 84.1904 50.2324 84.1904 49.3724 84.1904C49.3724 83.2804 49.3724 82.3704 49.4524 81.4604L52.0424 81.4004C52.0125 82.3504 51.9624 83.2704 51.9624 84.1904ZM39.9624 78.2904C44.1266 78.1658 48.2818 77.832 52.4124 77.2904C52.2524 78.3804 52.1424 79.4904 52.0624 80.6104C51.1924 80.6104 50.3224 80.6104 49.4424 80.6104L49.5024 78.4704C49.5024 78.3643 49.4603 78.2626 49.3853 78.1876C49.3103 78.1126 49.2085 78.0704 49.1024 78.0704C48.9964 78.0704 48.8946 78.1126 48.8196 78.1876C48.7446 78.2626 48.7024 78.3643 48.7024 78.4704C48.7024 79.1904 48.6424 79.9004 48.6024 80.6204C47.4424 80.6204 46.2824 80.6204 45.1224 80.7004C45.1224 80.1804 45.1224 79.7004 45.1224 79.1504C45.1224 78.6004 44.5624 78.7704 44.5324 79.1504C44.5024 79.5304 44.4424 80.1504 44.3924 80.7304C42.9124 80.8004 41.3924 80.8904 39.9424 81.0104C39.9624 80.0804 40.0124 79.1904 40.0124 78.2904H39.9624ZM39.9624 81.7504C41.4224 81.6904 42.8824 81.6504 44.3324 81.6104C44.2524 82.5504 44.1624 83.4804 44.1024 84.4204L39.9524 84.6204C39.9624 83.6604 39.9624 82.7104 39.9624 81.7504ZM39.9624 85.3504C41.3324 85.3504 42.6924 85.3504 44.0624 85.2904C43.9924 86.2904 43.9324 87.2904 43.8824 88.2904L39.9524 88.6904C39.9624 87.6004 39.9624 86.4804 39.9624 85.3504ZM39.9624 89.3504L43.8524 89.0604C43.7924 90.2604 43.7524 91.4504 43.7124 92.6504L39.9624 93.0004V89.3504ZM39.9624 93.6604L43.7224 93.4104C43.6824 95.0038 43.6524 96.5938 43.6324 98.1804L39.9224 98.6004C39.9624 97.0004 39.9624 95.3404 39.9624 93.7004V93.6604ZM39.9624 99.1304C41.2024 99.0404 42.4424 98.9304 43.6724 98.8004C43.6724 99.9304 43.6724 101.05 43.6724 102.17L39.9324 102.7C39.8624 101.55 39.8824 100.36 39.8924 99.1704L39.9624 99.1304ZM39.9624 103.13C41.2158 102.977 42.4658 102.817 43.7124 102.65C43.7124 103.92 43.7124 105.19 43.7124 106.45C42.4424 106.59 41.1624 106.71 39.8724 106.78L39.9624 103.13ZM39.8924 107.36C41.1824 107.36 42.4724 107.27 43.7624 107.17C43.7624 108.17 43.7624 109.25 43.8324 110.29C42.5024 110.51 41.1724 110.73 39.8324 110.91C39.7424 109.74 39.7524 108.55 39.7724 107.37L39.8924 107.36ZM39.8324 111.36C41.1724 111.22 42.5124 111.05 43.8324 110.85C43.8824 112.43 43.9324 114.01 43.9924 115.58C42.5724 115.73 41.1524 115.88 39.7224 116.01C39.6424 114.46 39.6824 112.91 39.7124 111.36H39.8324ZM39.7224 116.46C41.1624 116.38 42.5924 116.25 44.0224 116.11C44.0224 117.18 44.1124 118.25 44.1624 119.31C42.6624 119.51 41.1624 119.69 39.6424 119.82C39.5524 118.7 39.5824 117.58 39.6024 116.46H39.7224ZM39.6324 120.28C41.1524 120.28 42.6824 120.13 44.1924 119.95C44.1924 120.78 44.2624 121.61 44.3124 122.44C42.7324 122.5 41.1624 122.56 39.5824 122.58C39.4824 121.81 39.5024 121.05 39.5124 120.28H39.6324ZM36.3624 122.57C36.3024 120.57 36.2124 118.57 36.1124 116.64L39.1124 116.5C39.1124 117.61 39.1124 118.73 39.1124 119.85C38.4124 119.9 37.7124 119.96 37.0124 119.99C36.9756 120 36.9429 120.021 36.9195 120.051C36.8961 120.081 36.8834 120.117 36.8834 120.155C36.8834 120.193 36.8961 120.23 36.9195 120.26C36.9429 120.29 36.9756 120.311 37.0124 120.32H39.1124C39.1124 121.08 39.1124 121.84 39.1124 122.6C38.0924 122.59 37.1724 122.59 36.2424 122.57H36.3624ZM39.1324 102.86L36.6424 103.22C36.4524 103.22 36.4924 103.57 36.6424 103.55L39.0824 103.25C39.0824 104.44 39.0824 105.63 39.0824 106.82C38.1724 106.82 37.2524 106.88 36.3324 106.88C36.2784 106.892 36.2299 106.921 36.195 106.964C36.1602 107.007 36.1412 107.06 36.1412 107.115C36.1412 107.171 36.1602 107.224 36.195 107.267C36.2299 107.31 36.2784 107.339 36.3324 107.35C37.2424 107.35 38.1624 107.35 39.0824 107.35C39.0824 108.56 39.0824 109.77 39.0824 110.98C38.1724 111.09 37.2624 111.21 36.3424 111.3C36.1424 111.3 36.1424 111.63 36.3424 111.62C37.2624 111.56 38.1724 111.47 39.0824 111.39C39.0824 112.94 39.0824 114.48 39.0824 116.03C38.0691 116.124 37.0691 116.204 36.0824 116.27L35.7524 109.51L35.3624 101.58C35.3624 101.12 35.3624 100.29 35.3624 99.4504C36.6124 99.3804 37.8524 99.3004 39.1024 99.2104C39.0224 100.45 39.0124 101.65 39.0124 102.86H39.1324ZM36.2124 82.0004L39.2124 81.8404C39.2124 82.8404 39.2124 83.7504 39.2124 84.7104L36.1424 84.8504C36.1724 83.8504 36.2024 82.9004 36.2124 82.0004ZM36.1124 85.4104H39.1924L39.1324 88.8804L35.8924 89.2104C35.9624 87.8904 36.0524 86.6204 36.1124 85.3604V85.4104ZM35.8624 89.7304L39.1224 89.5004C39.1224 90.7104 39.1224 91.9204 39.1224 93.1404C38.0024 93.2304 36.8224 93.3804 35.6224 93.5004C35.6824 92.2004 35.7724 90.9404 35.8624 89.6804V89.7304ZM32.3424 89.9904L35.1324 89.7904C35.1324 91.0404 35.0824 92.3004 35.0624 93.5504C34.1424 93.6304 33.2224 93.6904 32.3124 93.6804C32.3458 92.4204 32.3558 91.1738 32.3424 89.9404V89.9904ZM28.6324 93.5304C29.6836 93.9058 30.7868 94.1149 31.9024 94.1504C31.9024 94.8204 31.9024 95.4904 31.9724 96.1504C31.9724 96.1902 31.9882 96.2284 32.0164 96.2565C32.0445 96.2846 32.0827 96.3004 32.1224 96.3004C32.1622 96.3004 32.2004 96.2846 32.2285 96.2565C32.2566 96.2284 32.2724 96.1902 32.2724 96.1504C32.2724 95.4804 32.2724 94.8204 32.2724 94.1504C33.1824 94.1504 34.0924 94.1504 35.0224 94.0604C35.0224 94.5304 35.0224 95.0604 35.0224 95.4804C35.0224 95.7504 35.4124 95.7404 35.4324 95.4804C35.4324 95.0004 35.5024 94.4804 35.5324 94.0204L36.7224 93.9404L39.0724 93.7904C39.0724 95.4504 39.0724 97.1104 39.0724 98.7904C37.8324 98.9204 36.5824 99.0304 35.3324 99.1204C35.4006 98.4387 35.2722 97.7516 34.9624 97.1404C34.0524 95.9204 31.6224 96.5804 30.3624 96.6504L28.4224 96.7804C28.6718 95.6992 28.7428 94.5845 28.6324 93.4804V93.5304ZM281.962 70.0004C283.062 70.1004 284.182 70.1504 285.312 70.1404C285.312 71.2404 285.362 72.3404 285.392 73.4404C284.686 73.4086 283.981 73.3385 283.282 73.2304C282.982 73.2304 282.852 73.6304 283.152 73.6904C283.892 73.8204 284.642 73.9304 285.402 74.0004C285.452 75.7404 285.492 77.4804 285.532 79.2204C284.437 79.2214 283.344 79.1344 282.262 78.9604C282.227 78.956 282.192 78.9601 282.159 78.9723C282.126 78.9845 282.096 79.0044 282.072 79.0304C282.066 76.0171 282.029 73.0071 281.962 70.0004ZM282.072 79.3104C282.072 79.3104 282.072 79.3104 282.152 79.3704C283.272 79.6132 284.409 79.767 285.552 79.8304C285.552 81.6104 285.642 83.3804 285.692 85.1604C284.512 85.2504 283.322 85.3104 282.122 85.3004C282.132 83.2904 282.112 81.3004 282.092 79.3004L282.072 79.3104ZM285.702 85.7004C285.776 88.0204 285.839 90.3538 285.892 92.7004C284.642 92.8304 283.392 92.9404 282.122 92.9904V85.6204C283.322 85.6904 284.532 85.7204 285.722 85.6904L285.702 85.7004ZM282.212 99.5204H282.112C282.112 97.4271 282.112 95.3304 282.112 93.2304C283.362 93.2304 284.632 93.2304 285.892 93.1504C285.952 95.0904 286.002 97.0304 286.052 98.9704L282.212 99.5204ZM289.812 118.43C288.935 118.515 288.054 118.555 287.172 118.55L287.082 113.55C287.962 113.55 288.842 113.43 289.712 113.34C289.762 115 289.802 116.73 289.832 118.42L289.812 118.43ZM289.632 109.43C289.632 110.57 289.682 111.72 289.702 112.86C288.832 112.97 287.952 113.07 287.072 113.15L287.012 109.82C287.962 109.69 288.792 109.56 289.652 109.39L289.632 109.43ZM289.552 104.59C289.552 106 289.602 107.41 289.622 108.83C288.752 108.99 287.882 109.14 287.002 109.27L286.912 104.72C287.812 104.68 288.692 104.63 289.572 104.55L289.552 104.59ZM289.552 103.98C288.672 104.07 287.802 104.15 286.912 104.19C286.912 102.65 286.912 101.1 286.832 99.5604C287.712 99.4904 288.602 99.4204 289.482 99.3304C289.512 100.84 289.532 102.39 289.562 103.94L289.552 103.98ZM289.472 98.6504C288.582 98.7404 287.702 98.8404 286.822 98.9504C286.822 97.0304 286.752 95.1104 286.712 93.1904C287.599 93.1171 288.489 93.0171 289.382 92.8904C289.412 94.7704 289.452 96.6904 289.482 98.6104L289.472 98.6504ZM289.372 92.2504C288.482 92.3804 287.592 92.5004 286.702 92.6004C286.652 90.3004 286.612 88.0004 286.562 85.7004C287.476 85.6594 288.387 85.5726 289.292 85.4404C289.332 87.6704 289.352 89.9404 289.382 92.2104L289.372 92.2504ZM289.282 84.8404L286.552 85.1304C286.552 83.3804 286.492 81.6304 286.452 79.8804C287.38 79.8809 288.306 79.8107 289.222 79.6704L289.282 84.8404ZM289.212 78.9604C288.295 79.1044 287.37 79.1945 286.442 79.2304C286.442 77.5304 286.372 75.8204 286.332 74.1104C287.278 74.1855 288.227 74.1855 289.172 74.1104C289.202 75.6604 289.212 77.2904 289.222 78.9204L289.212 78.9604ZM289.212 73.4004C288.212 73.4604 287.312 73.5004 286.362 73.5004C286.362 72.3704 286.312 71.2504 286.292 70.1304C287.258 70.0809 288.22 69.9707 289.172 69.8004C289.152 71.0004 289.162 72.1604 289.182 73.3604L289.212 73.4004ZM289.212 69.1304C288.212 69.2504 287.282 69.3604 286.312 69.4404C286.312 68.2804 286.312 67.1204 286.242 65.9604C287.242 65.9604 288.242 65.8504 289.182 65.7604L289.212 69.1304ZM289.212 65.1904C288.212 65.2504 287.212 65.3204 286.262 65.4104C286.262 63.5804 286.172 61.7604 286.132 59.9404C287.132 59.8604 288.132 59.7404 289.132 59.5704C289.082 61.4104 289.092 63.2804 289.112 65.1504L289.212 65.1904ZM289.212 58.8904C288.212 59.0204 287.212 59.1404 286.152 59.2304L286.032 53.8304C287.082 53.7104 288.132 53.5704 289.172 53.4104C289.042 55.2004 289.052 57.0004 289.072 58.8504L289.212 58.8904ZM289.212 52.6204C288.152 52.7104 287.102 52.8004 286.052 52.9204C286.052 51.5204 285.982 50.1204 285.942 48.7204C287.032 48.6304 288.112 48.5104 289.192 48.3704C289.012 49.7404 289.022 51.1604 289.032 52.5804L289.212 52.6204ZM289.212 47.7204L285.952 48.0304L285.832 43.3404C286.962 43.2704 288.082 43.1504 289.202 43.0104C288.962 44.5404 288.962 46.1104 288.962 47.6804L289.212 47.7204ZM289.212 42.3304C288.082 42.4304 286.962 42.5504 285.832 42.6304C285.832 40.9404 285.742 39.2404 285.702 37.5504C286.871 37.4976 288.036 37.3841 289.192 37.2104C288.962 38.8704 288.962 40.5804 288.962 42.2904L289.212 42.3304ZM289.212 36.5004C288.042 36.6304 286.872 36.7504 285.702 36.8304C285.642 34.7004 285.572 32.5704 285.512 30.4404C286.742 30.3804 287.972 30.2704 289.192 30.1004C288.962 32.1904 288.962 34.3304 288.962 36.4604L289.212 36.5004ZM288.962 17.7904L284.962 17.9104L284.812 13.5104C286.212 13.5104 287.602 13.5104 288.992 13.5104C288.902 14.9204 288.962 16.3504 288.962 17.7904ZM284.872 48.0604C283.642 48.1704 282.402 48.2804 281.162 48.3604C281.162 46.7004 281.162 45.0404 281.162 43.3604C282.372 43.3604 283.582 43.3604 284.782 43.3604L284.872 48.0604ZM288.942 8.78043C288.942 10.1004 288.942 11.4204 288.942 12.7804C287.542 12.7304 286.142 12.7304 284.732 12.7804C284.682 11.4804 284.642 10.1804 284.592 8.87043C285.962 8.78043 287.442 8.78043 288.892 8.78043H288.942ZM279.062 9.00043C280.782 8.88043 282.492 8.82043 284.212 8.79043C284.212 10.1004 284.212 11.4004 284.262 12.7004C282.802 12.7004 281.352 12.7904 279.902 12.8104C279.828 12.8104 279.757 12.8399 279.704 12.8924C279.652 12.945 279.622 13.0162 279.622 13.0904C279.622 13.1647 279.652 13.2359 279.704 13.2884C279.757 13.3409 279.828 13.3704 279.902 13.3704C281.352 13.3704 282.812 13.4404 284.272 13.4804C284.272 14.9504 284.272 16.4304 284.322 17.9004C282.892 17.9004 281.462 17.9004 280.022 17.9004C279.762 15.0004 279.442 12.0004 279.062 9.00043ZM280.062 18.4504C281.482 18.5304 282.902 18.5804 284.312 18.5904C284.312 20.3004 284.362 22.0104 284.382 23.7204C283.082 23.8104 281.782 23.8704 280.462 23.8704C280.352 22.0804 280.232 20.2804 280.072 18.4704L280.062 18.4504ZM280.502 24.3804C281.792 24.4304 283.092 24.4304 284.392 24.3804L284.482 29.7704C283.252 29.8504 282.022 29.9004 280.782 29.9004C280.712 28.0804 280.622 26.2404 280.512 24.4004L280.502 24.3804ZM280.812 30.3804C282.032 30.3804 283.262 30.3804 284.492 30.3804C284.492 32.5204 284.562 34.6504 284.592 36.7904C283.412 36.8604 282.222 36.9104 281.012 36.8804C280.962 34.7604 280.962 32.6004 280.822 30.4304L280.812 30.3804ZM281.032 37.3804C282.222 37.4504 283.412 37.4804 284.612 37.4604C284.612 39.1604 284.672 40.8604 284.712 42.5604C283.512 42.6504 282.312 42.7304 281.102 42.7804C281.102 41.0604 281.082 39.2604 281.042 37.4604L281.032 37.3804ZM281.032 53.3804C281.032 51.8804 281.032 50.3804 281.032 48.8904C282.272 48.8904 283.522 48.7904 284.762 48.7004L284.962 53.0004L281.032 53.3804ZM285.032 23.6504C284.972 21.9604 284.922 20.2604 284.862 18.5704C286.196 18.5704 287.529 18.5304 288.862 18.4504C288.862 20.0504 288.862 21.6604 288.862 23.2704C287.632 23.4704 286.342 23.6004 285.062 23.7004L285.032 23.6504ZM285.032 24.3304C286.322 24.2704 287.602 24.1504 288.872 23.9804C288.872 25.7704 288.872 27.5604 288.872 29.3504C287.632 29.4904 286.402 29.6104 285.172 29.7004C285.192 28.0004 285.132 26.1704 285.082 24.3804L285.032 24.3304ZM285.222 66.0004L285.312 69.5004C284.212 69.5704 283.102 69.6204 281.972 69.6004C281.972 68.4504 281.922 67.3004 281.902 66.1504L285.222 66.0004ZM425.492 119.12C425.542 118.21 425.582 117.3 425.622 116.38C426.302 116.31 426.982 116.23 427.622 116.13C427.622 117.07 427.572 118.01 427.552 118.95L425.492 119.12ZM427.672 115.64L425.672 115.75C425.672 114.81 425.732 113.87 425.752 112.93C426.402 112.85 427.052 112.78 427.682 112.69C427.732 112.69 427.752 112.69 427.782 112.69C427.722 113.61 427.702 114.61 427.672 115.61V115.64ZM427.842 100.72L425.712 100.84C425.712 99.8404 425.712 98.8404 425.662 97.9004C426.382 97.8104 427.102 97.7304 427.822 97.6204C427.832 98.6304 427.832 99.6604 427.842 100.69V100.72ZM427.842 101.15C427.842 102.15 427.842 103.22 427.842 104.25C427.152 104.34 426.462 104.41 425.762 104.48V101.37L427.842 101.15ZM427.842 97.1504C427.122 97.2104 426.402 97.2504 425.682 97.3004C425.682 96.5804 425.682 95.8604 425.632 95.1404L427.812 94.8304C427.802 95.5904 427.812 96.3604 427.812 97.1304L427.842 97.1504ZM427.782 112.15C427.732 112.107 427.669 112.083 427.602 112.08C426.992 112.08 426.372 112.08 425.762 112.08C425.762 111.19 425.762 110.3 425.762 109.41C426.452 109.32 427.122 109.21 427.762 109.1C427.782 110.16 427.762 111.17 427.752 112.17L427.782 112.15ZM425.782 108.66C425.782 107.45 425.782 106.24 425.782 105.03C426.472 104.94 427.162 104.83 427.852 104.72C427.852 105.99 427.852 107.25 427.852 108.52C427.122 108.58 426.442 108.62 425.762 108.68L425.782 108.66ZM427.782 94.4104L425.582 94.6104C425.582 93.8504 425.582 93.0804 425.532 92.3204L427.732 92.2104C427.752 93.0004 427.772 93.6904 427.782 94.4304V94.4104ZM427.592 87.1104C427.642 88.6204 427.682 90.1104 427.722 91.6304H425.512C425.512 90.1604 425.442 88.6904 425.402 87.2204C426.132 87.2304 426.862 87.1904 427.592 87.1304V87.1104ZM421.672 92.4704L424.672 92.3604C424.672 93.1404 424.672 93.9204 424.622 94.7104C423.622 94.8104 422.622 94.9204 421.622 95.0404L421.672 92.4704ZM424.422 109.63C424.422 110.47 424.422 111.31 424.422 112.15C423.312 112.15 422.192 112.25 421.072 112.32L421.132 109.99C422.252 109.9 423.342 109.78 424.422 109.65V109.63ZM421.182 109.15L421.272 105.42C422.322 105.42 423.372 105.29 424.412 105.18C424.412 106.38 424.412 107.58 424.412 108.78C423.332 108.91 422.262 109 421.182 109.17V109.15ZM424.472 113.03C424.472 113.94 424.522 114.85 424.552 115.76L421.012 115.96C421.012 115.09 421.012 114.21 421.082 113.34C422.212 113.27 423.352 113.17 424.472 113.05V113.03ZM424.572 116.43C424.572 117.34 424.652 118.24 424.702 119.13C423.442 119.23 422.182 119.31 420.912 119.38C420.912 118.47 420.972 117.56 420.992 116.65C422.192 116.62 423.382 116.55 424.572 116.45V116.43ZM421.572 95.6104L424.572 95.2404C424.572 95.9404 424.572 96.6404 424.572 97.3404L421.572 97.5504V95.6104ZM421.492 98.2504C422.492 98.1804 423.492 98.0904 424.492 97.9904C424.492 98.9404 424.492 99.9004 424.442 100.86C423.442 100.92 422.442 100.97 421.382 101.04C421.412 100.13 421.442 99.2004 421.472 98.2704L421.492 98.2504ZM424.492 101.46V104.56C423.492 104.64 422.412 104.72 421.372 104.77C421.372 103.77 421.422 102.77 421.452 101.71C422.392 101.66 423.422 101.57 424.442 101.48L424.492 101.46ZM421.392 87.4604C421.262 88.9104 421.142 90.3704 421.032 91.8304C419.102 91.9004 417.182 91.9804 415.252 92.0704C415.252 90.5804 415.202 89.0704 415.192 87.6004C417.202 87.5404 419.272 87.5004 421.342 87.4404L421.392 87.4604ZM410.092 87.7404C411.652 87.6804 413.222 87.6404 414.802 87.6104C414.752 89.1104 414.722 90.6104 414.692 92.1004L410.302 92.3304L410.092 87.7404ZM410.322 92.7404H414.692C414.692 93.8304 414.692 94.9304 414.692 96.0204L410.592 96.5704C410.56 96.5814 410.532 96.6024 410.512 96.6304C410.382 95.2604 410.322 94.0004 410.272 92.7004L410.322 92.7404ZM410.492 96.7404C410.499 96.7633 410.514 96.783 410.534 96.7958C410.555 96.8087 410.579 96.8139 410.602 96.8104L414.662 96.4104C414.662 96.9304 414.662 97.4104 414.662 97.9504C413.292 98.0104 411.912 98.0604 410.532 98.1004C410.472 97.6104 410.462 97.1504 410.442 96.7004L410.492 96.7404ZM410.552 98.4304C411.922 98.5004 413.302 98.5304 414.672 98.5404C414.672 99.5404 414.672 100.54 414.672 101.54L410.672 101.77C410.592 100.6 410.552 99.4904 410.502 98.3904L410.552 98.4304ZM410.702 102.25L414.702 102.12L414.762 104.89C413.442 104.89 412.112 104.77 410.762 104.66L410.702 102.25ZM410.812 105.06C412.132 105.23 413.472 105.35 414.812 105.44C414.812 106.97 414.922 108.51 414.992 110.04L411.992 110.44C411.834 110.349 411.65 110.313 411.468 110.338C411.287 110.364 411.12 110.449 410.992 110.58C410.892 108.69 410.822 106.86 410.762 105L410.812 105.06ZM411.022 110.98L415.022 110.61C415.022 111.38 415.102 112.15 415.152 112.91C413.952 113.06 412.762 113.21 411.592 113.39C411.382 113.39 411.432 113.76 411.642 113.76C412.812 113.76 414.002 113.76 415.192 113.76C415.242 114.62 415.302 115.48 415.362 116.34C413.782 116.4 412.362 116.44 411.232 116.44C411.112 114.55 411.042 112.75 410.962 110.94L411.022 110.98ZM411.432 121.53C411.372 120.07 411.312 118.62 411.262 117.16C412.645 117.192 414.028 117.129 415.402 116.97C415.462 117.86 415.532 118.75 415.602 119.63C414.502 119.63 413.402 119.63 412.292 119.63C412.072 119.63 412.082 119.93 412.292 119.96C413.402 120.09 414.522 120.18 415.662 120.25L415.782 121.64C414.282 121.62 412.842 121.58 411.382 121.49L411.432 121.53ZM415.592 105.53C417.152 105.61 418.712 105.6 420.272 105.53C420.272 106.81 420.202 108.08 420.172 109.36L415.792 109.95C415.682 108.41 415.602 106.92 415.542 105.44L415.592 105.53ZM415.922 112.87C415.922 112.11 415.862 111.35 415.822 110.59L420.162 110.2C420.162 110.97 420.162 111.73 420.162 112.5C418.672 112.51 417.272 112.63 415.872 112.78L415.922 112.87ZM415.922 113.75C417.312 113.75 418.702 113.62 420.092 113.52C420.092 114.39 420.092 115.26 420.092 116.12L416.092 116.32L415.922 113.75ZM416.112 116.96C416.502 116.96 416.882 116.9 417.212 116.89C418.212 116.89 419.142 116.89 420.112 116.8C420.112 117.71 420.112 118.62 420.172 119.53C418.882 119.59 417.582 119.64 416.272 119.67C416.212 118.68 416.152 117.77 416.102 116.87L416.112 116.96ZM416.402 121.73C416.402 121.28 416.342 120.83 416.322 120.38C417.612 120.44 418.902 120.44 420.202 120.38C420.202 120.81 420.202 121.24 420.202 121.66C418.962 121.63 417.672 121.65 416.392 121.64L416.402 121.73ZM420.262 104.92C418.682 104.92 417.112 105 415.532 104.92C415.532 103.97 415.482 103.03 415.452 102.09C417.092 102.02 418.732 101.94 420.372 101.83C420.312 102.8 420.282 103.82 420.252 104.83L420.262 104.92ZM420.412 101.21L415.412 101.53L415.322 98.5904C417.062 98.5904 418.802 98.5304 420.542 98.4104C420.502 99.2604 420.442 100.19 420.402 101.12L420.412 101.21ZM420.602 97.7004C418.842 97.8004 417.082 97.9004 415.322 97.9704C415.322 97.4504 415.322 96.9704 415.322 96.4004C417.132 96.2104 418.952 96.0204 420.762 95.8104L420.602 97.7004ZM420.762 95.2504C418.932 95.4704 417.092 95.7004 415.262 95.9404C415.262 94.8704 415.262 93.8004 415.262 92.7304C417.172 92.7304 419.082 92.6504 420.982 92.6004L420.762 95.2504ZM424.832 121.57L420.832 121.68C420.832 121.25 420.832 120.81 420.832 120.38C422.122 120.38 423.412 120.25 424.692 120.12C424.772 120.51 424.792 121 424.822 121.48L424.832 121.57ZM424.752 87.3904C424.752 88.8604 424.682 90.3204 424.652 91.8004C423.652 91.8004 422.652 91.8004 421.712 91.8804C421.762 90.4204 421.832 88.9704 421.902 87.5104C422.852 87.3904 423.792 87.3504 424.742 87.3004L424.752 87.3904Z" fill="white" fill-opacity="0.1"/>
</svg>
