<svg width="140" height="24" viewBox="0 0 140 24" fill="none" xmlns="http://www.w3.org/2000/svg">
<g clip-path="url(#clip0_1070_1615)">
<path d="M98.3598 21.5909C82.0358 15.8944 64.6083 19.7884 48.6214 20.8459C44.0244 21.1501 39.3926 22.3836 34.7512 22.0578C34.1458 22.0155 31.5077 21.8683 30.9219 20.6687C30.8454 20.5126 32.8406 19.8269 33.8126 19.5299C35.7028 18.9525 37.6025 18.5111 39.4889 17.9046C44.448 16.311 49.5529 15.4514 54.6181 14.6485C67.6196 12.5888 90.713 6.75977 104.105 13.5757C104.769 13.9134 102.77 13.5549 102.103 13.542C101.006 13.5214 99.9078 13.4765 98.8102 13.4472C95.2305 13.3526 91.6079 13.1004 88.0478 13.2663C76.5742 13.7994 64.9783 13.2762 53.5544 14.4113C50.1168 14.7531 46.7101 15.3491 43.2675 15.6443C41.2734 15.8152 41.3703 15.9055 39.2907 15.8405C38.389 15.8122 35.9389 16.3809 36.5708 15.3554C37.6836 13.5489 41.6248 13.8718 43.1079 13.4649C49.8796 11.6087 56.5953 9.24958 63.4403 7.88326C80.9916 4.37995 99.0922 3.81992 117.01 4.5138C124.34 4.79764 131.553 2.61303 138.936 3.97445C121 0.362105 102.736 1.5108 85.0354 2.1719C65.1058 2.9163 45.1886 3.53388 25.3073 4.90978C17.1453 5.47442 9.34464 8.56396 1.11719 8.60722" stroke="#FF3A5C" stroke-width="1.34321" stroke-linecap="round" stroke-linejoin="round"/>
</g>
<defs>
<clipPath id="clip0_1070_1615">
<rect width="139.716" height="22.9989" fill="white" transform="translate(0.28125 0.388672)"/>
</clipPath>
</defs>
</svg>
