<svg width="20" height="21" viewBox="0 0 20 21" fill="none" xmlns="http://www.w3.org/2000/svg">
<path d="M6.2918 18.6251C13.8371 18.6251 17.9652 12.3724 17.9652 6.95167C17.9652 6.77589 17.9613 6.5962 17.9535 6.42042C18.7566 5.83967 19.4496 5.12033 20 4.2962C19.2521 4.62896 18.458 4.84627 17.6449 4.94074C18.5011 4.42755 19.1421 3.62135 19.4492 2.67159C18.6438 3.14892 17.763 3.48563 16.8445 3.6673C16.2257 3.00976 15.4075 2.57439 14.5164 2.4285C13.6253 2.28261 12.711 2.43433 11.9148 2.8602C11.1186 3.28607 10.4848 3.96238 10.1115 4.78455C9.73825 5.60672 9.64619 6.52897 9.84961 7.4087C8.21874 7.32686 6.62328 6.90321 5.16665 6.1652C3.71002 5.4272 2.42474 4.39132 1.39414 3.12472C0.870333 4.02782 0.710047 5.09649 0.945859 6.11353C1.18167 7.13057 1.79589 8.01966 2.66367 8.60011C2.01219 8.57943 1.37498 8.40402 0.804688 8.08839V8.13917C0.804104 9.08691 1.13175 10.0056 1.73192 10.7391C2.3321 11.4726 3.16777 11.9756 4.09687 12.1626C3.49338 12.3277 2.85999 12.3518 2.2457 12.2329C2.50788 13.048 3.01798 13.7609 3.70481 14.2721C4.39164 14.7833 5.22093 15.0673 6.07695 15.0845C4.62369 16.226 2.82848 16.8452 0.980469 16.8423C0.652739 16.8418 0.325333 16.8217 0 16.7821C1.87738 17.9866 4.06128 18.6263 6.2918 18.6251Z" fill="#1C9384"/>
</svg>
